<?xml version="1.0" standalone="no"?><!DOCTYPE svg PUBLIC "-//W3C//DTD SVG 1.1//EN" "http://www.w3.org/Graphics/SVG/1.1/DTD/svg11.dtd"><svg height="126" node-id="1" sillyvg="true" template-height="126" template-width="126" version="1.1" viewBox="0 0 126 126" width="126" xmlns="http://www.w3.org/2000/svg" xmlns:xlink="http://www.w3.org/1999/xlink"><defs node-id="136"></defs><path d="M 106.80 76.80 L 103.80 77.50 L 98.60 79.60 L 93.40 82.80 L 91.10 85.60 L 90.00 88.50 L 87.90 91.40 L 85.80 93.40 L 80.70 96.60 L 76.40 97.90 L 75.00 97.90 L 71.40 97.20 L 69.00 97.10 L 64.90 97.50 L 63.20 97.80 L 58.60 100.10 L 1.00 66.80 L 65.00 29.60 L 121.00 61.90 L 123.60 64.30 L 124.50 65.80 L 125.00 67.70 L 124.90 69.20 L 124.30 70.50 L 122.00 72.80 L 117.60 74.80 L 114.70 75.70 L 106.80 76.80 Z" fill="#f3f6fd" fill-rule="nonzero" node-id="140" stroke="none" target-height="70.5" target-width="124" target-x="1" target-y="29.6"></path><g node-id="471"><path d="M 54.80 95.70 L 54.90 95.40 L 54.30 95.60 L 53.90 94.70 L 53.40 94.50 L 51.80 95.30 L 55.00 90.30 L 59.90 86.60 L 63.20 85.10 L 64.90 83.80 L 64.60 85.30 L 65.40 86.60 L 66.10 86.70 L 69.10 85.70 L 74.30 82.60 L 79.90 78.20 L 84.50 73.50 L 86.30 71.10 L 86.90 69.70 L 86.40 68.00 L 85.90 67.60 L 84.80 67.70 L 79.90 69.90 L 77.10 71.80 L 71.60 76.10 L 66.50 81.30 L 65.20 81.90 L 65.00 81.60 L 63.40 82.30 L 63.20 82.00 L 62.50 82.30 L 60.90 83.50 L 52.40 87.60 L 51.40 85.80 L 48.90 84.50 L 47.60 82.10 L 50.30 80.10 L 49.60 79.80 L 47.50 80.00 L 45.80 78.60 L 42.80 80.20 L 42.60 80.90 L 43.00 81.30 L 43.60 84.20 L 44.20 88.00 L 44.40 91.90 L 53.60 97.20 L 54.80 95.70 Z M 47.30 88.60 L 46.20 87.60 L 44.60 82.50 L 45.50 82.00 L 47.40 87.30 L 47.30 88.60 Z" fill="#e1e9f4" fill-rule="nonzero" group-id="1" node-id="144" stroke="none" target-height="29.599998" target-width="44.300003" target-x="42.6" target-y="67.6"></path></g><path d="M 39.30 51.10 L 39.30 53.30 L 39.70 53.90 L 78.80 76.60 L 79.80 76.80 L 80.80 76.60 L 105.90 62.10 L 106.30 61.50 L 106.30 59.30 L 105.90 59.80 L 80.80 74.40 L 79.80 74.60 L 78.80 74.40 L 39.70 51.60 L 39.30 51.10 Z" fill="#e1e9f4" fill-rule="nonzero" node-id="147" stroke="none" target-height="25.700005" target-width="67" target-x="39.3" target-y="51.1"></path><path d="M 114.40 58.10 L 77.90 79.00 L 69.20 74.00 L 105.70 53.10 L 105.10 52.80 L 68.70 73.70 L 41.50 58.00 L 77.90 37.10 L 77.40 36.80 L 41.00 57.70 L 32.20 52.60 L 68.70 31.70 L 68.20 31.40 L 3.90 68.50 L 4.40 68.80 L 31.80 52.90 L 40.60 57.90 L 13.10 73.80 L 13.70 74.10 L 41.10 58.20 L 49.90 63.30 L 22.40 79.20 L 22.80 79.40 L 50.20 63.50 L 59.10 68.60 L 31.70 84.50 L 32.10 84.80 L 59.50 68.80 L 68.30 73.90 L 40.90 89.80 L 41.40 90.10 L 68.80 74.20 L 77.50 79.20 L 50.10 95.20 L 50.60 95.50 L 114.90 58.40 Z" fill="#fdfeff" fill-rule="nonzero" node-id="149" stroke="none" target-height="64.1" target-width="111" target-x="3.9" target-y="31.4"></path><g node-id="472"><path d="M 39.30 48.80 L 39.30 51.00 L 39.70 51.60 L 78.80 74.30 L 79.80 74.50 L 80.80 74.30 L 106.20 59.50 L 106.30 57.00 L 105.90 56.40 L 66.80 33.70 L 65.80 33.50 L 64.90 33.70 L 39.70 48.20 L 39.30 48.80 Z" fill="#6262aa" fill-rule="nonzero" group-id="2" node-id="153" stroke="none" target-height="41" target-width="67" target-x="39.3" target-y="33.5"></path><path d="M 39.30 48.80 L 39.30 51.00 L 39.70 51.60 L 78.80 74.30 L 79.80 74.50 L 80.80 74.30 L 105.90 59.80 L 106.30 59.20 L 106.30 57.00 L 105.90 57.60 L 80.80 72.10 L 79.80 72.30 L 78.80 72.10 L 39.70 49.30 L 39.30 48.80 Z" fill="#3a3a77" fill-rule="nonzero" group-id="2" node-id="155" stroke="none" target-height="25.7" target-width="67" target-x="39.3" target-y="48.8"></path><path d="M 39.70 48.20 L 39.30 48.60 L 39.70 49.30 L 78.80 72.10 L 79.80 72.30 L 80.80 72.10 L 105.90 57.60 L 106.30 57.20 L 105.90 56.40 L 66.80 33.70 L 65.80 33.50 L 64.90 33.70 L 39.70 48.20 Z" fill="#9eb5df" fill-rule="nonzero" group-id="2" node-id="157" stroke="none" target-height="38.800003" target-width="67" target-x="39.3" target-y="33.5"></path><g node-id="479"><g node-id="499"><path d="M 51.00 42.80 L 51.00 43.00 L 51.40 43.00 L 56.30 40.20 L 56.30 39.90 L 55.90 39.90 L 51.00 42.80 Z" fill="#83a1cc" fill-rule="nonzero" group-id="2,9,29" node-id="163" stroke="none" target-height="3.0999985" target-width="5.299999" target-x="51" target-y="39.9"></path></g></g><g node-id="480"><path d="M 88.70 64.50 L 88.40 65.10 L 89.60 65.70 L 90.50 65.50 L 94.10 63.40 L 94.50 62.70 L 93.20 62.10 L 92.30 62.40 L 88.70 64.50 Z" fill="#83a1cc" fill-rule="nonzero" group-id="2,10" node-id="169" stroke="none" target-height="3.5999985" target-width="6.0999985" target-x="88.4" target-y="62.1"></path></g><path d="M 67.20 34.90 L 102.50 55.50 L 77.20 70.10 L 41.90 49.60 Z" fill="#ffffff" fill-rule="nonzero" group-id="2" node-id="172" stroke="none" target-height="35.199997" target-width="60.6" target-x="41.9" target-y="34.9"></path></g><g node-id="473"><g node-id="481"><path d="M 69.90 60.00 L 71.00 60.80 L 69.70 61.30 L 70.00 62.10 L 72.40 64.00 L 74.20 64.90 L 72.40 65.90 L 65.00 61.60 L 69.90 60.00 Z" fill="#dee7f8" fill-rule="nonzero" group-id="3,11" node-id="179" stroke="none" target-height="5.9000015" target-width="9.199997" target-x="65" target-y="60"></path></g><g node-id="482"><path d="M 66.50 45.30 L 67.10 46.00 L 65.80 46.80 L 65.50 47.30 L 64.30 46.10 L 66.50 45.30 Z" fill="#dee7f8" fill-rule="nonzero" group-id="3,12" node-id="184" stroke="none" target-height="2" target-width="2.7999954" target-x="64.3" target-y="45.3"></path></g><g node-id="483"><path d="M 67.50 46.60 L 68.80 47.90 L 66.80 48.90 L 65.60 47.50 L 67.50 46.60 Z" fill="#dee7f8" fill-rule="nonzero" group-id="3,13" node-id="189" stroke="none" target-height="2.300003" target-width="3.2000046" target-x="65.6" target-y="46.6"></path></g><g node-id="484"><path d="M 54.90 47.00 L 51.80 48.40 L 48.90 46.80 L 51.60 45.30 Z" fill="#dee7f8" fill-rule="nonzero" group-id="3,14" node-id="194" stroke="none" target-height="3.1000023" target-width="6" target-x="48.9" target-y="45.3"></path></g><g node-id="485"><path d="M 51.20 48.80 L 49.80 49.40 L 46.90 48.00 L 48.30 47.20 Z" fill="#dee7f8" fill-rule="nonzero" group-id="3,15" node-id="199" stroke="none" target-height="2.2000008" target-width="4.299999" target-x="46.9" target-y="47.2"></path></g><g node-id="486"><g node-id="500"><path d="M 75.80 41.00 L 72.90 42.10 L 66.60 42.90 L 62.30 42.90 L 56.50 42.40 L 67.30 36.10 L 75.80 41.00 Z" fill="#9eb5df" fill-rule="nonzero" group-id="3,16,30" node-id="206" stroke="none" target-height="6.800003" target-width="19.300003" target-x="56.5" target-y="36.1"></path></g><g node-id="501"><path d="M 76.10 43.70 L 77.50 45.20 L 74.80 46.50 L 73.50 45.00 Z" fill="#dee7f8" fill-rule="nonzero" group-id="3,16,31" node-id="211" stroke="none" target-height="2.7999992" target-width="4" target-x="73.5" target-y="43.7"></path></g><g node-id="502"><path d="M 83.90 45.70 L 80.50 47.30 L 76.80 43.30 L 78.30 42.40 Z" fill="#dee7f8" fill-rule="nonzero" group-id="3,16,32" node-id="216" stroke="none" target-height="4.8999977" target-width="7.0999985" target-x="76.8" target-y="42.4"></path></g><g node-id="503"><path d="M 60.50 46.90 L 58.30 47.90 L 53.90 45.60 L 55.70 44.40 Z" fill="#dee7f8" fill-rule="nonzero" group-id="3,16,33" node-id="221" stroke="none" target-height="3.5" target-width="6.5999985" target-x="53.9" target-y="44.4"></path></g><g node-id="504"><path d="M 77.90 45.90 L 79.00 47.20 L 76.50 48.30 L 75.20 46.90 Z" fill="#dee7f8" fill-rule="nonzero" group-id="3,16,34" node-id="226" stroke="none" target-height="2.3999977" target-width="3.800003" target-x="75.2" target-y="45.9"></path></g><g node-id="505"><path d="M 57.50 48.30 L 54.50 49.80 L 52.50 48.70 L 55.50 47.30 Z" fill="#dee7f8" fill-rule="nonzero" group-id="3,16,35" node-id="231" stroke="none" target-height="2.5" target-width="5" target-x="52.5" target-y="47.3"></path></g><g node-id="506"><path d="M 60.30 49.90 L 58.70 50.60 L 56.80 49.30 L 58.30 48.80 Z" fill="#dee7f8" fill-rule="nonzero" group-id="3,16,36" node-id="236" stroke="none" target-height="1.7999992" target-width="3.5" target-x="56.8" target-y="48.8"></path></g><g node-id="507"><path d="M 61.80 47.70 L 65.00 50.80 L 62.10 51.10 L 59.20 48.30 Z" fill="#dee7f8" fill-rule="nonzero" group-id="3,16,37" node-id="241" stroke="none" target-height="3.3999977" target-width="5.799999" target-x="59.2" target-y="47.7"></path></g><g node-id="508"><path d="M 69.60 48.50 L 71.20 50.40 L 69.10 51.40 L 67.40 49.40 Z" fill="#dee7f8" fill-rule="nonzero" group-id="3,16,38" node-id="246" stroke="none" target-height="2.9000015" target-width="3.7999954" target-x="67.4" target-y="48.5"></path></g><g node-id="509"><path d="M 87.80 51.30 L 84.90 52.60 L 83.20 51.80 L 84.50 51.30 L 81.50 49.70 L 80.20 50.30 L 78.80 49.40 L 81.90 48.10 Z" fill="#dee7f8" fill-rule="nonzero" group-id="3,16,39" node-id="251" stroke="none" target-height="4.5" target-width="9" target-x="78.8" target-y="48.1"></path></g><g node-id="510"><path d="M 76.50 49.80 L 79.10 52.10 L 76.50 52.70 L 74.30 50.50 Z" fill="#dee7f8" fill-rule="nonzero" group-id="3,16,40" node-id="256" stroke="none" target-height="2.9000015" target-width="4.7999954" target-x="74.3" target-y="49.8"></path></g><g node-id="511"><path d="M 73.60 51.00 L 75.70 52.90 L 73.00 53.40 L 71.20 51.70 Z" fill="#dee7f8" fill-rule="nonzero" group-id="3,16,41" node-id="261" stroke="none" target-height="2.4000015" target-width="4.5" target-x="71.2" target-y="51"></path></g><g node-id="512"><path d="M 79.60 52.40 L 81.30 53.90 L 75.30 55.20 L 73.70 53.70 Z" fill="#dee7f8" fill-rule="nonzero" group-id="3,16,42" node-id="266" stroke="none" target-height="2.7999992" target-width="7.600006" target-x="73.7" target-y="52.4"></path></g><g node-id="513"><path d="M 67.50 56.90 L 61.10 59.40 L 48.10 51.90 L 54.90 52.30 Z" fill="#9eb5df" fill-rule="nonzero" group-id="3,16,43" node-id="271" stroke="none" target-height="7.5" target-width="19.400002" target-x="48.1" target-y="51.9"></path></g><g node-id="514"><path d="M 100.50 55.30 L 89.60 61.60 L 82.40 57.30 L 82.40 56.30 L 83.10 55.80 L 95.00 52.10 L 100.50 55.30 Z" fill="#9eb5df" fill-rule="nonzero" group-id="3,16,44" node-id="276" stroke="none" target-height="9.5" target-width="18.099998" target-x="82.4" target-y="52.1"></path></g><path d="M 44.50 49.30 L 56.20 50.50 L 69.30 54.70 L 72.50 56.80 L 73.90 56.30 L 68.20 53.00 L 62.70 47.30 L 57.50 44.30 L 53.90 43.90 L 55.10 43.20 L 61.70 43.70 L 66.50 43.60 L 70.70 43.20 L 73.40 42.60 L 76.50 41.40 L 77.70 42.10 L 72.60 43.80 L 65.00 44.50 L 59.60 44.40 L 63.80 46.90 L 69.40 52.60 L 75.10 56.00 L 82.90 54.10 L 91.90 50.30 L 93.10 51.00 L 83.90 54.90 L 73.50 57.60 L 73.90 57.80 L 77.10 57.30 L 79.50 57.70 L 82.20 58.60 L 85.30 60.10 L 88.60 62.20 L 87.20 63.00 L 81.60 59.70 L 77.20 58.50 L 76.00 58.60 L 73.90 59.30 L 71.80 58.20 L 63.90 61.00 L 62.70 60.30 L 70.80 57.50 L 68.30 55.70 L 55.70 51.60 L 46.20 50.80 L 44.20 49.60 L 44.50 49.30 Z" fill="#3887e5" fill-rule="nonzero" group-id="3,16" node-id="279" stroke="none" target-height="21.599998" target-width="48.899998" target-x="44.2" target-y="41.4"></path><g node-id="515"><path d="M 80.40 60.10 L 81.60 61.60 L 74.50 64.30 L 73.00 62.10 Z" fill="#dee7f8" fill-rule="nonzero" group-id="3,16,45" node-id="283" stroke="none" target-height="4.2000046" target-width="8.599998" target-x="73" target-y="60.1"></path></g><path d="M 82.20 62.60 L 84.30 64.70 L 77.40 68.70 L 75.70 67.80 L 74.00 65.50 Z" fill="#dee7f8" fill-rule="nonzero" group-id="3,16,46" node-id="288" stroke="none" target-height="6.0999985" target-width="10.300003" target-x="74" target-y="62.6"></path></g><g node-id="487"><path d="M 91.00 49.80 L 88.60 50.90 L 82.60 47.70 L 85.10 46.40 Z" fill="#dee7f8" fill-rule="nonzero" group-id="3,17" node-id="294" stroke="none" target-height="4.5" target-width="8.400002" target-x="82.6" target-y="46.4"></path></g><path d="M 73.00 45.70 L 76.00 49.20 L 71.80 50.10 L 68.50 46.20 L 70.30 45.80 L 73.00 45.70 Z" fill="#dee7f8" fill-rule="nonzero" group-id="3,18" node-id="299" stroke="none" target-height="4.3999977" target-width="7.5" target-x="68.5" target-y="45.7"></path></g><g node-id="474"><path d="M 50.00 79.50 L 49.00 79.60 L 45.40 80.90 L 45.40 82.50 L 45.60 82.80 L 46.30 82.70 L 48.20 81.50 L 50.00 80.20 L 50.20 79.90 L 50.00 79.50 Z" fill="#2a2a5e" fill-rule="nonzero" group-id="4" node-id="305" stroke="none" target-height="3.300003" target-width="4.799999" target-x="45.4" target-y="79.5"></path><path d="M 47.20 77.60 L 46.20 77.70 L 42.60 79.00 L 42.60 80.60 L 42.90 80.90 L 43.50 80.80 L 45.40 79.60 L 47.20 78.30 L 47.40 77.90 L 47.20 77.60 Z" fill="#2a2a5e" fill-rule="nonzero" group-id="4" node-id="307" stroke="none" target-height="3.300003" target-width="4.800003" target-x="42.6" target-y="77.6"></path><g node-id="489"><path d="M 45.50 65.50 L 43.20 64.70 L 42.60 65.80 L 42.40 66.90 L 43.00 71.90 L 42.60 79.00 L 43.90 79.10 L 44.80 78.30 L 44.90 73.40 L 45.50 70.00 L 45.20 67.30 L 45.50 65.50 Z" fill="#3a3a77" fill-rule="nonzero" group-id="4,19" node-id="311" stroke="none" target-height="14.400002" target-width="3.0999985" target-x="42.4" target-y="64.7"></path><path d="M 48.70 65.20 L 47.40 65.80 L 45.50 65.50 L 44.90 67.20 L 44.90 69.10 L 45.80 72.50 L 45.40 80.90 L 46.70 81.10 L 47.90 80.40 L 48.00 74.00 L 49.00 68.80 L 48.70 65.20 Z" fill="#4c4a8b" fill-rule="nonzero" group-id="4,19" node-id="313" stroke="none" target-height="15.900002" target-width="4.0999985" target-x="44.9" target-y="65.2"></path></g></g><g node-id="475"><g node-id="490"><g node-id="517"><g node-id="522"><g node-id="526"><g node-id="533"><g node-id="536"><g node-id="538"><g node-id="539"><path d="M 47.80 51.80 L 45.10 52.30 L 43.80 56.00 L 44.40 56.90 L 46.30 57.00 L 46.30 55.70 L 47.50 55.10 L 47.80 54.30 L 47.80 51.80 Z" fill="#ecb4bf" fill-rule="nonzero" group-id="5,20,47,52,56,63,66,68,69" node-id="335" stroke="none" target-height="5.200001" target-width="4" target-x="43.8" target-y="51.8"></path></g><path d="M 43.90 54.90 L 42.70 55.50 L 42.30 56.10 L 42.30 56.90 L 43.80 59.10 L 45.80 58.30 L 43.90 54.90 Z" fill="#3887e5" fill-rule="nonzero" group-id="5,20,47,52,56,63,66,68" node-id="338" stroke="none" target-height="4.199997" target-width="3.5" target-x="42.3" target-y="54.9"></path><path d="M 54.70 58.90 L 49.80 59.20 L 49.00 58.70 L 48.60 57.80 L 46.70 57.50 L 48.20 59.90 L 49.60 61.50 L 50.20 61.50 L 54.40 59.90 L 54.70 58.90 Z" fill="#1e72c6" fill-rule="nonzero" group-id="5,20,47,52,56,63,66,68" node-id="340" stroke="none" target-height="4" target-width="8" target-x="46.7" target-y="57.5"></path><path d="M 48.90 59.50 L 48.90 58.30 L 48.60 57.60 L 46.40 55.70 L 44.80 55.50 L 44.20 54.90 L 43.60 55.00 L 42.70 55.60 L 42.50 56.30 L 42.90 65.20 L 45.00 66.50 L 46.30 66.90 L 47.70 66.90 L 48.90 66.20 L 48.90 59.50 Z" fill="#6b9ef9" fill-rule="nonzero" group-id="5,20,47,52,56,63,66,68" node-id="342" stroke="none" target-height="12" target-width="6.4000015" target-x="42.5" target-y="54.9"></path></g></g></g></g></g></g><g node-id="518"><path d="M 44.30 54.40 L 44.30 54.40 Z" fill="#6262aa" fill-rule="nonzero" group-id="5,20,48" node-id="352" stroke="none" target-height="0" target-width="0" target-x="44.3" target-y="54.4"></path><path d="M 48.20 51.50 L 46.80 50.90 L 45.10 50.90 L 44.30 51.30 L 43.70 52.40 L 44.10 54.90 L 45.80 55.30 L 46.40 53.60 L 46.80 54.20 L 47.20 54.20 L 47.10 52.70 L 48.10 52.20 L 48.20 51.50 Z" fill="#a0533f" fill-rule="nonzero" group-id="5,20,48" node-id="354" stroke="none" target-height="4.3999977" target-width="4.5" target-x="43.7" target-y="50.9"></path></g></g><g node-id="491"><g node-id="519"><g node-id="523"><g node-id="527"><path d="M 61.00 51.90 L 59.60 53.00 L 58.80 54.10 L 58.60 55.30 L 58.90 52.40 L 59.60 51.30 L 61.00 50.10 L 64.80 48.90 L 69.00 48.90 L 71.10 49.40 L 72.80 50.10 L 74.30 51.30 L 75.10 52.40 L 75.30 55.30 L 75.00 54.10 L 74.30 53.00 L 72.80 51.90 L 71.10 51.10 L 69.00 50.60 L 64.80 50.60 L 61.00 51.90 Z" fill="#3a3a77" fill-rule="nonzero" group-id="5,21,49,53,57" node-id="366" stroke="none" target-height="6.3999977" target-width="16.700005" target-x="58.6" target-y="48.9"></path></g><g node-id="528"><path d="M 72.80 50.90 L 74.30 52.10 L 75.10 53.20 L 75.30 54.40 L 75.10 55.50 L 74.30 56.60 L 72.90 57.80 L 71.10 58.50 L 67.00 59.20 L 62.80 58.60 L 61.10 57.80 L 59.60 56.60 L 58.90 55.50 L 58.60 54.40 L 58.80 53.20 L 59.60 52.10 L 61.00 50.90 L 62.80 50.20 L 66.90 49.50 L 71.10 50.20 L 72.80 50.90 Z" fill="#6b9ef9" fill-opacity="0.6" fill-rule="nonzero" group-id="5,21,49,53,58" node-id="371" stroke="none" target-height="9.700001" target-width="16.700005" target-x="58.6" target-y="49.5"></path></g><g node-id="529"><path d="M 73.70 49.70 L 75.30 51.00 L 76.20 52.20 L 76.50 53.60 L 76.20 54.90 L 75.30 56.20 L 73.70 57.40 L 71.70 58.30 L 69.40 58.90 L 64.60 58.90 L 62.30 58.30 L 60.30 57.40 L 58.60 56.20 L 57.70 54.90 L 57.50 53.60 L 57.70 52.20 L 58.60 50.90 L 60.20 49.70 L 62.20 48.80 L 66.90 48.00 L 71.70 48.80 L 73.70 49.70 Z M 61.10 57.00 L 62.80 57.80 L 67.00 58.40 L 71.10 57.70 L 72.90 57.00 L 74.30 55.80 L 75.10 54.70 L 75.30 53.60 L 75.10 52.40 L 74.30 51.30 L 72.80 50.10 L 71.10 49.40 L 66.90 48.70 L 62.80 49.40 L 61.00 50.10 L 59.60 51.30 L 58.80 52.40 L 58.60 53.60 L 58.90 54.70 L 59.60 55.80 L 61.10 57.00" fill="#6262aa" fill-rule="nonzero" group-id="5,21,49,53,59" node-id="376" stroke="none" target-height="10.900002" target-width="19" target-x="57.5" target-y="48"></path></g><path d="M 73.70 57.40 L 71.70 58.30 L 69.40 58.90 L 64.60 58.90 L 62.30 58.30 L 60.30 57.40 L 58.60 56.10 L 57.70 54.90 L 57.50 53.50 L 57.70 56.80 L 58.60 58.10 L 60.30 59.40 L 62.30 60.30 L 64.60 60.80 L 69.40 60.80 L 71.70 60.30 L 73.70 59.40 L 75.30 58.10 L 76.20 56.80 L 76.50 53.60 L 76.20 54.90 L 75.30 56.20 L 73.70 57.40 Z" fill="#3a3a77" fill-rule="nonzero" group-id="5,21,49,53,60" node-id="381" stroke="none" target-height="7.299999" target-width="19" target-x="57.5" target-y="53.5"></path></g></g><g node-id="520"><path d="M 58.70 57.10 L 59.20 57.10 L 59.80 57.70 L 60.10 58.60 L 59.80 59.10 L 58.30 60.00 L 58.50 59.50 L 58.30 58.70 L 57.70 58.00 L 57.10 58.00 L 58.70 57.10 Z" fill="#2a2a5e" fill-rule="nonzero" group-id="5,21,50" node-id="388" stroke="none" target-height="2.9000015" target-width="3" target-x="57.1" target-y="57.1"></path><g node-id="524"><g node-id="531"><path d="M 56.60 57.50 L 57.50 57.60 L 58.50 58.60 L 58.90 59.80 L 58.50 60.70 L 48.90 66.20 L 49.30 65.40 L 48.90 64.10 L 48.00 63.10 L 47.00 63.00 L 56.60 57.50 Z" fill="#6262aa" fill-rule="nonzero" group-id="5,21,50,54,61" node-id="394" stroke="none" target-height="8.699997" target-width="11.900002" target-x="47" target-y="57.5"></path><g node-id="534"><path d="M 48.00 63.10 L 47.00 63.00 L 46.70 63.90 L 47.50 65.70 L 48.50 66.30 L 49.20 66.00 L 49.30 65.40 L 48.90 64.10 L 48.00 63.10 Z" fill="#2a2a5e" fill-rule="nonzero" group-id="5,21,50,54,61,64" node-id="398" stroke="none" target-height="3.300003" target-width="2.5999985" target-x="46.7" target-y="63"></path></g></g></g></g></g><g node-id="492"><path d="M 57.40 61.30 L 56.20 61.50 L 56.10 61.20 L 56.80 60.80 L 56.40 60.70 L 54.60 61.60 L 54.60 62.70 L 56.90 62.30 L 57.50 62.00 L 57.70 61.30 L 57.40 61.30 Z" fill="#ecb4bf" fill-rule="nonzero" group-id="5,22" node-id="407" stroke="none" target-height="2" target-width="3.1000023" target-x="54.6" target-y="60.7"></path><g node-id="521"><g node-id="525"><g node-id="532"><g node-id="535"><g node-id="537"><path d="M 54.90 61.50 L 54.90 62.50 L 51.40 64.20 L 50.20 64.00 L 47.50 61.80 L 46.60 60.00 L 46.50 58.60 L 47.10 57.60 L 47.60 57.40 L 48.80 57.90 L 49.90 61.00 L 50.80 62.10 L 51.70 62.30 L 54.90 61.50 Z" fill="#3887e5" fill-rule="nonzero" group-id="5,22,51,55,62,65,67" node-id="419" stroke="none" target-height="6.7999954" target-width="8.400002" target-x="46.5" target-y="57.4"></path></g></g></g></g></g></g></g><g node-id="476"><g node-id="493"><path d="M 70.10 30.40 L 69.30 33.00 L 67.40 35.10 L 66.20 35.40 L 64.40 34.70 L 65.20 34.80 L 66.30 34.50 L 68.30 32.50 L 69.00 29.80 L 68.80 28.70 L 68.30 28.10 L 69.80 29.30 L 70.10 30.40 Z" fill="#a6c2ff" fill-rule="nonzero" group-id="6,23" node-id="432" stroke="none" target-height="7.300001" target-width="5.699997" target-x="64.4" target-y="28.1"></path><path d="M 67.40 40.50 L 65.20 38.80 L 63.20 36.50 L 62.40 35.10 L 62.10 33.80 L 62.40 31.80 L 63.30 29.70 L 64.70 27.80 L 66.30 26.50 L 68.50 25.90 L 70.20 26.70 L 68.50 26.60 L 67.30 27.10 L 65.70 28.40 L 64.40 30.20 L 63.40 32.30 L 63.10 34.40 L 63.40 35.70 L 65.20 38.40 L 67.40 40.50 Z" fill="#a6c2ff" fill-rule="nonzero" group-id="6,23" node-id="434" stroke="none" target-height="14.6" target-width="8.099998" target-x="62.1" target-y="25.9"></path></g><path d="M 67.30 27.10 L 68.60 26.60 L 70.30 26.80 L 71.40 28.20 L 71.60 29.50 L 70.90 32.30 L 67.40 40.50 L 64.20 37.10 L 63.40 35.70 L 63.10 34.40 L 63.40 32.30 L 64.40 30.20 L 65.70 28.40 L 67.30 27.10 Z M 67.40 35.10 L 69.30 33.00 L 70.10 30.40 L 69.80 29.30 L 69.30 28.60 L 68.40 28.50 L 67.30 28.80 L 65.40 30.90 L 64.60 33.50 L 64.90 34.60 L 65.40 35.30 L 66.20 35.40 L 67.40 35.10" fill="#1e72c6" fill-rule="nonzero" group-id="6,24" node-id="439" stroke="none" target-height="13.9" target-width="8.5" target-x="63.1" target-y="26.6"></path></g><g node-id="477"><g node-id="495"><path d="M 92.50 48.50 L 93.10 50.50 L 94.50 52.00 L 95.30 52.20 L 96.60 51.70 L 95.20 51.50 L 93.80 50.10 L 93.20 48.10 L 93.80 46.90 L 92.70 47.70 L 92.50 48.50 Z" fill="#a6c2ff" fill-rule="nonzero" group-id="7,25" node-id="447" stroke="none" target-height="5.299999" target-width="4.0999985" target-x="92.5" target-y="46.9"></path><path d="M 94.40 55.90 L 96.00 54.70 L 97.50 53.00 L 98.30 51.00 L 98.00 49.50 L 96.40 46.70 L 95.20 45.70 L 93.90 45.30 L 92.40 45.90 L 93.30 45.70 L 94.50 46.20 L 95.60 47.10 L 97.30 50.00 L 97.50 51.50 L 97.30 52.40 L 96.80 53.40 L 94.40 55.90 Z" fill="#a6c2ff" fill-rule="nonzero" group-id="7,25" node-id="449" stroke="none" target-height="10.600002" target-width="5.9000015" target-x="92.4" target-y="45.3"></path></g><path d="M 97.50 51.50 L 96.80 53.40 L 94.40 55.90 L 92.10 50.80 L 91.40 47.90 L 91.70 46.60 L 92.30 45.90 L 93.20 45.70 L 94.50 46.20 L 95.60 47.10 L 96.60 48.40 L 97.30 50.00 L 97.50 51.50 Z M 94.50 52.00 L 95.80 52.10 L 96.40 50.80 L 96.30 49.90 L 95.20 48.00 L 93.70 47.20 L 92.70 47.70 L 92.50 48.50 L 93.10 50.50 L 94.50 52.00" fill="#1e72c6" fill-rule="nonzero" group-id="7,26" node-id="454" stroke="none" target-height="10.200001" target-width="6.0999985" target-x="91.4" target-y="45.7"></path></g><g node-id="478"><g node-id="497"><path d="M 67.00 48.00 L 67.60 49.90 L 68.90 51.30 L 69.70 51.60 L 71.00 51.00 L 69.70 50.90 L 68.30 49.40 L 67.70 47.50 L 68.30 46.30 L 67.20 47.10 L 67.00 48.00 Z" fill="#a6c2ff" fill-rule="nonzero" group-id="8,27" node-id="462" stroke="none" target-height="5.299999" target-width="4" target-x="67" target-y="46.3"></path><path d="M 68.90 55.20 L 70.50 54.00 L 71.90 52.40 L 72.70 50.40 L 72.50 48.90 L 70.80 46.10 L 69.70 45.20 L 68.40 44.70 L 66.90 45.30 L 67.80 45.20 L 68.90 45.60 L 70.10 46.50 L 71.80 49.40 L 72.00 50.80 L 71.80 51.80 L 71.20 52.80 L 68.90 55.20 Z" fill="#a6c2ff" fill-rule="nonzero" group-id="8,27" node-id="464" stroke="none" target-height="10.5" target-width="5.7999954" target-x="66.9" target-y="44.7"></path></g><path d="M 72.00 50.80 L 71.20 52.80 L 68.90 55.20 L 66.60 50.20 L 65.90 47.30 L 66.20 46.00 L 66.80 45.40 L 67.70 45.20 L 68.90 45.60 L 71.10 47.80 L 72.00 50.80 Z M 68.90 51.30 L 70.30 51.50 L 70.90 50.20 L 70.70 49.30 L 69.70 47.40 L 68.10 46.60 L 67.20 47.10 L 67.00 48.00 L 67.60 49.90 L 68.90 51.30" fill="#1e72c6" fill-rule="nonzero" group-id="8,28" node-id="469" stroke="none" target-height="10" target-width="6.0999985" target-x="65.9" target-y="45.2"></path></g></svg>