<?xml version="1.0" standalone="no"?><!DOCTYPE svg PUBLIC "-//W3C//DTD SVG 1.1//EN" "http://www.w3.org/Graphics/SVG/1.1/DTD/svg11.dtd"><svg height="126" node-id="1" sillyvg="true" template-height="126" template-width="126" version="1.1" viewBox="0 0 126 126" width="126" xmlns="http://www.w3.org/2000/svg" xmlns:xlink="http://www.w3.org/1999/xlink"><defs node-id="228"></defs><g node-id="793"><path d="M 105.80 73.70 L 102.70 74.40 L 97.20 76.60 L 91.80 80.00 L 89.30 82.90 L 88.10 86.00 L 86.00 89.10 L 83.70 91.20 L 81.10 93.10 L 78.30 94.60 L 73.80 95.90 L 72.30 96.00 L 68.60 95.20 L 66.00 95.00 L 61.70 95.50 L 59.90 95.80 L 55.00 98.20 L 1.00 67.00 L 68.40 27.80 L 120.80 58.00 L 122.30 59.10 L 123.60 60.50 L 124.50 62.10 L 125.00 64.10 L 124.90 65.70 L 124.20 67.10 L 121.80 69.50 L 117.20 71.60 L 114.10 72.50 L 108.60 73.50 L 105.80 73.70 Z" fill="#f3f6fd" fill-rule="nonzero" group-id="1" node-id="234" stroke="none" target-height="70.399994" target-width="124" target-x="1" target-y="27.8"></path><path d="M 88.30 52.90 L 88.30 54.00 L 80.70 60.80 L 73.00 62.70 L 65.30 69.80 L 57.50 71.70 L 34.10 58.10 L 34.10 57.10 L 41.80 55.30 L 49.50 48.20 L 57.30 46.30 L 64.90 39.30 L 86.90 52.10 Z" fill="#e1e9f4" fill-rule="nonzero" group-id="1" node-id="236" stroke="none" target-height="32.399998" target-width="54.200005" target-x="34.1" target-y="39.3"></path><g node-id="795"><path d="M 76.20 91.80 L 75.90 89.10 L 77.10 84.30 L 77.80 77.90 L 75.20 77.80 L 70.50 79.20 L 70.50 79.60 L 73.30 79.90 L 72.20 85.80 L 69.60 91.30 L 68.90 95.20 L 72.70 96.00 L 74.90 95.70 L 76.20 93.00 L 76.20 91.80 Z" fill="#e1e9f4" fill-rule="nonzero" group-id="1,3" node-id="240" stroke="none" target-height="18.199997" target-width="8.900002" target-x="68.9" target-y="77.8"></path></g><path d="M 120.40 57.80 L 82.00 79.80 L 72.80 74.50 L 111.20 52.50 L 110.70 52.20 L 72.30 74.20 L 43.60 57.70 L 82.00 35.60 L 81.50 35.30 L 43.10 57.30 L 33.90 52.00 L 72.30 30.00 L 71.70 29.70 L 4.00 68.80 L 4.60 69.10 L 33.50 52.30 L 42.70 57.60 L 13.80 74.40 L 14.30 74.70 L 43.20 57.90 L 52.50 63.30 L 23.60 80.00 L 24.00 80.30 L 52.90 63.50 L 62.20 68.90 L 33.30 85.70 L 33.70 85.90 L 62.60 69.10 L 71.90 74.40 L 43.00 91.20 L 43.50 91.50 L 72.40 74.80 L 81.60 80.10 L 52.70 96.90 L 53.30 97.20 L 121.00 58.10 Z" fill="#fdfeff" fill-rule="nonzero" group-id="1" node-id="243" stroke="none" target-height="67.5" target-width="117" target-x="4" target-y="29.7"></path></g><g node-id="794"><g node-id="796"><g node-id="805"><g node-id="829"><g node-id="852"><g node-id="859"><path d="M 89.00 46.90 L 89.00 48.00 L 81.50 54.80 L 73.70 56.70 L 66.00 63.80 L 58.20 65.70 L 34.80 52.10 L 34.80 51.20 L 42.50 49.30 L 50.30 42.20 L 58.00 40.40 L 65.70 33.30 Z" fill="#83a1cc" fill-rule="nonzero" group-id="2,4,13,37,60,67" node-id="258" stroke="none" target-height="32.399998" target-width="54.2" target-x="34.8" target-y="33.3"></path></g></g></g><path d="M 65.70 33.30 L 58.00 40.40 L 50.30 42.20 L 42.50 49.30 L 34.80 51.20 L 58.20 64.70 L 65.90 62.90 L 73.60 55.80 L 81.30 53.90 L 89.00 46.90 Z" fill="#dee7f8" fill-rule="nonzero" group-id="2,4,13" node-id="263" stroke="none" target-height="31.399998" target-width="54.2" target-x="34.8" target-y="33.3"></path><g node-id="830"><g node-id="853"><g node-id="860"><g node-id="864"><path d="M 58.20 65.70 L 34.80 52.10 L 34.80 51.20 L 58.20 64.70 Z" fill="#9eb5df" fill-rule="nonzero" group-id="2,4,13,38,61,68,72" node-id="273" stroke="none" target-height="14.499996" target-width="23.400002" target-x="34.8" target-y="51.2"></path></g><path d="M 73.60 55.80 L 81.30 53.90 L 89.00 46.90 L 89.00 48.00 L 81.50 54.80 L 73.70 56.70 L 66.00 63.80 L 58.20 65.70 L 58.20 64.70 L 65.90 62.90 Z" fill="#83a1cc" fill-rule="nonzero" group-id="2,4,13,38,61,68,73" node-id="278" stroke="none" target-height="18.799995" target-width="30.8" target-x="58.2" target-y="46.9"></path></g></g><g node-id="854"><path d="M 86.80 45.60 L 84.90 47.20 L 82.90 46.70 L 84.90 44.50 Z" fill="#b6cbea" fill-rule="nonzero" group-id="2,4,13,38,62" node-id="285" stroke="none" target-height="2.7000008" target-width="3.9000015" target-x="82.9" target-y="44.5"></path><path d="M 89.00 46.90 L 87.80 48.00 L 86.20 47.50 L 87.70 46.10 Z" fill="#b6cbea" fill-rule="nonzero" group-id="2,4,13,38,62" node-id="287" stroke="none" target-height="1.9000015" target-width="2.800003" target-x="86.2" target-y="46.1"></path></g><g node-id="855"><g node-id="861"><path d="M 67.00 37.00 L 65.60 38.10 L 62.60 36.10 L 64.00 35.20 Z" fill="#b6cbea" fill-rule="nonzero" group-id="2,4,13,38,63,69" node-id="294" stroke="none" target-height="2.8999977" target-width="4.4000015" target-x="62.6" target-y="35.2"></path></g><g node-id="862"><g node-id="866"><path d="M 67.50 34.40 L 65.80 35.50 L 64.30 34.60 L 65.70 33.30 Z" fill="#b6cbea" fill-rule="nonzero" group-id="2,4,13,38,63,70,74" node-id="301" stroke="none" target-height="2.2000008" target-width="3.199997" target-x="64.3" target-y="33.3"></path></g><g node-id="867"><path d="M 69.40 35.50 L 67.60 36.70 L 66.30 35.80 L 67.90 34.60 Z" fill="#b6cbea" fill-rule="nonzero" group-id="2,4,13,38,63,70,75" node-id="306" stroke="none" target-height="2.1000023" target-width="3.0999985" target-x="66.3" target-y="34.6"></path></g><g node-id="868"><path d="M 71.30 38.70 L 70.70 40.00 L 66.60 38.60 L 67.50 37.50 L 69.00 36.30 L 70.60 37.20 Z" fill="#b6cbea" fill-rule="nonzero" group-id="2,4,13,38,63,70,76" node-id="311" stroke="none" target-height="3.7000008" target-width="4.7000046" target-x="66.6" target-y="36.3"></path></g><g node-id="869"><path d="M 66.10 40.30 L 64.30 41.10 L 63.40 40.80 L 64.50 39.80 L 66.10 40.30 Z" fill="#b6cbea" fill-rule="nonzero" group-id="2,4,13,38,63,70,77" node-id="316" stroke="none" target-height="1.2999992" target-width="2.699997" target-x="63.4" target-y="39.8"></path></g><g node-id="870"><path d="M 68.20 40.90 L 66.90 41.80 L 65.10 41.20 L 65.80 40.70 L 66.40 40.30 L 68.20 40.90 Z" fill="#b6cbea" fill-rule="nonzero" group-id="2,4,13,38,63,70,78" node-id="321" stroke="none" target-height="1.5" target-width="3.0999985" target-x="65.1" target-y="40.3"></path></g><g node-id="871"><path d="M 71.50 41.80 L 70.20 42.80 L 67.60 42.10 L 68.90 41.10 Z" fill="#b6cbea" fill-rule="nonzero" group-id="2,4,13,38,63,70,79" node-id="326" stroke="none" target-height="1.7000008" target-width="3.9000015" target-x="67.6" target-y="41.1"></path></g><g node-id="872"><path d="M 74.10 43.50 L 73.30 44.80 L 70.90 43.90 L 71.90 42.80 Z" fill="#b6cbea" fill-rule="nonzero" group-id="2,4,13,38,63,70,80" node-id="331" stroke="none" target-height="2" target-width="3.199997" target-x="70.9" target-y="42.8"></path></g><g node-id="873"><path d="M 69.70 43.10 L 68.40 45.00 L 63.80 43.70 L 63.90 42.50 L 64.50 41.70 L 69.70 43.10 Z" fill="#b6cbea" fill-rule="nonzero" group-id="2,4,13,38,63,70,81" node-id="336" stroke="none" target-height="3.2999992" target-width="5.8999977" target-x="63.8" target-y="41.7"></path></g><g node-id="874"><path d="M 64.50 44.60 L 62.70 45.90 L 60.80 45.30 L 62.60 44.10 Z" fill="#b6cbea" fill-rule="nonzero" group-id="2,4,13,38,63,70,82" node-id="341" stroke="none" target-height="1.800003" target-width="3.7000008" target-x="60.8" target-y="44.1"></path></g><g node-id="875"><path d="M 73.10 45.10 L 72.30 46.30 L 69.20 45.20 L 70.20 44.20 Z" fill="#b6cbea" fill-rule="nonzero" group-id="2,4,13,38,63,70,83" node-id="346" stroke="none" target-height="2.0999985" target-width="3.9000015" target-x="69.2" target-y="44.2"></path></g><g node-id="876"><path d="M 66.90 45.30 L 65.20 46.60 L 63.70 46.00 L 65.10 44.80 Z" fill="#b6cbea" fill-rule="nonzero" group-id="2,4,13,38,63,70,84" node-id="351" stroke="none" target-height="1.7999992" target-width="3.2000008" target-x="63.7" target-y="44.8"></path></g><g node-id="877"><path d="M 86.80 45.60 L 84.90 47.20 L 82.90 46.70 L 84.90 44.50 Z" fill="#b6cbea" fill-rule="nonzero" group-id="2,4,13,38,63,70,85" node-id="356" stroke="none" target-height="2.7000008" target-width="3.9000015" target-x="82.9" target-y="44.5"></path></g><g node-id="878"><path d="M 76.50 44.50 L 74.60 47.30 L 72.60 46.60 L 74.50 43.80 Z" fill="#b6cbea" fill-rule="nonzero" group-id="2,4,13,38,63,70,86" node-id="361" stroke="none" target-height="3.5" target-width="3.9000015" target-x="72.6" target-y="43.8"></path></g><g node-id="879"><path d="M 57.80 47.10 L 58.80 48.20 L 56.60 49.20 L 55.70 48.10 Z" fill="#b6cbea" fill-rule="nonzero" group-id="2,4,13,38,63,70,87" node-id="366" stroke="none" target-height="2.1000023" target-width="3.0999985" target-x="55.7" target-y="47.1"></path></g><g node-id="880"><path d="M 60.50 45.60 L 58.30 46.90 L 60.90 49.80 L 63.50 48.50 L 65.50 47.10 Z" fill="#b6cbea" fill-rule="nonzero" group-id="2,4,13,38,63,70,88" node-id="371" stroke="none" target-height="4.200001" target-width="7.200001" target-x="58.3" target-y="45.6"></path></g><g node-id="881"><path d="M 50.10 48.60 L 50.50 49.10 L 49.40 49.70 L 49.20 50.10 L 48.30 49.20 L 50.10 48.60 Z" fill="#b6cbea" fill-rule="nonzero" group-id="2,4,13,38,63,70,89" node-id="376" stroke="none" target-height="1.5" target-width="2.2000008" target-x="48.3" target-y="48.6"></path></g><g node-id="882"><path d="M 69.80 46.90 L 69.00 47.40 L 71.10 48.80 L 71.80 48.20 L 72.80 48.90 L 71.10 50.20 L 66.80 47.60 L 68.70 46.30 Z" fill="#b6cbea" fill-rule="nonzero" group-id="2,4,13,38,63,70,90" node-id="381" stroke="none" target-height="3.9000015" target-width="6" target-x="66.8" target-y="46.3"></path></g><g node-id="883"><path d="M 86.70 49.10 L 81.10 45.70 L 81.00 44.80 L 82.00 43.80 L 81.70 43.40 L 77.20 41.40 L 74.60 38.50 L 70.70 36.20 L 75.90 41.80 L 80.00 43.80 L 79.50 44.40 L 79.30 45.30 L 79.60 46.00 L 80.50 46.80 L 85.80 49.80 L 86.70 49.10 Z" fill="#6b9ef9" fill-rule="nonzero" group-id="2,4,13,38,63,70,91" node-id="386" stroke="none" target-height="13.599998" target-width="16" target-x="70.7" target-y="36.2"></path></g><g node-id="884"><path d="M 59.00 48.70 L 60.10 49.60 L 57.90 50.60 L 56.90 49.50 Z" fill="#b6cbea" fill-rule="nonzero" group-id="2,4,13,38,63,70,92" node-id="391" stroke="none" target-height="1.8999977" target-width="3.199997" target-x="56.9" target-y="48.7"></path></g><g node-id="885"><path d="M 45.30 49.80 L 43.60 50.60 L 41.50 49.60 L 42.50 49.30 L 43.10 48.70 Z" fill="#b6cbea" fill-rule="nonzero" group-id="2,4,13,38,63,70,93" node-id="396" stroke="none" target-height="1.8999977" target-width="3.7999992" target-x="41.5" target-y="48.7"></path></g><g node-id="886"><path d="M 41.00 50.00 L 38.50 51.10 L 37.40 50.50 L 40.50 49.80 Z" fill="#b6cbea" fill-rule="nonzero" group-id="2,4,13,38,63,70,94" node-id="401" stroke="none" target-height="1.2999992" target-width="3.5999985" target-x="37.4" target-y="49.8"></path></g><g node-id="887"><path d="M 50.80 49.50 L 51.80 50.60 L 50.20 51.30 L 49.30 50.30 L 50.80 49.50 Z" fill="#b6cbea" fill-rule="nonzero" group-id="2,4,13,38,63,70,95" node-id="406" stroke="none" target-height="1.7999992" target-width="2.5" target-x="49.3" target-y="49.5"></path></g><g node-id="888"><path d="M 38.10 51.40 L 36.90 52.00 L 35.10 51.10 L 36.70 50.70 Z" fill="#b6cbea" fill-rule="nonzero" group-id="2,4,13,38,63,70,96" node-id="411" stroke="none" target-height="1.2999992" target-width="3" target-x="35.1" target-y="50.7"></path></g><g node-id="889"><path d="M 55.10 48.80 L 57.30 51.40 L 54.00 52.20 L 51.60 49.20 L 55.10 48.80 Z" fill="#b6cbea" fill-rule="nonzero" group-id="2,4,13,38,63,70,97" node-id="416" stroke="none" target-height="3.4000015" target-width="5.700001" target-x="51.6" target-y="48.8"></path></g><g node-id="890"><path d="M 43.00 51.00 L 40.50 52.20 L 39.10 51.40 L 41.40 50.30 Z" fill="#b6cbea" fill-rule="nonzero" group-id="2,4,13,38,63,70,98" node-id="421" stroke="none" target-height="1.9000015" target-width="3.9000015" target-x="39.1" target-y="50.3"></path></g><g node-id="891"><path d="M 66.30 48.00 L 70.40 50.60 L 68.90 51.70 L 67.00 52.60 L 62.40 50.20 L 64.40 49.10 Z" fill="#b6cbea" fill-rule="nonzero" group-id="2,4,13,38,63,70,99" node-id="426" stroke="none" target-height="4.5999985" target-width="8" target-x="62.4" target-y="48"></path></g><g node-id="892"><path d="M 45.00 52.20 L 43.80 52.80 L 42.40 51.80 L 43.60 51.40 Z" fill="#b6cbea" fill-rule="nonzero" group-id="2,4,13,38,63,70,100" node-id="431" stroke="none" target-height="1.3999977" target-width="2.5999985" target-x="42.4" target-y="51.4"></path></g><g node-id="893"><path d="M 46.30 50.40 L 48.70 52.80 L 46.40 53.10 L 44.30 50.90 Z" fill="#b6cbea" fill-rule="nonzero" group-id="2,4,13,38,63,70,101" node-id="436" stroke="none" target-height="2.699997" target-width="4.4000015" target-x="44.3" target-y="50.4"></path></g><g node-id="894"><path d="M 52.30 51.00 L 53.50 52.50 L 51.90 53.30 L 50.60 51.80 Z" fill="#b6cbea" fill-rule="nonzero" group-id="2,4,13,38,63,70,102" node-id="441" stroke="none" target-height="2.2999992" target-width="2.9000015" target-x="50.6" target-y="51"></path></g><g node-id="895"><path d="M 66.30 53.00 L 64.10 54.00 L 62.80 53.40 L 63.80 53.00 L 61.50 51.80 L 60.50 52.20 L 59.50 51.60 L 61.90 50.50 Z" fill="#b6cbea" fill-rule="nonzero" group-id="2,4,13,38,63,70,103" node-id="446" stroke="none" target-height="3.5" target-width="6.800003" target-x="59.5" target-y="50.5"></path></g><g node-id="896"><path d="M 57.70 51.90 L 59.60 53.70 L 57.50 54.20 L 55.90 52.50 Z" fill="#b6cbea" fill-rule="nonzero" group-id="2,4,13,38,63,70,104" node-id="451" stroke="none" target-height="2.2999992" target-width="3.699997" target-x="55.9" target-y="51.9"></path></g><g node-id="897"><path d="M 55.30 52.90 L 56.90 54.30 L 54.80 54.70 L 53.40 53.50 Z" fill="#b6cbea" fill-rule="nonzero" group-id="2,4,13,38,63,70,105" node-id="456" stroke="none" target-height="1.7999992" target-width="3.5" target-x="53.4" target-y="52.9"></path></g><g node-id="898"><path d="M 60.00 53.90 L 61.20 55.00 L 56.50 56.20 L 55.30 55.00 Z" fill="#b6cbea" fill-rule="nonzero" group-id="2,4,13,38,63,70,106" node-id="461" stroke="none" target-height="2.2999992" target-width="5.9000015" target-x="55.3" target-y="53.9"></path></g><g node-id="899"><path d="M 56.30 45.20 L 53.80 43.60 L 56.20 43.10 L 57.80 44.70 Z" fill="#b6cbea" fill-rule="nonzero" group-id="2,4,13,38,63,70,107" node-id="466" stroke="none" target-height="2.1000023" target-width="4" target-x="53.8" target-y="43.1"></path></g><g node-id="900"><path d="M 53.60 43.40 L 51.50 42.20 L 57.10 41.10 L 58.40 42.20 Z" fill="#b6cbea" fill-rule="nonzero" group-id="2,4,13,38,63,70,108" node-id="471" stroke="none" target-height="2.300003" target-width="6.9000015" target-x="51.5" target-y="41.1"></path></g><g node-id="901"><path d="M 50.90 57.30 L 47.70 58.60 L 39.90 54.10 L 41.20 54.00 Z" fill="#a6c2ff" fill-rule="nonzero" group-id="2,4,13,38,63,70,109" node-id="476" stroke="none" target-height="4.5999985" target-width="11" target-x="39.9" target-y="54"></path></g><g node-id="902"><path d="M 59.80 43.30 L 58.90 42.50 L 56.80 42.90 L 58.70 44.60 L 59.80 43.30 Z" fill="#b6cbea" fill-rule="nonzero" group-id="2,4,13,38,63,70,110" node-id="481" stroke="none" target-height="2.0999985" target-width="3" target-x="56.8" target-y="42.5"></path></g><g node-id="903"><path d="M 56.20 45.70 L 50.30 42.20 L 45.40 46.70 L 52.20 46.50 L 56.20 45.70 Z" fill="#a6c2ff" fill-rule="nonzero" group-id="2,4,13,38,63,70,111" node-id="486" stroke="none" target-height="4.5" target-width="10.799999" target-x="45.4" target-y="42.2"></path><g node-id="908"><path d="M 60.20 38.40 L 58.00 40.40 L 60.00 41.50 L 60.20 38.40 Z" fill="#a6c2ff" fill-rule="nonzero" group-id="2,4,13,38,63,70,111,116" node-id="490" stroke="none" target-height="3.0999985" target-width="2.2000008" target-x="58" target-y="38.4"></path><path d="M 80.10 47.60 L 79.40 47.30 L 77.90 47.40 L 75.00 50.20 L 81.30 53.90 L 85.10 50.50 L 80.10 47.60 Z" fill="#a6c2ff" fill-rule="nonzero" group-id="2,4,13,38,63,70,111,116" node-id="492" stroke="none" target-height="6.6000023" target-width="10.099998" target-x="75" target-y="47.3"></path></g><path d="M 70.00 53.70 L 61.90 56.70 L 61.20 57.40 L 61.80 58.20 L 66.90 61.20 L 69.00 60.00 L 73.60 55.80 L 70.00 53.70 Z" fill="#a6c2ff" fill-rule="nonzero" group-id="2,4,13,38,63,70,111" node-id="495" stroke="none" target-height="7.5" target-width="12.399998" target-x="61.2" target-y="53.7"></path></g><g node-id="904"><path d="M 66.80 62.00 L 65.90 62.90 L 63.00 60.50 L 59.90 59.10 L 57.90 58.70 L 55.30 59.30 L 54.60 59.20 L 51.10 56.60 L 41.40 53.60 L 38.70 53.40 L 36.80 52.30 L 41.90 52.70 L 51.90 55.80 L 55.30 58.20 L 57.90 57.80 L 61.70 58.70 L 64.10 59.80 L 66.80 62.00 Z" fill="#6b9ef9" fill-rule="nonzero" group-id="2,4,13,38,63,70,112" node-id="500" stroke="none" target-height="10.600002" target-width="30.000004" target-x="36.8" target-y="52.3"></path></g><path d="M 80.30 41.80 L 78.00 43.90 L 73.80 41.50 L 66.10 39.00 L 62.00 36.70 L 61.20 37.50 L 61.20 39.90 L 60.20 43.10 L 58.00 45.40 L 55.90 46.20 L 51.60 47.10 L 44.70 47.30 L 43.70 48.20 L 47.00 50.10 L 51.10 54.50 L 55.40 57.00 L 49.00 59.40 L 49.90 59.90 L 56.70 57.40 L 63.20 55.80 L 70.50 52.60 L 75.90 48.30 L 78.70 44.60 L 81.20 42.30 L 80.30 41.80 Z M 74.90 48.00 L 69.60 52.10 L 62.50 55.20 L 56.30 56.70 L 52.00 54.20 L 47.90 49.80 L 44.70 48.00 L 52.00 47.80 L 56.50 46.90 L 58.60 46.00 L 60.20 44.60 L 61.80 41.80 L 62.20 39.90 L 62.20 37.60 L 65.60 39.60 L 73.20 41.90 L 77.50 44.40 L 74.90 48.00 Z" fill="#83a1cc" fill-rule="nonzero" group-id="2,4,13,38,63,70" node-id="503" stroke="none" target-height="23.2" target-width="37.499996" target-x="43.7" target-y="36.7"></path><g node-id="905"><path d="M 60.30 59.80 L 61.20 61.00 L 55.60 63.20 L 54.50 61.60 Z" fill="#b6cbea" fill-rule="nonzero" group-id="2,4,13,38,63,70,113" node-id="507" stroke="none" target-height="3.4000015" target-width="6.700001" target-x="54.5" target-y="59.8"></path></g><g node-id="906"><path d="M 51.90 61.00 L 50.70 60.40 L 52.10 59.90 L 53.00 60.60 L 51.90 61.00 Z" fill="#b6cbea" fill-rule="nonzero" group-id="2,4,13,38,63,70,114" node-id="512" stroke="none" target-height="1.0999985" target-width="2.2999992" target-x="50.7" target-y="59.9"></path></g><path d="M 63.10 63.40 L 58.20 64.70 L 56.40 63.70 L 61.60 61.80 Z" fill="#b6cbea" fill-rule="nonzero" group-id="2,4,13,38,63,70,115" node-id="517" stroke="none" target-height="2.8999977" target-width="6.699997" target-x="56.4" target-y="61.8"></path></g><path d="M 89.00 46.90 L 87.80 48.00 L 86.20 47.50 L 87.70 46.10 Z" fill="#b6cbea" fill-rule="nonzero" group-id="2,4,13,38,63,71" node-id="523" stroke="none" target-height="1.9000015" target-width="2.800003" target-x="86.2" target-y="46.1"></path></g></g></g><g node-id="806"><path d="M 77.80 54.80 L 80.20 54.20 L 76.50 51.80 L 75.20 53.00 Z" fill="#b6cbea" fill-rule="nonzero" group-id="2,4,14" node-id="531" stroke="none" target-height="3" target-width="5" target-x="75.2" target-y="51.8"></path><path d="M 74.40 50.40 L 73.10 51.50 L 74.70 52.60 L 76.00 51.50 Z" fill="#b6cbea" fill-rule="nonzero" group-id="2,4,14" node-id="533" stroke="none" target-height="2.199997" target-width="2.9000015" target-x="73.1" target-y="50.4"></path><path d="M 74.80 55.50 L 77.10 54.90 L 75.90 54.20 L 74.60 55.40 Z" fill="#b6cbea" fill-rule="nonzero" group-id="2,4,14" node-id="535" stroke="none" target-height="1.2999992" target-width="2.5" target-x="74.6" target-y="54.2"></path><path d="M 72.70 52.00 L 70.90 52.90 L 74.10 55.00 L 75.40 53.80 Z" fill="#b6cbea" fill-rule="nonzero" group-id="2,4,14" node-id="537" stroke="none" target-height="3" target-width="4.5" target-x="70.9" target-y="52"></path></g></g><g node-id="797"><g node-id="807"><path d="M 60.80 47.00 L 60.50 47.30 L 60.80 47.70 L 62.10 47.70 L 62.40 47.30 L 62.10 47.00 L 60.80 47.00 Z" fill="#4c4a8b" fill-rule="nonzero" group-id="2,5,15" node-id="545" stroke="none" target-height="0.70000076" target-width="1.9000015" target-x="60.5" target-y="47"></path></g><g node-id="808"><g node-id="831"><path d="M 61.40 48.30 L 60.40 48.00 L 59.90 47.30 L 60.40 46.70 L 61.50 46.40 L 62.50 46.70 L 63.00 47.30 L 62.50 48.00 L 61.40 48.30 Z M 60.40 46.80 L 60.00 47.30 L 60.40 47.90 L 61.40 48.20 L 62.50 47.90 L 62.90 47.30 L 62.50 46.80 L 61.50 46.50 L 60.40 46.80 Z" fill="#4c4a8b" fill-rule="nonzero" group-id="2,5,16,39" node-id="552" stroke="none" target-height="1.8999977" target-width="3.0999985" target-x="59.9" target-y="46.4"></path></g></g><g node-id="809"><path d="M 60.80 42.10 L 61.20 41.80 L 60.90 42.40 L 61.20 43.40 L 61.80 44.10 L 62.50 44.10 L 61.80 44.40 L 60.80 43.60 L 60.50 42.70 L 60.80 42.10 Z" fill="#a6c2ff" fill-rule="nonzero" group-id="2,5,17" node-id="558" stroke="none" target-height="2.6000023" target-width="2" target-x="60.5" target-y="41.8"></path><path d="M 60.20 41.10 L 61.10 40.70 L 61.80 41.00 L 62.50 41.50 L 63.40 43.20 L 63.40 44.80 L 61.40 47.30 L 62.70 45.40 L 63.00 44.20 L 62.30 42.20 L 61.00 41.20 L 60.20 41.10 Z" fill="#a6c2ff" fill-rule="nonzero" group-id="2,5,17" node-id="560" stroke="none" target-height="6.5999985" target-width="3.2000008" target-x="60.2" target-y="40.7"></path><g node-id="832"><path d="M 63.20 44.20 L 62.80 45.50 L 61.40 47.30 L 59.70 42.20 L 60.20 41.10 L 61.50 41.20 L 62.70 42.50 L 63.20 44.20 Z M 61.40 44.60 L 62.30 44.70 L 62.70 43.90 L 61.90 42.20 L 61.00 41.60 L 60.30 42.00 L 60.20 42.50 L 60.60 43.70 L 61.40 44.60" fill="#3887e5" fill-rule="nonzero" group-id="2,5,17,40" node-id="564" stroke="none" target-height="6.200001" target-width="3.5" target-x="59.7" target-y="41.1"></path></g><path d="M 62.70 43.90 L 62.40 44.80 L 61.40 44.70 L 60.30 43.10 L 60.30 41.90 L 60.90 41.60 L 61.50 41.70 L 62.40 42.70 L 62.70 43.90 Z M 61.40 44.20 L 62.10 44.30 L 62.40 43.70 L 62.10 42.80 L 61.50 42.20 L 60.80 42.10 L 60.50 42.70 L 60.80 43.60 L 61.40 44.20" fill="#1e72c6" fill-rule="nonzero" group-id="2,5,17,41" node-id="569" stroke="none" target-height="3.2000008" target-width="2.4000015" target-x="60.3" target-y="41.6"></path></g></g><g node-id="798"><g node-id="810"><path d="M 80.00 50.60 L 79.80 50.90 L 80.00 51.20 L 80.50 51.30 L 81.20 50.90 L 81.00 50.60 L 80.00 50.60 Z" fill="#4c4a8b" fill-rule="nonzero" group-id="2,6,18" node-id="578" stroke="none" target-height="0.70000076" target-width="1.3999939" target-x="79.8" target-y="50.6"></path></g><g node-id="811"><g node-id="834"><path d="M 80.50 51.60 L 79.70 51.40 L 79.30 50.90 L 79.70 50.40 L 80.50 50.20 L 81.30 50.40 L 81.70 50.90 L 81.30 51.40 L 80.50 51.60 Z M 79.70 50.50 L 79.40 50.90 L 79.70 51.30 L 81.30 51.30 L 81.60 50.90 L 81.30 50.50 L 79.70 50.50 Z" fill="#4c4a8b" fill-rule="nonzero" group-id="2,6,19,42" node-id="585" stroke="none" target-height="1.3999977" target-width="2.399994" target-x="79.3" target-y="50.2"></path></g></g><g node-id="812"><path d="M 80.00 46.80 L 80.30 46.70 L 80.10 47.10 L 80.30 47.80 L 80.80 48.40 L 81.30 48.40 L 80.50 48.50 L 80.00 48.00 L 79.80 47.30 L 80.00 46.80 Z" fill="#a6c2ff" fill-rule="nonzero" group-id="2,6,20" node-id="591" stroke="none" target-height="1.7999992" target-width="1.5" target-x="79.8" target-y="46.7"></path><path d="M 79.50 46.10 L 80.20 45.80 L 80.80 46.00 L 82.00 47.70 L 82.00 48.90 L 80.50 50.90 L 81.70 48.50 L 81.30 47.20 L 80.70 46.40 L 79.50 46.10 Z" fill="#a6c2ff" fill-rule="nonzero" group-id="2,6,20" node-id="593" stroke="none" target-height="5.1000023" target-width="2.5" target-x="79.5" target-y="45.8"></path><g node-id="835"><path d="M 81.90 48.50 L 80.50 50.90 L 79.20 46.90 L 79.60 46.10 L 80.50 46.10 L 81.50 47.20 L 81.90 48.50 Z M 80.50 48.80 L 81.30 48.70 L 81.20 47.30 L 80.50 46.60 L 79.70 46.70 L 79.80 48.10 L 80.50 48.80" fill="#3887e5" fill-rule="nonzero" group-id="2,6,20,43" node-id="597" stroke="none" target-height="4.800003" target-width="2.7000046" target-x="79.2" target-y="46.1"></path></g><path d="M 81.50 48.30 L 81.00 49.00 L 80.50 48.80 L 79.80 48.10 L 79.50 47.10 L 80.00 46.40 L 80.50 46.60 L 81.20 47.30 L 81.50 48.30 Z M 80.50 48.50 L 81.00 48.60 L 81.20 48.10 L 81.00 47.40 L 80.50 46.90 L 80.00 46.80 L 79.80 47.30 L 80.00 48.00 L 80.50 48.50" fill="#1e72c6" fill-rule="nonzero" group-id="2,6,20,44" node-id="602" stroke="none" target-height="2.5999985" target-width="2" target-x="79.5" target-y="46.4"></path></g></g><g node-id="799"><path d="M 68.50 49.10 L 68.20 48.70 L 69.40 49.20 L 69.30 48.60 L 71.10 50.90 L 73.20 52.20 L 73.80 52.10 L 74.90 51.20 L 76.30 52.00 L 76.20 53.20 L 73.70 53.90 L 72.60 53.90 L 71.70 53.20 L 70.00 50.80 L 68.20 49.80 L 68.60 49.80 L 68.10 49.10 L 68.50 49.10 Z" fill="#ecb4bf" fill-rule="nonzero" group-id="2,7" node-id="609" stroke="none" target-height="5.300003" target-width="8.200005" target-x="68.1" target-y="48.6"></path></g><g node-id="800"><g node-id="813"><path d="M 68.40 57.10 L 68.80 57.60 L 68.40 58.10 L 67.60 58.30 L 66.80 58.10 L 66.50 57.60 L 66.80 57.10 L 68.40 57.10 Z" fill="#4c4a8b" fill-rule="nonzero" group-id="2,8,21" node-id="616" stroke="none" target-height="1.2000008" target-width="2.300003" target-x="66.5" target-y="57.1"></path></g><g node-id="814"><g node-id="837"><path d="M 66.30 58.40 L 65.80 58.00 L 65.80 57.20 L 66.90 56.50 L 68.40 56.50 L 69.40 57.20 L 69.40 58.00 L 68.40 58.70 L 66.30 58.40 Z M 68.90 56.90 L 66.90 56.70 L 65.90 57.20 L 65.90 58.00 L 66.90 58.60 L 68.30 58.60 L 69.30 58.00 L 69.30 57.20 L 68.90 56.90 Z" fill="#4c4a8b" fill-rule="nonzero" group-id="2,8,22,45" node-id="623" stroke="none" target-height="2.2000008" target-width="3.5999985" target-x="65.8" target-y="56.5"></path></g></g><g node-id="815"><path d="M 68.70 49.40 L 68.10 49.10 L 68.50 50.00 L 68.40 50.70 L 67.70 52.00 L 67.10 52.50 L 66.10 52.60 L 67.10 53.00 L 68.20 52.40 L 69.00 51.00 L 69.10 50.30 L 68.70 49.40 Z" fill="#a6c2ff" fill-rule="nonzero" group-id="2,8,23" node-id="629" stroke="none" target-height="3.9000015" target-width="3" target-x="66.1" target-y="49.1"></path><path d="M 69.60 47.90 L 68.20 47.40 L 67.10 47.70 L 66.10 48.60 L 64.60 51.10 L 64.40 52.40 L 64.70 53.70 L 66.20 56.10 L 67.70 57.60 L 65.70 54.60 L 65.20 52.80 L 65.60 50.90 L 66.40 49.60 L 68.30 48.10 L 69.60 47.90 Z" fill="#a6c2ff" fill-rule="nonzero" group-id="2,8,23" node-id="631" stroke="none" target-height="10.199997" target-width="5.199997" target-x="64.4" target-y="47.4"></path><g node-id="838"><path d="M 67.70 48.00 L 68.80 47.70 L 69.60 47.90 L 70.20 48.50 L 70.40 49.60 L 70.00 51.50 L 67.70 57.60 L 65.60 54.80 L 65.00 52.70 L 65.70 50.10 L 67.70 48.00 Z M 67.70 53.30 L 69.00 51.90 L 69.60 50.10 L 69.00 48.90 L 67.70 49.00 L 66.30 50.40 L 65.80 52.30 L 66.30 53.50 L 67.70 53.30" fill="#3887e5" fill-rule="nonzero" group-id="2,8,23,46" node-id="635" stroke="none" target-height="9.899998" target-width="5.4000015" target-x="65" target-y="47.7"></path></g><path d="M 67.70 48.90 L 69.10 48.80 L 69.70 50.00 L 69.10 52.00 L 67.70 53.50 L 66.30 53.60 L 65.70 52.30 L 66.30 50.40 L 67.70 48.90 Z M 67.70 52.80 L 68.70 51.70 L 69.10 50.40 L 68.70 49.50 L 67.70 49.60 L 66.70 50.60 L 66.30 52.00 L 66.70 52.90 L 67.70 52.80" fill="#1e72c6" fill-rule="nonzero" group-id="2,8,23,47" node-id="640" stroke="none" target-height="4.799999" target-width="4" target-x="65.7" target-y="48.8"></path></g></g><g node-id="801"><g node-id="816"><path d="M 51.40 44.70 L 51.60 45.00 L 51.40 45.20 L 50.90 45.40 L 50.20 45.00 L 50.90 44.50 L 51.40 44.70 Z" fill="#4c4a8b" fill-rule="nonzero" group-id="2,9,24" node-id="649" stroke="none" target-height="0.9000015" target-width="1.3999977" target-x="50.2" target-y="44.5"></path></g><g node-id="817"><g node-id="840"><path d="M 50.10 45.50 L 49.80 44.70 L 50.90 44.30 L 51.70 44.50 L 52.00 45.20 L 50.90 45.70 L 50.10 45.50 Z M 51.70 44.50 L 50.90 44.30 L 50.10 44.50 L 49.80 45.00 L 50.10 45.40 L 50.90 45.60 L 51.70 45.40 L 52.00 45.00 L 51.70 44.50 Z" fill="#4c4a8b" fill-rule="nonzero" group-id="2,9,25,48" node-id="656" stroke="none" target-height="1.4000015" target-width="2.2000008" target-x="49.8" target-y="44.3"></path></g></g><g node-id="818"><path d="M 51.40 40.90 L 51.10 40.70 L 51.30 41.20 L 51.10 41.90 L 50.60 42.40 L 50.10 42.50 L 50.90 42.60 L 51.40 42.10 L 51.60 41.30 L 51.40 40.90 Z" fill="#a6c2ff" fill-rule="nonzero" group-id="2,9,26" node-id="662" stroke="none" target-height="1.8999977" target-width="1.5" target-x="50.1" target-y="40.7"></path><path d="M 51.90 40.10 L 51.20 39.90 L 50.60 40.00 L 49.40 41.70 L 49.40 43.00 L 50.90 45.00 L 49.70 42.60 L 50.10 41.20 L 50.70 40.50 L 51.90 40.10 Z" fill="#a6c2ff" fill-rule="nonzero" group-id="2,9,26" node-id="664" stroke="none" target-height="5.0999985" target-width="2.5" target-x="49.4" target-y="39.9"></path><g node-id="841"><path d="M 50.90 40.20 L 51.90 40.10 L 52.30 41.00 L 50.90 45.00 L 49.60 42.50 L 50.00 41.20 L 50.90 40.20 Z M 50.90 42.80 L 51.60 42.10 L 51.80 41.20 L 51.40 40.60 L 50.90 40.70 L 50.20 41.40 L 50.00 42.30 L 50.40 43.00 L 50.90 42.80" fill="#3887e5" fill-rule="nonzero" group-id="2,9,26,49" node-id="668" stroke="none" target-height="4.9000015" target-width="2.7000008" target-x="49.6" target-y="40.1"></path></g><path d="M 50.90 40.60 L 51.40 40.50 L 51.90 41.20 L 51.60 42.20 L 50.90 42.90 L 50.40 43.00 L 49.90 42.30 L 50.20 41.40 L 50.90 40.60 Z M 50.90 42.60 L 51.60 41.40 L 51.40 40.90 L 50.90 41.00 L 50.20 42.20 L 50.40 42.60 L 50.90 42.60" fill="#1e72c6" fill-rule="nonzero" group-id="2,9,26,50" node-id="673" stroke="none" target-height="2.5" target-width="2" target-x="49.9" target-y="40.5"></path></g></g><g node-id="802"><g node-id="819"><path d="M 54.00 50.00 L 53.90 50.40 L 54.30 50.50 L 54.90 50.20 L 54.00 50.00 Z" fill="#4c4a8b" fill-rule="nonzero" group-id="2,10,27" node-id="682" stroke="none" target-height="0.5" target-width="1" target-x="53.9" target-y="50"></path></g><g node-id="820"><g node-id="843"><path d="M 54.30 50.80 L 53.40 50.20 L 54.30 49.70 L 55.20 50.20 L 54.30 50.80 Z M 53.70 49.90 L 53.50 50.20 L 53.70 50.60 L 54.90 50.60 L 55.20 50.20 L 54.90 49.90 L 53.70 49.90 Z" fill="#4c4a8b" fill-rule="nonzero" group-id="2,10,28,51" node-id="689" stroke="none" target-height="1.0999985" target-width="1.7999992" target-x="53.4" target-y="49.7"></path></g></g><g node-id="821"><path d="M 53.90 47.10 L 54.20 47.00 L 54.20 47.90 L 54.90 48.30 L 54.30 48.40 L 53.90 48.00 L 53.90 47.10 Z" fill="#a6c2ff" fill-rule="nonzero" group-id="2,10,29" node-id="695" stroke="none" target-height="1.4000015" target-width="1" target-x="53.9" target-y="47"></path><path d="M 53.60 46.60 L 54.50 46.50 L 55.30 47.30 L 55.60 48.30 L 55.20 49.20 L 54.30 50.20 L 55.20 48.40 L 54.90 47.40 L 53.60 46.60 Z" fill="#a6c2ff" fill-rule="nonzero" group-id="2,10,29" node-id="697" stroke="none" target-height="3.7000008" target-width="2" target-x="53.6" target-y="46.5"></path><g node-id="844"><path d="M 55.30 48.40 L 54.30 50.20 L 53.60 48.30 L 53.30 47.20 L 53.80 46.50 L 54.30 46.60 L 55.00 47.40 L 55.30 48.40 Z M 54.30 48.60 L 54.80 48.70 L 55.00 48.20 L 54.80 47.50 L 54.30 47.00 L 53.80 46.90 L 53.60 47.40 L 53.80 48.10 L 54.30 48.60" fill="#3887e5" fill-rule="nonzero" group-id="2,10,29,52" node-id="701" stroke="none" target-height="3.7000008" target-width="2" target-x="53.3" target-y="46.5"></path></g><path d="M 55.10 48.20 L 54.80 48.70 L 54.30 48.70 L 53.80 48.10 L 53.60 47.40 L 53.80 46.90 L 54.30 47.00 L 55.10 48.20 Z M 54.30 48.40 L 54.70 48.50 L 54.70 47.60 L 54.00 47.20 L 53.90 48.00 L 54.30 48.40" fill="#1e72c6" fill-rule="nonzero" group-id="2,10,29,53" node-id="706" stroke="none" target-height="1.7999992" target-width="1.5" target-x="53.6" target-y="46.9"></path></g></g><g node-id="803"><g node-id="822"><path d="M 68.90 37.90 L 68.90 38.30 L 69.30 38.40 L 69.80 38.10 L 68.90 37.90 Z" fill="#4c4a8b" fill-rule="nonzero" group-id="2,11,30" node-id="715" stroke="none" target-height="0.5" target-width="0.9000015" target-x="68.9" target-y="37.9"></path></g><g node-id="823"><g node-id="846"><path d="M 69.30 38.60 L 68.40 38.10 L 69.30 37.60 L 70.20 38.10 L 69.30 38.60 Z M 68.70 37.80 L 68.40 38.10 L 68.70 38.40 L 69.90 38.40 L 70.10 38.10 L 69.90 37.80 L 68.70 37.80 Z" fill="#4c4a8b" fill-rule="nonzero" group-id="2,11,31,54" node-id="722" stroke="none" target-height="1" target-width="1.7999954" target-x="68.4" target-y="37.6"></path></g></g><g node-id="824"><path d="M 68.90 35.00 L 69.10 34.90 L 69.10 35.80 L 69.90 36.20 L 69.30 36.30 L 68.90 35.90 L 68.90 35.00 Z" fill="#a6c2ff" fill-rule="nonzero" group-id="2,11,32" node-id="728" stroke="none" target-height="1.3999977" target-width="1" target-x="68.9" target-y="34.9"></path><path d="M 68.50 34.50 L 69.50 34.40 L 70.20 35.20 L 70.50 36.20 L 70.20 37.10 L 69.30 38.10 L 70.20 36.30 L 69.90 35.30 L 68.50 34.50 Z" fill="#a6c2ff" fill-rule="nonzero" group-id="2,11,32" node-id="730" stroke="none" target-height="3.699997" target-width="2" target-x="68.5" target-y="34.4"></path><g node-id="847"><path d="M 70.30 36.30 L 69.30 38.10 L 68.50 36.20 L 68.30 35.10 L 68.70 34.40 L 69.30 34.50 L 70.00 35.30 L 70.30 36.30 Z M 69.30 36.50 L 69.80 36.60 L 70.00 36.10 L 69.80 35.40 L 69.30 34.90 L 68.80 34.80 L 68.60 35.30 L 68.80 36.00 L 69.30 36.50" fill="#3887e5" fill-rule="nonzero" group-id="2,11,32,55" node-id="734" stroke="none" target-height="3.699997" target-width="2" target-x="68.3" target-y="34.4"></path></g><path d="M 70.00 36.10 L 69.80 36.60 L 69.30 36.60 L 68.70 36.00 L 68.50 35.30 L 68.70 34.80 L 69.30 34.80 L 70.00 36.10 Z M 69.30 36.30 L 69.60 36.30 L 69.60 35.50 L 68.90 35.10 L 68.90 35.90 L 69.30 36.30" fill="#1e72c6" fill-rule="nonzero" group-id="2,11,32,56" node-id="739" stroke="none" target-height="1.7999992" target-width="1.5" target-x="68.5" target-y="34.8"></path></g></g><g node-id="804"><g node-id="825"><g node-id="849"><path d="M 77.60 76.40 L 76.20 75.90 L 75.00 76.50 L 72.90 76.70 L 72.80 77.20 L 74.40 78.00 L 77.40 78.30 L 77.90 77.70 L 77.60 76.40 Z" fill="#3887e5" fill-rule="nonzero" group-id="2,12,33,57" node-id="750" stroke="none" target-height="2.4000015" target-width="5.0999985" target-x="72.8" target-y="75.9"></path><g node-id="856"><path d="M 79.00 64.10 L 79.20 62.50 L 78.30 60.00 L 74.50 61.20 L 74.70 65.70 L 75.70 70.60 L 76.00 76.10 L 76.60 76.60 L 77.70 76.60 L 77.90 75.50 L 78.20 73.00 L 78.00 67.70 L 79.00 64.10 Z" fill="#3a3a77" fill-rule="nonzero" group-id="2,12,33,57,64" node-id="754" stroke="none" target-height="16.599998" target-width="4.699997" target-x="74.5" target-y="60"></path></g><g node-id="857"><path d="M 75.40 77.80 L 74.00 77.40 L 72.80 78.00 L 70.70 78.10 L 70.60 78.70 L 72.20 79.40 L 75.20 79.70 L 75.70 79.20 L 75.40 77.80 Z" fill="#3887e5" fill-rule="nonzero" group-id="2,12,33,57,65" node-id="759" stroke="none" target-height="2.2999954" target-width="5.0999985" target-x="70.6" target-y="77.4"></path><path d="M 77.00 65.30 L 77.40 63.70 L 76.80 60.70 L 72.20 62.60 L 72.50 67.10 L 73.60 71.90 L 73.80 77.50 L 74.50 78.00 L 75.50 77.90 L 76.00 74.50 L 75.90 68.90 L 77.00 65.30 Z" fill="#4c4a8b" fill-rule="nonzero" group-id="2,12,33,57,65" node-id="761" stroke="none" target-height="17.3" target-width="5.2000046" target-x="72.2" target-y="60.7"></path></g></g></g><g node-id="826"><g node-id="850"><g node-id="858"><path d="M 71.60 55.10 L 71.10 54.00 L 71.20 53.30 L 72.20 52.50 L 73.00 50.70 L 74.70 49.80 L 76.20 49.90 L 77.10 49.50 L 78.50 49.80 L 78.80 50.20 L 78.40 57.10 L 79.00 61.50 L 74.90 63.40 L 72.90 63.30 L 72.20 62.60 L 72.50 56.70 L 71.60 55.10 Z" fill="#9eb5df" fill-rule="nonzero" group-id="2,12,34,58,66" node-id="772" stroke="none" target-height="13.900002" target-width="7.9000015" target-x="71.1" target-y="49.5"></path></g></g></g><g node-id="827"><path d="M 64.60 50.50 L 64.40 50.10 L 65.50 50.60 L 65.40 50.00 L 67.20 52.30 L 69.30 53.60 L 69.90 53.50 L 71.10 52.60 L 72.50 53.40 L 72.40 54.60 L 69.90 55.30 L 68.70 55.30 L 67.80 54.70 L 66.10 52.20 L 64.30 51.20 L 64.70 51.20 L 64.20 50.50 L 64.60 50.50 Z" fill="#ecb4bf" fill-rule="nonzero" group-id="2,12,35" node-id="779" stroke="none" target-height="5.299999" target-width="8.300003" target-x="64.2" target-y="50"></path><path d="M 74.50 51.20 L 73.50 50.70 L 72.10 51.20 L 70.70 52.90 L 70.80 53.60 L 72.10 54.80 L 74.40 52.90 L 74.50 51.20 Z" fill="#83a1cc" fill-rule="nonzero" group-id="2,12,35" node-id="781" stroke="none" target-height="4.0999985" target-width="3.800003" target-x="70.7" target-y="50.7"></path></g><g node-id="828"><g node-id="851"><path d="M 73.60 46.00 L 75.70 45.90 L 76.30 48.30 L 76.20 49.00 L 74.80 49.90 L 74.20 49.80 L 73.60 48.20 L 73.60 46.00 Z" fill="#ecb4bf" fill-rule="nonzero" group-id="2,12,36,59" node-id="788" stroke="none" target-height="4" target-width="2.7000046" target-x="73.6" target-y="45.9"></path></g><path d="M 78.20 49.20 L 77.80 47.90 L 77.80 45.90 L 77.30 44.60 L 76.70 44.00 L 75.80 43.80 L 74.10 44.20 L 73.30 45.40 L 73.50 46.30 L 74.00 46.90 L 74.10 47.80 L 74.40 48.00 L 74.50 47.20 L 74.70 47.20 L 74.40 51.70 L 74.70 52.20 L 75.30 52.30 L 77.70 51.70 L 78.50 51.30 L 78.70 50.70 L 78.20 49.20 Z" fill="#4c4a8b" fill-rule="nonzero" group-id="2,12,36" node-id="791" stroke="none" target-height="8.5" target-width="5.399994" target-x="73.3" target-y="43.8"></path></g></g></g></svg>