<?xml version="1.0" standalone="no"?><!DOCTYPE svg PUBLIC "-//W3C//DTD SVG 1.1//EN" "http://www.w3.org/Graphics/SVG/1.1/DTD/svg11.dtd"><svg height="126" node-id="1" sillyvg="true" template-height="126" template-width="126" version="1.1" viewBox="0 0 126 126" width="126" xmlns="http://www.w3.org/2000/svg" xmlns:xlink="http://www.w3.org/1999/xlink"><defs node-id="310"></defs><path d="M 106.80 57.10 L 103.80 56.50 L 98.60 54.40 L 93.40 51.10 L 91.10 48.30 L 90.00 45.50 L 87.90 42.50 L 85.80 40.50 L 80.70 37.30 L 76.40 36.00 L 75.00 36.00 L 71.40 36.70 L 69.00 36.80 L 64.90 36.50 L 63.20 36.10 L 58.60 33.80 L 1.00 67.10 L 65.00 104.30 L 121.00 72.00 L 123.60 69.70 L 124.50 68.10 L 125.00 66.30 L 124.90 64.70 L 124.30 63.40 L 122.00 61.10 L 117.60 59.10 L 114.70 58.20 L 106.80 57.10 Z" fill="#f3f6fd" fill-rule="nonzero" node-id="314" stroke="none" target-height="70.5" target-width="124" target-x="1" target-y="33.8"></path><path d="M 83.70 58.00 L 83.70 59.60 L 83.20 60.30 L 52.90 77.80 L 51.70 78.10 L 50.60 77.80 L 40.50 71.90 L 27.50 79.40 L 30.80 63.10 L 32.20 60.80 L 49.30 50.90 L 46.00 67.30 L 44.70 69.50 L 41.90 71.10 L 50.60 76.20 L 51.70 76.50 L 52.90 76.20 L 83.20 58.70 L 83.70 58.00 Z" fill="#dee7f8" fill-rule="nonzero" node-id="316" stroke="none" target-height="28.5" target-width="56.199997" target-x="27.5" target-y="50.9"></path><g node-id="1085"><g node-id="1089"><g node-id="1096"><path d="M 95.40 57.70 L 95.10 58.40 L 94.20 58.90 L 88.40 53.80 L 85.20 54.30 L 83.50 54.00 L 81.20 52.80 L 80.60 51.40 L 80.80 49.60 L 81.20 49.00 L 83.70 47.70 L 85.60 47.50 L 87.50 47.70 L 89.10 48.30 L 90.00 49.10 L 90.50 50.30 L 90.30 52.30 L 89.50 53.20 L 95.20 57.20 L 95.40 57.70 Z" fill="#e1e9f4" fill-rule="nonzero" group-id="1,5,12" node-id="324" stroke="none" target-height="11.400002" target-width="14.800003" target-x="80.6" target-y="47.5"></path></g></g></g><path d="M 76.90 74.30 L 76.20 73.40 L 75.20 73.40 L 73.30 73.90 L 73.20 74.90 L 71.60 74.30 L 70.30 75.00 L 67.70 75.40 L 68.80 76.30 L 70.50 76.70 L 69.70 79.30 L 68.80 81.30 L 65.70 84.60 L 63.10 88.40 L 56.00 88.20 L 54.50 88.90 L 56.20 89.00 L 55.20 89.50 L 57.60 89.00 L 61.80 89.70 L 60.00 92.70 L 60.10 93.30 L 62.20 94.70 L 60.50 95.30 L 59.50 96.60 L 58.50 97.30 L 61.50 97.80 L 64.10 97.20 L 64.80 96.40 L 65.40 95.00 L 67.10 94.60 L 67.90 94.00 L 69.50 90.80 L 72.20 86.90 L 72.90 83.80 L 76.70 75.80 L 76.90 74.30 Z M 71.30 82.10 L 70.60 82.80 L 72.70 77.30 L 73.40 77.30 L 71.30 82.10 Z M 73.80 76.10 L 73.80 76.10 Z" fill="#dee7f8" fill-rule="nonzero" node-id="329" stroke="none" target-height="24.400002" target-width="22.400002" target-x="54.5" target-y="73.4"></path><path d="M 64.10 81.10 L 62.80 80.70 L 63.20 79.00 L 62.60 79.30 L 59.50 78.80 L 56.00 79.30 L 55.40 77.50 L 52.80 86.00 L 53.50 86.60 L 54.70 87.00 L 56.20 87.10 L 59.30 86.60 L 60.50 85.90 L 61.40 84.20 L 64.00 82.50 L 64.30 81.90 L 64.10 81.10 Z M 63.20 81.70 L 61.80 83.10 L 62.40 81.60 L 63.30 81.40 L 63.20 81.70 Z" fill="#dee7f8" fill-rule="nonzero" node-id="331" stroke="none" target-height="9.599998" target-width="11.500004" target-x="52.8" target-y="77.5"></path><path d="M 114.40 75.80 L 77.90 54.90 L 69.20 60.00 L 105.70 80.90 L 105.10 81.20 L 68.70 60.30 L 41.50 76.00 L 77.90 96.90 L 77.40 97.20 L 41.00 76.30 L 32.20 81.30 L 68.70 102.20 L 68.20 102.50 L 3.90 65.40 L 4.40 65.10 L 31.80 81.10 L 40.60 76.00 L 13.10 60.10 L 13.70 59.80 L 41.10 75.70 L 49.90 70.60 L 22.40 54.70 L 22.80 54.50 L 50.20 70.40 L 59.10 65.30 L 31.70 49.40 L 32.10 49.20 L 59.50 65.10 L 68.30 60.00 L 40.90 44.10 L 41.40 43.80 L 68.80 59.70 L 77.50 54.70 L 50.10 38.70 L 50.60 38.40 L 114.90 75.50 Z" fill="#fdfeff" fill-rule="nonzero" node-id="333" stroke="none" target-height="64.1" target-width="111" target-x="3.9" target-y="38.4"></path><path d="M 49.30 62.80 L 49.30 62.80 Z" fill="#dee7f8" fill-rule="nonzero" node-id="335" stroke="none" target-height="0" target-width="0" target-x="49.3" target-y="62.8"></path><path d="M 49.30 62.80 L 49.30 62.80 Z" fill="#dee7f8" fill-rule="nonzero" node-id="337" stroke="none" target-height="0" target-width="0" target-x="49.3" target-y="62.8"></path><g node-id="1086"><g node-id="1090"><g node-id="1097"><g node-id="1105"><g node-id="1120"><path d="M 32.00 39.40 L 62.80 21.70 L 63.90 22.20 L 62.40 22.60 L 63.00 23.60 L 63.10 44.20 L 32.80 61.70 L 32.00 63.10 L 31.00 62.40 L 30.90 62.00 L 30.80 41.30 L 31.20 40.20 L 32.00 39.40 Z" fill="#b6cbea" fill-rule="nonzero" group-id="2,6,13,21,36" node-id="349" stroke="none" target-height="41.399998" target-width="33.100002" target-x="30.8" target-y="21.7"></path><g node-id="1189"><g node-id="1224"><g node-id="1228"><path d="M 63.00 22.30 L 63.80 22.20 L 64.20 22.90 L 64.20 43.50 L 63.90 44.70 L 63.10 45.50 L 32.80 63.00 L 32.00 63.10 L 31.60 62.40 L 31.60 41.80 L 31.90 40.60 L 32.70 39.80 L 63.00 22.30 Z" fill="#83a1cc" fill-rule="nonzero" group-id="2,6,13,21,36,105,140,144" node-id="357" stroke="none" target-height="40.899998" target-width="32.6" target-x="31.6" target-y="22.2"></path></g></g></g><path d="M 32.70 41.10 L 32.80 61.70 L 63.10 44.20 L 63.00 23.60 Z" fill="#4c4a8b" fill-rule="nonzero" group-id="2,6,13,21,36,106" node-id="364" stroke="none" target-height="38.1" target-width="30.399998" target-x="32.7" target-y="23.6"></path></g><g node-id="1121"><g node-id="1191"><g node-id="1225"><g node-id="1229"><path d="M 32.30 63.70 L 32.30 65.30 L 32.80 65.90 L 50.60 76.30 L 51.70 76.60 L 52.90 76.30 L 83.60 58.50 L 83.70 56.50 L 83.20 55.90 L 65.40 45.50 L 64.20 45.20 L 63.10 45.50 L 32.80 63.00 L 32.30 63.70 Z" fill="#83a1cc" fill-rule="nonzero" group-id="2,6,13,21,37,107,141,145" node-id="376" stroke="none" target-height="31.399998" target-width="51.399998" target-x="32.3" target-y="45.2"></path></g></g></g><g node-id="1192"><g node-id="1226"><g node-id="1230"><g node-id="1232"><path d="M 32.30 63.70 L 32.30 65.30 L 32.80 65.90 L 50.60 76.30 L 51.70 76.60 L 52.90 76.30 L 83.20 58.80 L 83.70 58.10 L 83.70 56.50 L 83.20 57.20 L 52.90 74.70 L 51.70 75.00 L 50.60 74.70 L 32.80 64.30 L 32.30 63.70 Z" fill="#83a1cc" fill-rule="nonzero" group-id="2,6,13,21,37,108,142,146,148" node-id="389" stroke="none" target-height="20.099998" target-width="51.399998" target-x="32.3" target-y="56.5"></path></g><g node-id="1233"><g node-id="1236"><path d="M 45.40 72.10 L 45.40 72.90 L 43.10 71.70 L 43.10 70.80 Z" fill="#3a3a77" fill-rule="nonzero" group-id="2,6,13,21,37,108,142,146,149,152" node-id="396" stroke="none" target-height="2.0999985" target-width="2.300003" target-x="43.1" target-y="70.8"></path></g><path d="M 49.00 74.20 L 49.00 75.00 L 46.70 73.70 L 46.70 72.90 Z" fill="#3a3a77" fill-rule="nonzero" group-id="2,6,13,21,37,108,142,146,149,153" node-id="401" stroke="none" target-height="2.0999985" target-width="2.2999992" target-x="46.7" target-y="72.9"></path></g><path d="M 33.80 65.20 L 33.50 65.20 L 33.50 66.00 L 34.10 66.30 L 34.10 65.60 L 33.80 65.20 Z" fill="#3a3a77" fill-rule="nonzero" group-id="2,6,13,21,37,108,142,146" node-id="405" stroke="none" target-height="1.1000061" target-width="0.5999985" target-x="33.5" target-y="65.2"></path><g node-id="1234"><path d="M 32.80 63.00 L 32.30 63.70 L 32.80 64.30 L 50.60 74.70 L 51.70 75.00 L 52.90 74.70 L 83.60 56.90 L 83.60 56.20 L 83.20 55.90 L 65.40 45.50 L 64.20 45.20 L 63.10 45.50 L 32.80 63.00 Z" fill="#b6cbea" fill-rule="nonzero" group-id="2,6,13,21,37,108,142,146,150" node-id="409" stroke="none" target-height="29.8" target-width="51.3" target-x="32.3" target-y="45.2"></path></g></g></g><path d="M 71.40 61.80 L 65.90 58.70 L 54.70 65.10 L 60.40 68.50 L 71.40 62.20 L 71.40 61.80 Z" fill="#83a1cc" fill-rule="nonzero" group-id="2,6,13,21,37,108" node-id="414" stroke="none" target-height="9.799999" target-width="16.7" target-x="54.7" target-y="58.7"></path></g></g></g><g node-id="1106"><path d="M 38.40 63.00 L 44.60 66.50 L 42.00 68.00 L 35.80 64.50 Z" fill="#83a1cc" fill-rule="nonzero" group-id="2,6,13,22" node-id="421" stroke="none" target-height="5" target-width="8.799999" target-x="35.8" target-y="63"></path><path d="M 72.00 50.60 L 69.40 52.10 L 63.20 48.60 L 65.90 47.00 Z" fill="#83a1cc" fill-rule="nonzero" group-id="2,6,13,22" node-id="423" stroke="none" target-height="5.0999985" target-width="8.799999" target-x="63.2" target-y="47"></path></g><g node-id="1107"><g node-id="1122"><path d="M 46.40 63.20 L 44.00 64.60 L 42.80 63.90 L 45.20 62.50 Z" fill="#3a3a77" fill-rule="nonzero" group-id="2,6,13,23,38" node-id="430" stroke="none" target-height="2.0999985" target-width="3.6000023" target-x="42.8" target-y="62.5"></path></g><g node-id="1123"><g node-id="1193"><path d="M 45.30 60.30 L 44.10 61.00 L 42.90 60.40 L 44.10 59.60 Z" fill="#3a3a77" fill-rule="nonzero" group-id="2,6,13,23,39,109" node-id="437" stroke="none" target-height="1.4000015" target-width="2.3999977" target-x="42.9" target-y="59.6"></path></g><g node-id="1194"><path d="M 43.80 61.20 L 42.50 61.90 L 41.30 61.30 L 42.60 60.50 Z" fill="#3a3a77" fill-rule="nonzero" group-id="2,6,13,23,39,110" node-id="442" stroke="none" target-height="1.4000015" target-width="2.5" target-x="41.3" target-y="60.5"></path></g><g node-id="1195"><path d="M 46.10 61.60 L 44.80 62.40 L 43.60 61.70 L 44.90 60.90 Z" fill="#3a3a77" fill-rule="nonzero" group-id="2,6,13,23,39,111" node-id="447" stroke="none" target-height="1.5" target-width="2.5" target-x="43.6" target-y="60.9"></path></g><path d="M 44.50 62.50 L 42.50 63.70 L 41.30 63.00 L 43.30 61.80 Z" fill="#3a3a77" fill-rule="nonzero" group-id="2,6,13,23,39,112" node-id="452" stroke="none" target-height="1.9000015" target-width="3.2000008" target-x="41.3" target-y="61.8"></path></g><g node-id="1124"><path d="M 42.20 62.10 L 41.00 62.80 L 39.80 62.20 L 41.00 61.40 Z" fill="#3a3a77" fill-rule="nonzero" group-id="2,6,13,23,40" node-id="458" stroke="none" target-height="1.3999977" target-width="2.4000015" target-x="39.8" target-y="61.4"></path></g><g node-id="1125"><g node-id="1197"><path d="M 46.90 57.70 L 45.70 58.40 L 45.00 58.00 L 46.30 57.30 Z" fill="#3a3a77" fill-rule="nonzero" group-id="2,6,13,23,41,113" node-id="465" stroke="none" target-height="1.1000023" target-width="1.9000015" target-x="45" target-y="57.3"></path></g><path d="M 45.40 58.60 L 44.10 59.30 L 43.50 58.90 L 44.70 58.20 Z" fill="#3a3a77" fill-rule="nonzero" group-id="2,6,13,23,41,114" node-id="470" stroke="none" target-height="1.0999985" target-width="1.9000015" target-x="43.5" target-y="58.2"></path></g><g node-id="1126"><path d="M 50.70 58.90 L 49.50 59.70 L 48.30 59.00 L 49.50 58.20 Z" fill="#3a3a77" fill-rule="nonzero" group-id="2,6,13,23,42" node-id="476" stroke="none" target-height="1.5" target-width="2.4000015" target-x="48.3" target-y="58.2"></path></g><g node-id="1127"><path d="M 51.70 63.60 L 50.50 64.30 L 49.30 63.60 L 50.50 62.90 Z" fill="#3a3a77" fill-rule="nonzero" group-id="2,6,13,23,43" node-id="481" stroke="none" target-height="1.4000015" target-width="2.4000015" target-x="49.3" target-y="62.9"></path></g><g node-id="1128"><path d="M 53.30 62.70 L 52.00 63.40 L 50.80 62.70 L 52.10 62.00 Z" fill="#3a3a77" fill-rule="nonzero" group-id="2,6,13,23,44" node-id="486" stroke="none" target-height="1.4000015" target-width="2.5" target-x="50.8" target-y="62"></path></g><g node-id="1129"><g node-id="1199"><path d="M 46.90 59.40 L 45.60 60.20 L 44.40 59.50 L 45.70 58.70 Z" fill="#3a3a77" fill-rule="nonzero" group-id="2,6,13,23,45,115" node-id="493" stroke="none" target-height="1.5" target-width="2.5" target-x="44.4" target-y="58.7"></path></g><g node-id="1200"><path d="M 49.20 59.80 L 47.90 60.60 L 46.70 59.90 L 48.00 59.10 Z" fill="#3a3a77" fill-rule="nonzero" group-id="2,6,13,23,45,116" node-id="498" stroke="none" target-height="1.5" target-width="2.5" target-x="46.7" target-y="59.1"></path></g><g node-id="1201"><path d="M 51.00 60.50 L 49.80 61.20 L 48.60 60.50 L 49.90 59.80 Z" fill="#3a3a77" fill-rule="nonzero" group-id="2,6,13,23,45,117" node-id="503" stroke="none" target-height="1.4000015" target-width="2.4000015" target-x="48.6" target-y="59.8"></path></g><g node-id="1202"><path d="M 47.60 60.70 L 46.40 61.50 L 45.20 60.80 L 46.40 60.00 Z" fill="#3a3a77" fill-rule="nonzero" group-id="2,6,13,23,45,118" node-id="508" stroke="none" target-height="1.5" target-width="2.3999977" target-x="45.2" target-y="60"></path></g><g node-id="1203"><path d="M 49.50 61.40 L 48.30 62.10 L 47.10 61.40 L 48.30 60.70 Z" fill="#3a3a77" fill-rule="nonzero" group-id="2,6,13,23,45,119" node-id="513" stroke="none" target-height="1.3999977" target-width="2.4000015" target-x="47.1" target-y="60.7"></path></g><path d="M 51.80 61.80 L 50.50 62.50 L 49.30 61.80 L 50.60 61.10 Z" fill="#3a3a77" fill-rule="nonzero" group-id="2,6,13,23,45,120" node-id="518" stroke="none" target-height="1.4000015" target-width="2.5" target-x="49.3" target-y="61.1"></path></g><g node-id="1130"><path d="M 51.50 56.70 L 50.30 57.50 L 49.10 56.80 L 50.30 56.00 Z" fill="#3a3a77" fill-rule="nonzero" group-id="2,6,13,23,46" node-id="524" stroke="none" target-height="1.5" target-width="2.4000015" target-x="49.1" target-y="56"></path></g><g node-id="1131"><path d="M 54.60 54.90 L 53.40 55.70 L 52.20 55.00 L 53.40 54.20 Z" fill="#3a3a77" fill-rule="nonzero" group-id="2,6,13,23,47" node-id="529" stroke="none" target-height="1.5" target-width="2.3999977" target-x="52.2" target-y="54.2"></path></g><g node-id="1132"><path d="M 53.10 54.10 L 51.90 54.80 L 51.20 54.40 L 52.40 53.70 Z" fill="#3a3a77" fill-rule="nonzero" group-id="2,6,13,23,48" node-id="534" stroke="none" target-height="1.0999985" target-width="1.8999977" target-x="51.2" target-y="53.7"></path></g><g node-id="1133"><path d="M 51.60 55.00 L 50.30 55.70 L 49.60 55.30 L 50.90 54.60 Z" fill="#3a3a77" fill-rule="nonzero" group-id="2,6,13,23,49" node-id="539" stroke="none" target-height="1.1000023" target-width="2" target-x="49.6" target-y="54.6"></path></g><g node-id="1134"><path d="M 50.00 55.90 L 48.80 56.60 L 48.10 56.20 L 49.30 55.50 Z" fill="#3a3a77" fill-rule="nonzero" group-id="2,6,13,23,50" node-id="544" stroke="none" target-height="1.0999985" target-width="1.9000015" target-x="48.1" target-y="55.5"></path></g><g node-id="1135"><path d="M 48.50 56.80 L 47.20 57.50 L 46.50 57.10 L 47.80 56.40 Z" fill="#3a3a77" fill-rule="nonzero" group-id="2,6,13,23,51" node-id="549" stroke="none" target-height="1.0999985" target-width="2" target-x="46.5" target-y="56.4"></path></g><g node-id="1136"><path d="M 55.70 57.80 L 54.40 58.50 L 53.20 57.80 L 54.50 57.10 Z" fill="#3a3a77" fill-rule="nonzero" group-id="2,6,13,23,52" node-id="554" stroke="none" target-height="1.4000015" target-width="2.5" target-x="53.2" target-y="57.1"></path></g><g node-id="1137"><path d="M 54.80 61.80 L 53.60 62.50 L 52.40 61.80 L 53.60 61.10 Z" fill="#3a3a77" fill-rule="nonzero" group-id="2,6,13,23,53" node-id="559" stroke="none" target-height="1.4000015" target-width="2.3999977" target-x="52.4" target-y="61.1"></path></g><g node-id="1138"><path d="M 53.30 60.90 L 52.10 61.60 L 50.90 60.90 L 52.10 60.20 Z" fill="#3a3a77" fill-rule="nonzero" group-id="2,6,13,23,54" node-id="564" stroke="none" target-height="1.3999977" target-width="2.3999977" target-x="50.9" target-y="60.2"></path></g><g node-id="1139"><path d="M 56.40 60.90 L 55.10 61.60 L 53.90 60.90 L 55.20 60.20 Z" fill="#3a3a77" fill-rule="nonzero" group-id="2,6,13,23,55" node-id="569" stroke="none" target-height="1.3999977" target-width="2.5" target-x="53.9" target-y="60.2"></path></g><g node-id="1140"><path d="M 54.90 60.00 L 53.60 60.70 L 52.40 60.00 L 53.70 59.30 Z" fill="#3a3a77" fill-rule="nonzero" group-id="2,6,13,23,56" node-id="574" stroke="none" target-height="1.4000015" target-width="2.5" target-x="52.4" target-y="59.3"></path></g><g node-id="1141"><path d="M 52.60 59.60 L 51.30 60.30 L 50.10 59.60 L 51.40 58.90 Z" fill="#3a3a77" fill-rule="nonzero" group-id="2,6,13,23,57" node-id="579" stroke="none" target-height="1.3999977" target-width="2.5" target-x="50.1" target-y="58.9"></path></g><g node-id="1142"><path d="M 57.90 60.00 L 56.70 60.70 L 55.50 60.00 L 56.70 59.30 Z" fill="#3a3a77" fill-rule="nonzero" group-id="2,6,13,23,58" node-id="584" stroke="none" target-height="1.4000015" target-width="2.4000015" target-x="55.5" target-y="59.3"></path></g><g node-id="1143"><path d="M 56.40 59.10 L 55.20 59.80 L 54.00 59.10 L 55.20 58.40 Z" fill="#3a3a77" fill-rule="nonzero" group-id="2,6,13,23,59" node-id="589" stroke="none" target-height="1.3999977" target-width="2.4000015" target-x="54" target-y="58.4"></path></g><g node-id="1144"><path d="M 54.10 58.70 L 52.90 59.40 L 51.70 58.70 L 52.90 58.00 Z" fill="#3a3a77" fill-rule="nonzero" group-id="2,6,13,23,60" node-id="594" stroke="none" target-height="1.4000015" target-width="2.3999977" target-x="51.7" target-y="58"></path></g><g node-id="1145"><path d="M 52.30 58.00 L 51.00 58.80 L 49.80 58.10 L 51.10 57.30 Z" fill="#3a3a77" fill-rule="nonzero" group-id="2,6,13,23,61" node-id="599" stroke="none" target-height="1.5" target-width="2.5" target-x="49.8" target-y="57.3"></path></g><g node-id="1146"><path d="M 50.00 57.60 L 48.70 58.40 L 47.50 57.70 L 48.80 56.90 Z" fill="#3a3a77" fill-rule="nonzero" group-id="2,6,13,23,62" node-id="604" stroke="none" target-height="1.5" target-width="2.5" target-x="47.5" target-y="56.9"></path></g><g node-id="1147"><path d="M 48.40 58.50 L 47.20 59.30 L 46.00 58.60 L 47.20 57.80 Z" fill="#3a3a77" fill-rule="nonzero" group-id="2,6,13,23,63" node-id="609" stroke="none" target-height="1.5" target-width="2.4000015" target-x="46" target-y="57.8"></path></g><g node-id="1148"><path d="M 55.40 56.20 L 54.10 57.00 L 52.90 56.30 L 54.20 55.50 Z" fill="#3a3a77" fill-rule="nonzero" group-id="2,6,13,23,64" node-id="614" stroke="none" target-height="1.5" target-width="2.5" target-x="52.9" target-y="55.5"></path></g><g node-id="1149"><path d="M 53.80 57.10 L 52.60 57.90 L 51.40 57.20 L 52.60 56.40 Z" fill="#3a3a77" fill-rule="nonzero" group-id="2,6,13,23,65" node-id="619" stroke="none" target-height="1.5" target-width="2.3999977" target-x="51.4" target-y="56.4"></path></g><g node-id="1150"><path d="M 53.10 55.80 L 51.80 56.60 L 50.60 55.90 L 51.90 55.10 Z" fill="#3a3a77" fill-rule="nonzero" group-id="2,6,13,23,66" node-id="624" stroke="none" target-height="1.5" target-width="2.5" target-x="50.6" target-y="55.1"></path></g><g node-id="1151"><path d="M 56.20 52.30 L 54.90 53.00 L 54.30 52.60 L 55.50 51.90 Z" fill="#3a3a77" fill-rule="nonzero" group-id="2,6,13,23,67" node-id="629" stroke="none" target-height="1.0999985" target-width="1.9000015" target-x="54.3" target-y="51.9"></path></g><g node-id="1152"><g node-id="1205"><path d="M 59.20 52.20 L 58.00 53.00 L 56.80 52.30 L 58.10 51.50 Z" fill="#3a3a77" fill-rule="nonzero" group-id="2,6,13,23,68,121" node-id="636" stroke="none" target-height="1.5" target-width="2.4000015" target-x="56.8" target-y="51.5"></path></g><path d="M 57.70 53.10 L 56.40 53.90 L 55.30 53.20 L 56.50 52.40 Z" fill="#3a3a77" fill-rule="nonzero" group-id="2,6,13,23,68,122" node-id="641" stroke="none" target-height="1.5" target-width="2.4000015" target-x="55.3" target-y="52.4"></path></g><g node-id="1153"><path d="M 61.00 58.20 L 59.80 58.90 L 58.60 58.20 L 59.80 57.50 Z" fill="#3a3a77" fill-rule="nonzero" group-id="2,6,13,23,69" node-id="647" stroke="none" target-height="1.4000015" target-width="2.4000015" target-x="58.6" target-y="57.5"></path></g><g node-id="1154"><path d="M 59.50 57.30 L 58.30 58.00 L 57.10 57.30 L 58.30 56.60 Z" fill="#3a3a77" fill-rule="nonzero" group-id="2,6,13,23,70" node-id="652" stroke="none" target-height="1.4000015" target-width="2.4000015" target-x="57.1" target-y="56.6"></path></g><g node-id="1155"><path d="M 62.60 57.30 L 61.30 58.00 L 60.10 57.30 L 61.40 56.60 Z" fill="#3a3a77" fill-rule="nonzero" group-id="2,6,13,23,71" node-id="657" stroke="none" target-height="1.4000015" target-width="2.5" target-x="60.1" target-y="56.6"></path></g><g node-id="1156"><g node-id="1207"><path d="M 60.30 55.10 L 59.10 55.80 L 57.90 55.10 L 59.10 54.40 Z" fill="#3a3a77" fill-rule="nonzero" group-id="2,6,13,23,72,123" node-id="664" stroke="none" target-height="1.3999977" target-width="2.3999977" target-x="57.9" target-y="54.4"></path></g><g node-id="1208"><path d="M 62.60 55.50 L 61.40 56.20 L 60.20 55.50 L 61.40 54.80 Z" fill="#3a3a77" fill-rule="nonzero" group-id="2,6,13,23,72,124" node-id="669" stroke="none" target-height="1.4000015" target-width="2.3999977" target-x="60.2" target-y="54.8"></path></g><path d="M 61.10 56.40 L 59.80 57.10 L 58.60 56.40 L 59.90 55.70 Z" fill="#3a3a77" fill-rule="nonzero" group-id="2,6,13,23,72,125" node-id="674" stroke="none" target-height="1.3999977" target-width="2.5" target-x="58.6" target-y="55.7"></path></g><g node-id="1157"><path d="M 58.00 58.20 L 56.70 58.90 L 55.50 58.20 L 56.80 57.50 Z" fill="#3a3a77" fill-rule="nonzero" group-id="2,6,13,23,73" node-id="680" stroke="none" target-height="1.4000015" target-width="2.5" target-x="55.5" target-y="57.5"></path></g><g node-id="1158"><path d="M 57.20 56.90 L 56.00 57.60 L 54.80 56.90 L 56.00 56.20 Z" fill="#3a3a77" fill-rule="nonzero" group-id="2,6,13,23,74" node-id="685" stroke="none" target-height="1.3999977" target-width="2.4000015" target-x="54.8" target-y="56.2"></path></g><g node-id="1159"><path d="M 58.80 56.00 L 57.50 56.70 L 56.30 56.00 L 57.60 55.30 Z" fill="#3a3a77" fill-rule="nonzero" group-id="2,6,13,23,75" node-id="690" stroke="none" target-height="1.4000015" target-width="2.5" target-x="56.3" target-y="55.3"></path></g><g node-id="1160"><g node-id="1210"><path d="M 56.20 54.00 L 54.90 54.80 L 53.70 54.10 L 55.00 53.30 Z" fill="#3a3a77" fill-rule="nonzero" group-id="2,6,13,23,76,126" node-id="697" stroke="none" target-height="1.5" target-width="2.5" target-x="53.7" target-y="53.3"></path></g><g node-id="1211"><path d="M 58.40 54.40 L 57.20 55.20 L 56.00 54.50 L 57.30 53.70 Z" fill="#3a3a77" fill-rule="nonzero" group-id="2,6,13,23,76,127" node-id="702" stroke="none" target-height="1.5" target-width="2.4000015" target-x="56" target-y="53.7"></path></g><path d="M 56.90 55.30 L 55.60 56.10 L 54.50 55.40 L 55.70 54.60 Z" fill="#3a3a77" fill-rule="nonzero" group-id="2,6,13,23,76,128" node-id="707" stroke="none" target-height="1.5" target-width="2.4000015" target-x="54.5" target-y="54.6"></path></g><g node-id="1161"><path d="M 64.60 50.80 L 63.40 51.60 L 62.20 50.90 L 63.40 50.20 Z" fill="#3a3a77" fill-rule="nonzero" group-id="2,6,13,23,77" node-id="713" stroke="none" target-height="1.3999977" target-width="2.3999977" target-x="62.2" target-y="50.2"></path></g><g node-id="1162"><path d="M 63.10 51.70 L 61.80 52.50 L 60.60 51.80 L 61.90 51.10 Z" fill="#3a3a77" fill-rule="nonzero" group-id="2,6,13,23,78" node-id="718" stroke="none" target-height="1.4000015" target-width="2.5" target-x="60.6" target-y="51.1"></path></g><g node-id="1163"><path d="M 60.00 53.50 L 58.70 54.30 L 57.50 53.60 L 58.80 52.80 Z" fill="#3a3a77" fill-rule="nonzero" group-id="2,6,13,23,79" node-id="723" stroke="none" target-height="1.5" target-width="2.5" target-x="57.5" target-y="52.8"></path></g><g node-id="1164"><path d="M 64.20 54.60 L 62.90 55.30 L 61.70 54.60 L 63.00 53.90 Z" fill="#3a3a77" fill-rule="nonzero" group-id="2,6,13,23,80" node-id="728" stroke="none" target-height="1.3999977" target-width="2.4999962" target-x="61.7" target-y="53.9"></path></g><g node-id="1165"><path d="M 61.90 54.20 L 60.60 54.90 L 59.40 54.20 L 60.70 53.50 Z" fill="#3a3a77" fill-rule="nonzero" group-id="2,6,13,23,81" node-id="733" stroke="none" target-height="1.4000015" target-width="2.5" target-x="59.4" target-y="53.5"></path></g><g node-id="1166"><path d="M 66.10 55.20 L 64.80 56.00 L 64.30 55.70 L 65.60 54.90 Z" fill="#3a3a77" fill-rule="nonzero" group-id="2,6,13,23,82" node-id="738" stroke="none" target-height="1.0999985" target-width="1.7999954" target-x="64.3" target-y="54.9"></path></g><g node-id="1167"><g node-id="1213"><path d="M 69.10 53.40 L 67.80 54.20 L 67.30 53.90 L 68.60 53.10 Z" fill="#3a3a77" fill-rule="nonzero" group-id="2,6,13,23,83,129" node-id="745" stroke="none" target-height="1.1000023" target-width="1.7999954" target-x="67.3" target-y="53.1"></path></g><g node-id="1214"><path d="M 67.60 52.60 L 64.50 54.40 L 63.30 53.70 L 66.40 51.90 Z" fill="#3a3a77" fill-rule="nonzero" group-id="2,6,13,23,83,130" node-id="750" stroke="none" target-height="2.5" target-width="4.299999" target-x="63.3" target-y="51.9"></path></g><g node-id="1215"><path d="M 66.90 53.90 L 65.60 54.70 L 65.10 54.40 L 66.40 53.60 Z" fill="#3a3a77" fill-rule="nonzero" group-id="2,6,13,23,83,131" node-id="755" stroke="none" target-height="1.1000023" target-width="1.800003" target-x="65.1" target-y="53.6"></path></g><path d="M 67.60 54.30 L 66.30 55.10 L 65.80 54.80 L 67.10 54.00 Z" fill="#3a3a77" fill-rule="nonzero" group-id="2,6,13,23,83,132" node-id="760" stroke="none" target-height="1.0999985" target-width="1.7999954" target-x="65.8" target-y="54"></path></g><g node-id="1168"><path d="M 63.40 53.30 L 62.20 54.00 L 61.00 53.30 L 62.20 52.60 Z" fill="#3a3a77" fill-rule="nonzero" group-id="2,6,13,23,84" node-id="766" stroke="none" target-height="1.4000015" target-width="2.4000015" target-x="61" target-y="52.6"></path></g><g node-id="1169"><path d="M 66.10 51.70 L 63.70 53.10 L 62.50 52.40 L 64.90 51.00 Z" fill="#3a3a77" fill-rule="nonzero" group-id="2,6,13,23,85" node-id="771" stroke="none" target-height="2.0999985" target-width="3.5999985" target-x="62.5" target-y="51"></path></g><g node-id="1170"><path d="M 63.10 50.00 L 61.10 51.20 L 59.90 50.50 L 61.90 49.30 Z" fill="#3a3a77" fill-rule="nonzero" group-id="2,6,13,23,86" node-id="776" stroke="none" target-height="1.9000015" target-width="3.199997" target-x="59.9" target-y="49.3"></path></g><g node-id="1171"><path d="M 60.80 51.30 L 59.50 52.10 L 58.30 51.40 L 59.60 50.60 Z" fill="#3a3a77" fill-rule="nonzero" group-id="2,6,13,23,87" node-id="781" stroke="none" target-height="1.5" target-width="2.5" target-x="58.3" target-y="50.6"></path></g><g node-id="1172"><path d="M 40.70 61.30 L 39.50 62.00 L 38.80 61.60 L 40.10 60.90 Z" fill="#3a3a77" fill-rule="nonzero" group-id="2,6,13,23,88" node-id="786" stroke="none" target-height="1.0999985" target-width="1.9000015" target-x="38.8" target-y="60.9"></path></g><g node-id="1173"><path d="M 42.30 60.40 L 41.00 61.10 L 40.40 60.70 L 41.60 60.00 Z" fill="#3a3a77" fill-rule="nonzero" group-id="2,6,13,23,89" node-id="791" stroke="none" target-height="1.0999985" target-width="1.8999977" target-x="40.4" target-y="60"></path></g><g node-id="1174"><path d="M 43.80 59.50 L 42.60 60.20 L 41.90 59.80 L 43.20 59.10 Z" fill="#3a3a77" fill-rule="nonzero" group-id="2,6,13,23,90" node-id="796" stroke="none" target-height="1.1000023" target-width="1.8999977" target-x="41.9" target-y="59.1"></path></g><g node-id="1175"><path d="M 54.70 53.20 L 53.40 53.90 L 52.70 53.50 L 54.00 52.80 Z" fill="#3a3a77" fill-rule="nonzero" group-id="2,6,13,23,91" node-id="801" stroke="none" target-height="1.1000023" target-width="2" target-x="52.7" target-y="52.8"></path></g><g node-id="1176"><path d="M 59.30 50.50 L 58.00 51.20 L 57.40 50.80 L 58.60 50.10 Z" fill="#3a3a77" fill-rule="nonzero" group-id="2,6,13,23,92" node-id="806" stroke="none" target-height="1.1000023" target-width="1.8999977" target-x="57.4" target-y="50.1"></path></g><g node-id="1177"><path d="M 57.80 51.40 L 56.50 52.10 L 55.80 51.70 L 57.10 51.00 Z" fill="#3a3a77" fill-rule="nonzero" group-id="2,6,13,23,93" node-id="811" stroke="none" target-height="1.0999985" target-width="2" target-x="55.8" target-y="51"></path></g><g node-id="1178"><path d="M 61.60 49.10 L 59.60 50.30 L 58.90 49.90 L 61.00 48.70 Z" fill="#3a3a77" fill-rule="nonzero" group-id="2,6,13,23,94" node-id="816" stroke="none" target-height="1.5999985" target-width="2.699997" target-x="58.9" target-y="48.7"></path></g><g node-id="1179"><path d="M 61.50 52.60 L 60.30 53.40 L 59.10 52.70 L 60.30 51.90 Z" fill="#3a3a77" fill-rule="nonzero" group-id="2,6,13,23,95" node-id="821" stroke="none" target-height="1.5" target-width="2.4000015" target-x="59.1" target-y="51.9"></path></g><g node-id="1180"><g node-id="1217"><path d="M 48.00 62.30 L 46.70 63.00 L 45.50 62.30 L 46.80 61.60 Z" fill="#3a3a77" fill-rule="nonzero" group-id="2,6,13,23,96,133" node-id="828" stroke="none" target-height="1.4000015" target-width="2.5" target-x="45.5" target-y="61.6"></path></g><g node-id="1218"><path d="M 50.20 62.70 L 49.00 63.40 L 47.80 62.70 L 49.00 62.00 Z" fill="#3a3a77" fill-rule="nonzero" group-id="2,6,13,23,96,134" node-id="833" stroke="none" target-height="1.4000015" target-width="2.4000015" target-x="47.8" target-y="62"></path></g><path d="M 48.70 63.60 L 45.50 65.40 L 44.30 64.80 L 47.50 62.90 Z" fill="#3a3a77" fill-rule="nonzero" group-id="2,6,13,23,96,135" node-id="838" stroke="none" target-height="2.5" target-width="4.4000015" target-x="44.3" target-y="62.9"></path></g><g node-id="1181"><path d="M 64.50 56.10 L 62.90 57.10 L 61.70 56.40 L 63.30 55.40 Z" fill="#3a3a77" fill-rule="nonzero" group-id="2,6,13,23,97" node-id="844" stroke="none" target-height="1.699997" target-width="2.7999992" target-x="61.7" target-y="55.4"></path></g><g node-id="1182"><path d="M 59.50 59.10 L 58.20 59.80 L 57.00 59.10 L 58.30 58.40 Z" fill="#3a3a77" fill-rule="nonzero" group-id="2,6,13,23,98" node-id="849" stroke="none" target-height="1.3999977" target-width="2.5" target-x="57" target-y="58.4"></path></g><g node-id="1183"><path d="M 50.20 64.50 L 48.90 65.20 L 47.70 64.50 L 49.00 63.80 Z" fill="#3a3a77" fill-rule="nonzero" group-id="2,6,13,23,99" node-id="854" stroke="none" target-height="1.3999977" target-width="2.5" target-x="47.7" target-y="63.8"></path></g><path d="M 48.70 65.30 L 47.00 66.30 L 45.80 65.60 L 47.50 64.70 Z" fill="#3a3a77" fill-rule="nonzero" group-id="2,6,13,23,100" node-id="859" stroke="none" target-height="1.6000061" target-width="2.9000015" target-x="45.8" target-y="64.7"></path></g></g></g><g node-id="1091"><g node-id="1098"><g node-id="1108"><g node-id="1185"><path d="M 67.30 51.70 L 52.10 60.50 L 44.00 55.80 L 42.50 54.20 L 41.80 52.10 L 41.70 40.00 L 40.40 37.90 L 39.50 37.10 L 54.70 28.40 L 55.60 29.10 L 56.80 31.20 L 57.00 43.30 L 57.60 45.40 L 59.10 47.00 L 67.30 51.70 Z" fill="#ffffff" fill-rule="nonzero" group-id="2,7,14,24,101" node-id="873" stroke="none" target-height="32.1" target-width="27.800003" target-x="39.5" target-y="28.4"></path></g><path d="M 52.10 60.50 L 67.30 51.70 L 52.10 60.70 Z" fill="#83a1cc" fill-rule="nonzero" group-id="2,7,14,24,102" node-id="878" stroke="none" target-height="9" target-width="15.200005" target-x="52.1" target-y="51.7"></path></g></g><g node-id="1099"><path d="M 54.70 29.60 L 42.10 36.90 L 42.50 37.40 L 55.00 30.10 L 54.70 29.60 Z" fill="#b6cbea" fill-rule="nonzero" group-id="2,7,15" node-id="885" stroke="none" target-height="7.800001" target-width="12.900002" target-x="42.1" target-y="29.6"></path><path d="M 52.00 32.90 L 42.90 38.20 L 43.00 38.50 L 52.10 33.20 L 52.00 32.90 Z" fill="#b6cbea" fill-rule="nonzero" group-id="2,7,15" node-id="887" stroke="none" target-height="5.5999985" target-width="9.199997" target-x="42.9" target-y="32.9"></path><path d="M 52.30 33.80 L 43.20 39.10 L 43.30 39.40 L 52.40 34.10 L 52.30 33.80 Z" fill="#b6cbea" fill-rule="nonzero" group-id="2,7,15" node-id="889" stroke="none" target-height="5.6000023" target-width="9.200001" target-x="43.2" target-y="33.8"></path><path d="M 52.40 34.90 L 43.40 40.00 L 43.40 40.40 L 52.40 35.10 L 52.40 34.90 Z" fill="#b6cbea" fill-rule="nonzero" group-id="2,7,15" node-id="891" stroke="none" target-height="5.5" target-width="9" target-x="43.4" target-y="34.9"></path><path d="M 52.40 35.80 L 43.40 41.10 L 43.40 41.50 L 52.40 36.20 Z" fill="#b6cbea" fill-rule="nonzero" group-id="2,7,15" node-id="893" stroke="none" target-height="5.700001" target-width="9" target-x="43.4" target-y="35.8"></path><path d="M 55.90 36.40 L 43.40 43.70 L 43.40 44.40 L 55.90 37.10 Z" fill="#b6cbea" fill-rule="nonzero" group-id="2,7,15" node-id="895" stroke="none" target-height="8" target-width="12.5" target-x="43.4" target-y="36.4"></path><path d="M 43.40 45.70 L 52.40 40.50 L 52.40 40.10 L 43.40 45.40 Z" fill="#b6cbea" fill-rule="nonzero" group-id="2,7,15" node-id="897" stroke="none" target-height="5.6000023" target-width="9" target-x="43.4" target-y="40.1"></path><path d="M 43.40 46.80 L 52.40 41.60 L 52.40 41.20 L 43.40 46.50 Z" fill="#b6cbea" fill-rule="nonzero" group-id="2,7,15" node-id="899" stroke="none" target-height="5.5999985" target-width="9" target-x="43.4" target-y="41.2"></path><path d="M 43.40 47.90 L 52.40 42.60 L 52.40 42.30 L 43.40 47.50 Z" fill="#b6cbea" fill-rule="nonzero" group-id="2,7,15" node-id="901" stroke="none" target-height="5.6000023" target-width="9" target-x="43.4" target-y="42.3"></path><path d="M 43.40 49.00 L 52.40 43.70 L 52.40 43.30 L 43.40 48.60 Z" fill="#b6cbea" fill-rule="nonzero" group-id="2,7,15" node-id="903" stroke="none" target-height="5.700001" target-width="9" target-x="43.4" target-y="43.3"></path><path d="M 43.40 51.80 L 55.90 44.60 L 55.90 43.90 L 43.40 51.20 L 43.40 51.80 Z" fill="#b6cbea" fill-rule="nonzero" group-id="2,7,15" node-id="905" stroke="none" target-height="7.8999977" target-width="12.5" target-x="43.4" target-y="43.9"></path><path d="M 43.60 53.10 L 52.70 47.80 L 52.60 47.50 L 43.50 52.80 L 43.60 53.10 Z" fill="#b6cbea" fill-rule="nonzero" group-id="2,7,15" node-id="907" stroke="none" target-height="5.5999985" target-width="9.200001" target-x="43.5" target-y="47.5"></path><path d="M 44.00 53.90 L 53.00 48.70 L 52.90 48.40 L 43.80 53.70 L 44.00 53.90 Z" fill="#b6cbea" fill-rule="nonzero" group-id="2,7,15" node-id="909" stroke="none" target-height="5.5" target-width="9.200001" target-x="43.8" target-y="48.4"></path><path d="M 44.50 54.70 L 53.60 49.40 L 53.40 49.20 L 44.30 54.50 L 44.50 54.70 Z" fill="#b6cbea" fill-rule="nonzero" group-id="2,7,15" node-id="911" stroke="none" target-height="5.5" target-width="9.299999" target-x="44.3" target-y="49.2"></path><path d="M 45.20 55.40 L 54.20 50.10 L 54.00 49.90 L 44.90 55.20 L 45.20 55.40 Z" fill="#b6cbea" fill-rule="nonzero" group-id="2,7,15" node-id="913" stroke="none" target-height="5.5" target-width="9.299999" target-x="44.9" target-y="49.9"></path><path d="M 47.60 56.90 L 60.20 49.60 L 59.50 49.20 L 47.00 56.50 Z" fill="#b6cbea" fill-rule="nonzero" group-id="2,7,15" node-id="915" stroke="none" target-height="7.700001" target-width="13.200001" target-x="47" target-y="49.2"></path><path d="M 48.80 57.60 L 57.80 52.30 L 57.50 52.10 L 48.50 57.40 Z" fill="#b6cbea" fill-rule="nonzero" group-id="2,7,15" node-id="917" stroke="none" target-height="5.5" target-width="9.299999" target-x="48.5" target-y="52.1"></path><path d="M 49.70 58.10 L 58.80 52.80 L 58.50 52.60 L 49.40 57.90 Z" fill="#b6cbea" fill-rule="nonzero" group-id="2,7,15" node-id="919" stroke="none" target-height="5.5" target-width="9.399998" target-x="49.4" target-y="52.6"></path><path d="M 50.60 58.60 L 59.70 53.40 L 59.40 53.20 L 50.30 58.40 Z" fill="#b6cbea" fill-rule="nonzero" group-id="2,7,15" node-id="921" stroke="none" target-height="5.3999977" target-width="9.400002" target-x="50.3" target-y="53.2"></path><path d="M 51.60 59.20 L 60.60 53.90 L 60.30 53.70 L 51.30 59.00 Z" fill="#b6cbea" fill-rule="nonzero" group-id="2,7,15" node-id="923" stroke="none" target-height="5.5" target-width="9.299999" target-x="51.3" target-y="53.7"></path></g></g><path d="M 52.10 60.50 L 44.00 56.00 L 42.30 54.30 L 41.70 52.00 L 41.50 40.00 L 41.10 38.90 L 39.60 37.10 L 40.40 37.90 L 41.70 40.00 L 41.80 52.10 L 42.50 54.20 L 44.00 55.80 L 52.10 60.50 Z" fill="#83a1cc" fill-rule="nonzero" group-id="2" node-id="927" stroke="none" target-height="23.400002" target-width="12.5" target-x="39.6" target-y="37.1"></path><g node-id="1092"><path d="M 76.60 72.70 L 74.70 71.90 L 73.40 72.60 L 70.90 72.80 L 70.80 73.20 L 73.00 74.30 L 74.80 74.40 L 74.70 74.70 L 76.10 75.00 L 76.80 74.80 L 76.90 74.50 L 76.60 72.70 Z" fill="#2a2a5e" fill-rule="nonzero" group-id="2,8" node-id="931" stroke="none" target-height="3.0999985" target-width="6.0999985" target-x="70.8" target-y="71.9"></path><g node-id="1100"><g node-id="1109"><path d="M 62.30 52.90 L 61.80 52.80 L 62.40 52.60 L 61.80 52.30 L 63.60 52.00 L 63.00 51.70 L 62.70 51.20 L 65.40 52.40 L 65.50 53.20 L 62.80 53.70 L 62.60 53.60 L 62.80 53.30 L 62.00 53.10 L 62.30 52.90 Z" fill="#ecb4bf" fill-rule="nonzero" group-id="2,8,16,25" node-id="937" stroke="none" target-height="2.5" target-width="3.7000008" target-x="61.8" target-y="51.2"></path></g></g><g node-id="1101"><g node-id="1110"><g node-id="1187"><g node-id="1220"><g node-id="1227"><g node-id="1231"><g node-id="1235"><g node-id="1238"><g node-id="1239"><g node-id="1240"><g node-id="1241"><g node-id="1242"><g node-id="1243"><g node-id="1244"><path d="M 71.50 37.10 L 75.40 38.30 L 75.70 43.30 L 75.40 43.80 L 74.70 44.10 L 72.90 44.00 L 72.30 43.60 L 72.80 42.00 L 71.50 40.80 L 71.20 39.90 L 71.50 37.10 Z" fill="#ecb4bf" fill-rule="nonzero" group-id="2,8,17,26,103,136,143,147,151,154,155,156,157,158,159,160" node-id="969" stroke="none" target-height="7" target-width="4.5" target-x="71.2" target-y="37.1"></path></g></g></g></g></g></g></g></g></g></g></g></g></g><g node-id="1111"><path d="M 77.90 58.70 L 78.20 56.90 L 78.10 55.60 L 77.50 54.00 L 73.10 55.40 L 73.30 59.70 L 74.50 66.00 L 74.50 72.10 L 74.90 72.50 L 76.70 72.80 L 77.30 68.80 L 77.20 62.70 L 77.90 58.70 Z" fill="#3a3a77" fill-rule="nonzero" group-id="2,8,17,27" node-id="986" stroke="none" target-height="18.800003" target-width="5.0999985" target-x="73.1" target-y="54"></path></g><g node-id="1112"><path d="M 73.70 74.30 L 71.80 73.60 L 70.40 74.20 L 68.00 74.40 L 67.90 74.80 L 70.10 75.90 L 71.80 76.00 L 71.80 76.30 L 73.20 76.60 L 73.90 76.40 L 74.00 76.10 L 73.70 74.30 Z" fill="#2a2a5e" fill-rule="nonzero" group-id="2,8,17,28" node-id="991" stroke="none" target-height="3" target-width="6.0999985" target-x="67.9" target-y="73.6"></path><path d="M 75.20 60.00 L 75.70 58.20 L 75.70 56.70 L 75.30 54.80 L 70.20 57.00 L 70.30 61.30 L 71.60 67.60 L 71.60 73.70 L 71.90 74.10 L 73.80 74.40 L 74.40 70.40 L 74.40 65.20 L 75.20 60.00 Z" fill="#4c4a8b" fill-rule="nonzero" group-id="2,8,17,28" node-id="993" stroke="none" target-height="19.600002" target-width="5.5" target-x="70.2" target-y="54.8"></path></g><path d="M 78.10 45.20 L 78.20 43.10 L 77.80 42.10 L 77.00 41.50 L 75.40 41.30 L 75.10 41.90 L 74.40 42.30 L 72.70 42.40 L 70.70 43.90 L 69.90 45.40 L 69.70 46.90 L 70.20 58.70 L 71.40 59.30 L 73.50 59.20 L 76.30 57.50 L 78.10 55.50 L 78.10 45.20 Z" fill="#3887e5" fill-rule="nonzero" group-id="2,8,17" node-id="996" stroke="none" target-height="18" target-width="8.5" target-x="69.7" target-y="41.3"></path><path d="M 72.70 36.30 L 71.20 36.80 L 70.60 37.40 L 72.00 39.00 L 72.30 40.10 L 72.60 40.20 L 72.90 39.10 L 73.30 39.20 L 73.30 41.90 L 73.80 42.60 L 74.90 42.30 L 76.20 41.50 L 76.50 38.70 L 76.30 37.50 L 75.20 36.30 L 74.00 36.10 L 72.70 36.30 Z" fill="#4c4a8b" fill-rule="nonzero" group-id="2,8,17" node-id="998" stroke="none" target-height="6.5" target-width="5.9000015" target-x="70.6" target-y="36.1"></path><g node-id="1113"><path d="M 70.70 43.80 L 69.90 44.60 L 69.50 45.80 L 69.60 51.40 L 64.80 52.00 L 65.00 53.00 L 64.80 53.50 L 67.90 53.90 L 71.20 53.70 L 72.10 52.90 L 72.60 47.80 L 72.10 44.60 L 71.80 43.90 L 70.70 43.80 Z" fill="#6b9ef9" fill-rule="nonzero" group-id="2,8,17,29" node-id="1002" stroke="none" target-height="10.100002" target-width="7.7999954" target-x="64.8" target-y="43.8"></path></g></g></g></g><g node-id="1087"><g node-id="1093"><g node-id="1102"><g node-id="1114"><path d="M 62.70 71.70 L 62.70 78.70 L 62.40 78.00 L 61.60 77.30 L 60.10 76.80 L 58.50 76.70 L 56.70 77.30 L 55.90 78.00 L 55.60 78.70 L 55.70 71.70 L 55.90 71.00 L 56.70 70.30 L 57.80 69.90 L 60.20 69.80 L 61.60 70.30 L 62.40 71.00 L 62.70 71.70 Z" fill="#9eb5df" fill-rule="nonzero" group-id="3,9,18,30" node-id="1016" stroke="none" target-height="8.899994" target-width="7.1000023" target-x="55.6" target-y="69.8"></path></g><g node-id="1115"><path d="M 61.60 72.00 L 62.40 72.70 L 62.70 73.40 L 62.40 74.10 L 61.70 74.80 L 60.50 75.30 L 57.80 75.30 L 56.70 74.80 L 55.90 74.10 L 55.70 73.40 L 55.90 72.70 L 56.70 72.00 L 59.20 71.40 L 61.60 72.00 Z" fill="#3a3a77" fill-rule="nonzero" group-id="3,9,18,31" node-id="1021" stroke="none" target-height="3.9000015" target-width="7" target-x="55.7" target-y="71.4"></path></g><g node-id="1116"><path d="M 63.20 71.70 L 63.20 78.70 L 63.00 79.60 L 62.00 80.40 L 59.20 81.10 L 56.30 80.40 L 55.30 79.60 L 55.10 78.70 L 55.10 71.70 L 55.40 72.60 L 56.30 73.40 L 59.20 74.10 L 62.10 73.40 L 63.00 72.60 L 63.20 71.70 Z" fill="#9eb5df" fill-rule="nonzero" group-id="3,9,18,32" node-id="1026" stroke="none" target-height="9.400002" target-width="8.100002" target-x="55.1" target-y="71.7"></path></g><g node-id="1117"><g node-id="1188"><g node-id="1221"><path d="M 64.50 77.40 L 63.20 78.00 L 62.20 77.50 L 63.00 77.00 L 64.00 77.50 L 64.50 77.40 Z" fill="#b6cbea" fill-rule="nonzero" group-id="3,9,18,33,104,137" node-id="1035" stroke="none" target-height="1" target-width="2.2999992" target-x="62.2" target-y="77"></path></g><g node-id="1222"><path d="M 65.20 76.70 L 65.10 77.40 L 63.90 78.30 L 64.40 77.20 L 64.30 76.30 L 63.30 74.60 L 62.20 73.90 L 63.00 73.40 L 64.10 74.10 L 65.10 75.80 L 65.20 76.70 Z" fill="#b6cbea" fill-rule="nonzero" group-id="3,9,18,33,104,138" node-id="1040" stroke="none" target-height="4.9000015" target-width="2.9999962" target-x="62.2" target-y="73.4"></path></g><path d="M 62.60 74.10 L 63.90 75.40 L 64.40 77.20 L 63.90 78.30 L 62.60 78.20 L 62.20 77.90 L 62.20 77.50 L 63.20 78.00 L 63.60 77.90 L 64.10 77.00 L 63.60 75.50 L 62.20 74.30 L 62.20 73.90 L 62.60 74.10 Z" fill="#83a1cc" fill-rule="nonzero" group-id="3,9,18,33,104,139" node-id="1045" stroke="none" target-height="4.4000015" target-width="2.2000008" target-x="62.2" target-y="73.9"></path></g></g><path d="M 62.00 70.10 L 63.00 70.90 L 63.20 71.70 L 63.00 72.60 L 62.10 73.40 L 60.70 73.90 L 57.60 73.90 L 56.30 73.40 L 55.40 72.60 L 55.10 71.70 L 55.40 70.90 L 56.30 70.10 L 59.20 69.40 L 62.00 70.10 Z M 56.70 73.20 L 57.80 73.60 L 60.50 73.60 L 61.70 73.20 L 62.40 72.50 L 62.70 71.70 L 62.40 71.00 L 61.60 70.30 L 60.50 69.90 L 57.80 69.90 L 56.70 70.30 L 55.90 71.00 L 55.70 71.70 L 55.90 72.50 L 56.70 73.20" fill="#dee7f8" fill-rule="nonzero" group-id="3,9,18,34" node-id="1052" stroke="none" target-height="4.5" target-width="8.100002" target-x="55.1" target-y="69.4"></path></g></g></g><g node-id="1088"><g node-id="1094"><g node-id="1103"><path d="M 89.70 48.90 L 89.70 50.00 L 89.40 49.20 L 88.50 48.30 L 87.10 47.80 L 85.10 47.60 L 82.70 48.30 L 81.70 49.20 L 81.50 50.00 L 81.70 48.00 L 83.20 46.90 L 85.20 46.50 L 87.10 46.60 L 88.50 47.20 L 89.40 48.00 L 89.70 48.90 Z" fill="#4c4a8b" fill-rule="nonzero" group-id="4,10,19" node-id="1064" stroke="none" target-height="3.5" target-width="8.199997" target-x="81.5" target-y="46.5"></path><g node-id="1119"><path d="M 88.50 47.80 L 89.40 48.60 L 89.70 49.50 L 89.40 50.30 L 88.50 51.20 L 87.20 51.70 L 84.00 51.70 L 82.70 51.20 L 81.70 50.30 L 81.50 49.50 L 81.70 48.60 L 82.70 47.80 L 85.60 47.10 L 88.50 47.80 Z" fill="#6b9ef9" fill-opacity="0.7" fill-rule="nonzero" group-id="4,10,19,35" node-id="1068" stroke="none" target-height="4.6000023" target-width="8.199997" target-x="81.5" target-y="47.1"></path></g><path d="M 90.50 48.90 L 90.40 50.70 L 89.90 51.30 L 87.50 52.60 L 85.60 52.80 L 83.70 52.60 L 81.20 51.30 L 80.80 50.70 L 80.60 48.80 L 81.20 50.20 L 82.10 50.90 L 83.70 51.50 L 85.60 51.70 L 87.50 51.50 L 89.10 50.90 L 89.90 50.20 L 90.50 48.90 Z" fill="#4c4a8b" fill-rule="nonzero" group-id="4,10,19" node-id="1071" stroke="none" target-height="4" target-width="9.900002" target-x="80.6" target-y="48.8"></path><path d="M 89.10 46.80 L 90.40 48.20 L 90.40 49.50 L 89.90 50.20 L 87.50 51.50 L 85.60 51.70 L 83.70 51.50 L 82.10 50.90 L 80.80 49.50 L 80.80 48.20 L 81.20 47.50 L 83.70 46.20 L 85.60 46.00 L 87.50 46.20 L 89.10 46.80 Z M 82.70 50.50 L 84.00 51.00 L 87.20 51.00 L 88.50 50.50 L 89.40 49.70 L 89.70 48.80 L 89.40 48.00 L 88.50 47.20 L 87.10 46.60 L 84.00 46.60 L 82.70 47.20 L 81.70 48.00 L 81.50 48.80 L 81.70 49.70 L 82.70 50.50 Z" fill="#6262aa" fill-rule="nonzero" group-id="4,10,19" node-id="1073" stroke="none" target-height="5.700001" target-width="9.599998" target-x="80.8" target-y="46"></path></g></g><g node-id="1095"><g node-id="1104"><path d="M 88.10 51.90 L 93.90 57.30 L 95.20 55.70 L 88.90 51.40 L 88.10 51.90 Z" fill="#6262aa" fill-rule="nonzero" group-id="4,11,20" node-id="1081" stroke="none" target-height="5.8999977" target-width="7.0999985" target-x="88.1" target-y="51.4"></path><path d="M 94.70 55.70 L 95.20 55.70 L 95.40 56.20 L 95.10 56.90 L 94.50 57.40 L 94.00 57.30 L 93.80 56.80 L 94.10 56.20 L 94.70 55.70 Z" fill="#3a3a77" fill-rule="nonzero" group-id="4,11,20" node-id="1083" stroke="none" target-height="1.7000008" target-width="1.5999985" target-x="93.8" target-y="55.7"></path></g></g></g></svg>