<?xml version="1.0" standalone="no"?><!DOCTYPE svg PUBLIC "-//W3C//DTD SVG 1.1//EN" "http://www.w3.org/Graphics/SVG/1.1/DTD/svg11.dtd"><svg height="126" node-id="1" sillyvg="true" template-height="126" template-width="126" version="1.1" viewBox="0 0 126 126" width="126" xmlns="http://www.w3.org/2000/svg" xmlns:xlink="http://www.w3.org/1999/xlink"><defs node-id="274"></defs><g node-id="994"><g node-id="995"><g node-id="996"><g node-id="1008"><path d="M 123.90 74.20 L 68.60 39.90 L 66.50 39.30 L 64.40 39.90 L 2.10 75.80 L 1.30 76.60 L 1.10 77.60 L 1.30 78.60 L 2.10 79.40 L 59.30 112.60 L 61.40 113.20 L 63.40 112.60 L 123.90 77.70 L 124.70 76.90 L 124.90 76.00 L 124.70 75.00 L 123.90 74.20 Z" fill="#f3f6fd" fill-rule="nonzero" group-id="1,2,3,15" node-id="286" stroke="none" target-height="73.899994" target-width="123.8" target-x="1.1" target-y="39.3"></path><path d="M 4.30 74.60 L 3.70 74.90 L 66.00 111.20 L 66.60 110.80 L 35.10 92.40 L 45.70 86.30 L 77.30 104.60 L 77.90 104.30 L 46.40 85.90 L 57.10 79.70 L 88.60 98.10 L 89.10 97.80 L 57.50 79.50 L 68.40 73.30 L 99.90 91.60 L 100.40 91.30 L 68.90 73.00 L 79.60 66.80 L 111.10 85.10 L 111.70 84.70 L 80.30 66.40 L 90.90 60.30 L 122.40 78.60 L 123.00 78.20 L 60.70 42.00 L 60.10 42.40 L 90.20 59.90 L 79.60 66.10 L 49.40 48.50 L 48.80 48.90 L 79.00 66.40 L 45.80 85.60 L 15.60 68.10 L 14.90 68.40 L 45.10 86.00 L 34.50 92.10 Z" fill="#fafcff" fill-rule="nonzero" group-id="1,2,3,15" node-id="288" stroke="none" target-height="69.2" target-width="119.3" target-x="3.7" target-y="42"></path></g></g><g node-id="997"><g node-id="1009"><g node-id="1027"><g node-id="1070"><g node-id="1097"><g node-id="1117"><path d="M 102.20 86.90 L 101.30 85.00 L 97.50 81.70 L 100.50 79.90 L 98.30 78.10 L 94.50 76.40 L 96.30 75.20 L 94.70 73.70 L 84.40 69.20 L 78.30 63.60 L 53.10 50.20 L 39.90 59.60 L 41.20 61.00 L 44.50 62.60 L 42.30 64.00 L 43.50 65.20 L 56.90 71.20 L 57.00 71.90 L 57.60 73.00 L 58.60 74.00 L 60.70 75.30 L 63.00 75.90 L 63.80 75.70 L 64.20 75.20 L 64.00 74.30 L 75.70 79.40 L 77.20 80.60 L 81.00 82.90 L 86.50 85.40 L 86.80 85.00 L 86.70 84.70 L 85.00 83.40 L 89.10 85.20 L 91.10 85.60 L 95.10 83.20 L 99.00 86.30 L 100.90 87.10 L 101.90 87.30 L 102.20 86.90 Z" fill="#e1e9f4" fill-rule="nonzero" group-id="1,2,4,16,34,77,104,124" node-id="304" stroke="none" target-height="37.100002" target-width="62.299995" target-x="39.9" target-y="50.2"></path></g></g></g></g></g></g><g node-id="998"><g node-id="1010"><g node-id="1028"><g node-id="1071"><path d="M 76.60 74.10 L 85.10 69.10 L 85.10 70.50 L 76.60 75.50 Z" fill="#2a2a5e" fill-rule="nonzero" group-id="1,2,5,17,35,78" node-id="320" stroke="none" target-height="6.4000015" target-width="8.5" target-x="76.6" target-y="69.1"></path></g><g node-id="1072"><path d="M 58.80 63.80 L 67.30 58.90 L 85.10 69.10 L 76.60 74.10 Z" fill="#6262aa" fill-rule="nonzero" group-id="1,2,5,17,35,79" node-id="325" stroke="none" target-height="15.199997" target-width="26.3" target-x="58.8" target-y="58.9"></path></g><path d="M 76.60 74.10 L 76.60 75.50 L 58.80 65.20 L 58.80 63.80 Z" fill="#3a3a77" fill-rule="nonzero" group-id="1,2,5,17,35,80" node-id="330" stroke="none" target-height="11.700001" target-width="17.8" target-x="58.8" target-y="63.8"></path></g></g><g node-id="1011"><g node-id="1029"><g node-id="1074"><g node-id="1098"><path d="M 75.90 59.80 L 75.90 69.40 L 77.20 68.60 L 77.20 60.60 L 75.90 59.80 Z" fill="#2a2a5e" fill-rule="nonzero" group-id="1,2,5,18,36,81,105" node-id="343" stroke="none" target-height="9.600002" target-width="1.2999954" target-x="75.9" target-y="59.8"></path></g><path d="M 68.00 55.60 L 68.00 64.80 L 75.90 69.40 L 75.90 59.80 L 68.00 55.60 Z" fill="#3a3a77" fill-rule="nonzero" group-id="1,2,5,18,36,81,106" node-id="348" stroke="none" target-height="13.800003" target-width="7.9000015" target-x="68" target-y="55.6"></path></g></g></g><g node-id="1012"><g node-id="1030"><g node-id="1075"><g node-id="1100"><path d="M 96.10 44.90 L 96.10 74.20 L 95.70 75.10 L 93.80 76.00 L 54.60 53.50 L 53.60 52.50 L 53.20 51.20 L 53.30 21.90 L 53.70 21.00 L 55.60 20.00 L 94.80 42.50 L 95.70 43.50 L 96.10 44.90 Z" fill="#6262aa" fill-rule="nonzero" group-id="1,2,5,19,37,82,107" node-id="362" stroke="none" target-height="56" target-width="42.899998" target-x="53.2" target-y="20"></path></g><path d="M 94.60 45.70 L 94.60 75.00 L 94.50 75.60 L 93.80 76.00 L 54.60 53.50 L 53.30 51.80 L 53.30 21.90 L 53.40 21.30 L 54.10 20.90 L 93.30 43.40 L 94.20 44.40 L 94.60 45.70 Z" fill="#2a2a5e" fill-rule="nonzero" group-id="1,2,5,19,37,82" node-id="365" stroke="none" target-height="55.1" target-width="41.3" target-x="53.3" target-y="20.9"></path><g node-id="1101"><g node-id="1118"><path d="M 93.10 45.10 L 93.00 70.70 L 54.80 48.70 L 54.90 23.00 Z" fill="#6b9ef9" fill-rule="nonzero" group-id="1,2,5,19,37,82,108,125" node-id="371" stroke="none" target-height="47.699997" target-width="38.3" target-x="54.8" target-y="23"></path></g></g><path d="M 72.80 60.50 L 72.20 60.50 L 72.00 61.00 L 72.20 61.80 L 72.80 62.40 L 73.30 62.50 L 73.60 61.90 L 73.30 61.10 L 72.80 60.50 Z" fill="#6262aa" fill-rule="nonzero" group-id="1,2,5,19,37,82" node-id="375" stroke="none" target-height="2" target-width="1.5999985" target-x="72" target-y="60.5"></path></g></g></g></g><g node-id="999"><g node-id="1013"><g node-id="1031"><path d="M 102.40 43.00 L 102.30 69.00 L 101.90 69.90 L 100.50 70.70 L 100.90 69.80 L 101.00 43.80 L 102.40 43.00 Z" fill="#b6cbea" fill-rule="nonzero" group-id="1,2,6,20,38" node-id="387" stroke="none" target-height="27.699997" target-width="1.9000015" target-x="100.5" target-y="43"></path></g><g node-id="1032"><path d="M 101.00 43.80 L 100.90 69.80 L 100.80 70.30 L 100.10 70.80 L 59.60 47.50 L 58.60 46.50 L 58.20 45.10 L 58.30 19.10 L 101.00 43.80 Z" fill="#dee7f8" fill-rule="nonzero" group-id="1,2,6,20,39" node-id="392" stroke="none" target-height="51.700005" target-width="42.8" target-x="58.2" target-y="19.1"></path></g><g node-id="1033"><g node-id="1076"><path d="M 102.40 38.50 L 102.40 43.00 L 101.00 43.80 L 100.90 38.60 L 99.60 36.90 L 59.70 13.80 L 58.70 13.70 L 60.00 12.90 L 61.00 13.00 L 101.00 36.10 L 102.00 37.10 L 102.40 38.50 Z" fill="#6262aa" fill-rule="nonzero" group-id="1,2,6,20,40,83" node-id="399" stroke="none" target-height="30.9" target-width="43.7" target-x="58.7" target-y="12.9"></path></g><path d="M 99.60 36.90 L 100.90 38.60 L 101.00 43.80 L 58.30 19.10 L 58.40 14.00 L 59.10 13.60 L 59.70 13.80 L 99.60 36.90 Z" fill="#3a3a77" fill-rule="nonzero" group-id="1,2,6,20,40,84" node-id="404" stroke="none" target-height="30.199999" target-width="42.7" target-x="58.3" target-y="13.6"></path></g></g><g node-id="1014"><g node-id="1034"><path d="M 61.10 16.50 L 61.70 17.20 L 62.00 18.10 L 61.60 18.80 L 61.10 18.70 L 60.40 18.00 L 60.10 17.00 L 60.50 16.30 L 61.10 16.50 Z" fill="#dee7f8" fill-rule="nonzero" group-id="1,2,6,21,41" node-id="413" stroke="none" target-height="2.5" target-width="1.9000015" target-x="60.1" target-y="16.3"></path></g><g node-id="1035"><path d="M 64.40 18.40 L 65.10 19.10 L 65.40 20.10 L 64.90 20.80 L 64.40 20.60 L 63.70 19.90 L 63.40 19.00 L 63.90 18.30 L 64.40 18.40 Z" fill="#dee7f8" fill-rule="nonzero" group-id="1,2,6,21,42" node-id="418" stroke="none" target-height="2.5" target-width="2" target-x="63.4" target-y="18.3"></path></g><g node-id="1036"><path d="M 59.70 21.40 L 74.80 30.20 L 74.80 40.20 L 59.60 31.40 L 59.70 21.40 Z" fill="#ffffff" fill-rule="nonzero" group-id="1,2,6,21,43" node-id="423" stroke="none" target-height="18.800001" target-width="15.200005" target-x="59.6" target-y="21.4"></path></g><g node-id="1037"><path d="M 67.80 20.30 L 68.50 21.10 L 68.70 22.00 L 68.30 22.70 L 67.80 22.60 L 67.10 21.90 L 66.80 20.90 L 67.30 20.20 L 67.80 20.30 Z" fill="#dee7f8" fill-rule="nonzero" group-id="1,2,6,21,44" node-id="428" stroke="none" target-height="2.5" target-width="1.8999939" target-x="66.8" target-y="20.2"></path></g><g node-id="1038"><path d="M 66.40 38.00 L 66.40 39.30 L 59.60 35.40 L 59.60 34.10 Z" fill="#1e72c6" fill-rule="nonzero" group-id="1,2,6,21,45" node-id="433" stroke="none" target-height="5.200001" target-width="6.800003" target-x="59.6" target-y="34.1"></path></g><g node-id="1039"><path d="M 71.10 29.30 L 74.30 39.90 L 60.20 31.70 L 64.30 28.20 L 66.80 33.00 Z" fill="#3887e5" fill-rule="nonzero" group-id="1,2,6,21,46" node-id="438" stroke="none" target-height="11.700001" target-width="14.100002" target-x="60.2" target-y="28.2"></path></g><g node-id="1040"><path d="M 79.00 32.60 L 79.00 35.50 L 76.50 34.10 L 76.50 31.10 Z" fill="#6b9ef9" fill-rule="nonzero" group-id="1,2,6,21,47" node-id="443" stroke="none" target-height="4.3999996" target-width="2.5" target-x="76.5" target-y="31.1"></path></g><g node-id="1041"><g node-id="1078"><path d="M 70.40 51.20 L 70.40 51.80 L 59.60 45.50 L 59.60 45.00 Z" fill="#b6cbea" fill-rule="nonzero" group-id="1,2,6,21,48,85" node-id="450" stroke="none" target-height="6.799999" target-width="10.800003" target-x="59.6" target-y="45"></path></g><g node-id="1079"><path d="M 70.40 49.90 L 70.40 50.40 L 59.60 44.20 L 59.60 43.60 Z" fill="#b6cbea" fill-rule="nonzero" group-id="1,2,6,21,48,86" node-id="455" stroke="none" target-height="6.800003" target-width="10.800003" target-x="59.6" target-y="43.6"></path></g><g node-id="1080"><path d="M 70.40 48.50 L 70.40 49.10 L 59.60 42.80 L 59.60 42.30 Z" fill="#b6cbea" fill-rule="nonzero" group-id="1,2,6,21,48,87" node-id="460" stroke="none" target-height="6.799999" target-width="10.800003" target-x="59.6" target-y="42.3"></path></g><g node-id="1081"><path d="M 70.40 47.20 L 70.40 47.70 L 59.60 41.50 L 59.60 40.90 Z" fill="#b6cbea" fill-rule="nonzero" group-id="1,2,6,21,48,88" node-id="465" stroke="none" target-height="6.799999" target-width="10.800003" target-x="59.6" target-y="40.9"></path></g><path d="M 70.40 45.80 L 70.40 46.30 L 59.60 40.10 L 59.60 39.60 Z" fill="#b6cbea" fill-rule="nonzero" group-id="1,2,6,21,48,89" node-id="470" stroke="none" target-height="6.700001" target-width="10.800003" target-x="59.6" target-y="39.6"></path></g><g node-id="1042"><path d="M 79.00 45.30 L 79.00 46.60 L 67.70 40.10 L 67.70 38.80 Z" fill="#1e72c6" fill-rule="nonzero" group-id="1,2,6,21,49" node-id="476" stroke="none" target-height="7.799999" target-width="11.300003" target-x="67.7" target-y="38.8"></path></g><g node-id="1043"><path d="M 79.00 40.10 L 79.00 43.00 L 76.50 41.50 L 76.50 38.60 Z" fill="#4c4a8b" fill-rule="nonzero" group-id="1,2,6,21,50" node-id="481" stroke="none" target-height="4.4000015" target-width="2.5" target-x="76.5" target-y="38.6"></path></g><g node-id="1044"><path d="M 92.10 40.10 L 92.10 43.10 L 89.50 41.60 L 89.50 38.70 Z" fill="#dee7f8" fill-rule="nonzero" group-id="1,2,6,21,51" node-id="486" stroke="none" target-height="4.3999977" target-width="2.5999985" target-x="89.5" target-y="38.7"></path></g><g node-id="1045"><path d="M 92.00 47.60 L 92.00 50.50 L 89.50 49.10 L 89.50 46.20 Z" fill="#1e72c6" fill-rule="nonzero" group-id="1,2,6,21,52" node-id="491" stroke="none" target-height="4.299999" target-width="2.5" target-x="89.5" target-y="46.2"></path></g><g node-id="1046"><path d="M 86.60 37.00 L 86.60 42.50 L 80.80 39.20 L 80.80 33.70 Z" fill="#9eb5df" fill-rule="nonzero" group-id="1,2,6,21,53" node-id="496" stroke="none" target-height="8.799999" target-width="5.7999954" target-x="80.8" target-y="33.7"></path></g><g node-id="1047"><path d="M 86.60 44.50 L 86.60 50.00 L 80.80 46.60 L 80.80 41.10 Z" fill="#9eb5df" fill-rule="nonzero" group-id="1,2,6,21,54" node-id="501" stroke="none" target-height="8.900002" target-width="5.7999954" target-x="80.8" target-y="41.1"></path></g><g node-id="1048"><g node-id="1083"><path d="M 99.60 52.00 L 99.60 57.50 L 93.80 54.20 L 93.90 48.70 Z" fill="#9eb5df" fill-rule="nonzero" group-id="1,2,6,21,55,90" node-id="508" stroke="none" target-height="8.799999" target-width="5.7999954" target-x="93.8" target-y="48.7"></path></g><path d="M 99.60 44.50 L 99.60 50.00 L 93.90 46.70 L 93.90 41.20 Z" fill="#9eb5df" fill-rule="nonzero" group-id="1,2,6,21,55,91" node-id="513" stroke="none" target-height="8.799999" target-width="5.699997" target-x="93.9" target-y="41.2"></path></g><g node-id="1049"><path d="M 79.00 50.70 L 79.00 51.30 L 72.30 47.40 L 72.30 46.90 Z" fill="#b6cbea" fill-rule="nonzero" group-id="1,2,6,21,56" node-id="519" stroke="none" target-height="4.3999977" target-width="6.699997" target-x="72.3" target-y="46.9"></path></g><g node-id="1050"><path d="M 79.00 56.20 L 79.00 56.70 L 72.30 52.90 L 72.30 52.30 Z" fill="#b6cbea" fill-rule="nonzero" group-id="1,2,6,21,57" node-id="524" stroke="none" target-height="4.4000015" target-width="6.699997" target-x="72.3" target-y="52.3"></path></g><g node-id="1051"><path d="M 79.00 54.80 L 79.00 55.40 L 72.30 51.50 L 72.30 51.00 Z" fill="#b6cbea" fill-rule="nonzero" group-id="1,2,6,21,58" node-id="529" stroke="none" target-height="4.4000015" target-width="6.699997" target-x="72.3" target-y="51"></path></g><g node-id="1052"><path d="M 79.00 53.50 L 79.00 54.00 L 72.30 50.20 L 72.30 49.60 Z" fill="#b6cbea" fill-rule="nonzero" group-id="1,2,6,21,59" node-id="534" stroke="none" target-height="4.4000015" target-width="6.699997" target-x="72.3" target-y="49.6"></path></g><g node-id="1053"><path d="M 79.00 52.10 L 79.00 52.60 L 72.30 48.80 L 72.30 48.30 Z" fill="#b6cbea" fill-rule="nonzero" group-id="1,2,6,21,60" node-id="539" stroke="none" target-height="4.299999" target-width="6.699997" target-x="72.3" target-y="48.3"></path></g><g node-id="1054"><path d="M 95.50 58.40 L 95.40 64.50 L 83.60 57.70 L 83.60 51.50 Z" fill="#6262aa" fill-rule="nonzero" group-id="1,2,6,21,61" node-id="544" stroke="none" target-height="13" target-width="11.900002" target-x="83.6" target-y="51.5"></path></g><g node-id="1055"><path d="M 87.70 55.50 L 87.90 56.90 L 87.30 57.10 L 86.30 56.60 L 86.30 57.90 L 85.70 57.50 L 85.70 54.10 L 87.70 55.50 Z M 86.60 56.30 L 87.20 56.40 L 87.40 56.10 L 86.60 55.10 L 86.30 54.90 L 86.30 56.10 L 86.60 56.30" fill="#ffffff" fill-rule="nonzero" group-id="1,2,6,21,62" node-id="549" stroke="none" target-height="3.800003" target-width="2.2000046" target-x="85.7" target-y="54.1"></path></g><g node-id="1056"><path d="M 89.90 56.50 L 91.10 60.70 L 90.50 60.30 L 90.10 59.10 L 88.90 58.40 L 88.60 59.20 L 87.90 58.90 L 89.20 56.10 L 89.90 56.50 Z M 89.10 58.00 L 89.90 58.50 L 89.50 57.00 L 89.10 58.00" fill="#ffffff" fill-rule="nonzero" group-id="1,2,6,21,63" node-id="554" stroke="none" target-height="4.6000023" target-width="3.199997" target-x="87.9" target-y="56.1"></path></g><path d="M 93.90 58.80 L 92.70 60.10 L 92.70 61.60 L 92.00 61.20 L 92.00 59.80 L 90.90 57.10 L 91.60 57.50 L 92.40 59.40 L 93.20 58.40 L 93.90 58.80 Z" fill="#ffffff" fill-rule="nonzero" group-id="1,2,6,21,64" node-id="559" stroke="none" target-height="4.5" target-width="3" target-x="90.9" target-y="57.1"></path></g></g><g node-id="1000"><g node-id="1015"><g node-id="1058"><g node-id="1085"><path d="M 44.10 72.30 L 43.60 72.80 L 41.60 72.70 L 38.50 71.50 L 35.80 69.20 L 35.10 68.00 L 35.10 67.20 L 35.60 66.70 L 37.60 66.80 L 40.70 68.00 L 43.40 70.30 L 44.10 71.50 L 44.10 72.30 Z" fill="#e1e9f4" fill-rule="nonzero" group-id="1,2,7,22,65,92" node-id="572" stroke="none" target-height="6.100006" target-width="9" target-x="35.1" target-y="66.7"></path></g></g></g></g><g node-id="1001"><g node-id="1016"><g node-id="1059"><g node-id="1086"><g node-id="1102"><path d="M 39.40 59.60 L 40.90 60.80 L 42.10 62.50 L 43.00 64.40 L 43.30 66.30 L 42.70 68.20 L 41.40 69.00 L 40.50 68.90 L 39.40 68.50 L 37.90 67.30 L 36.70 65.60 L 35.90 63.70 L 35.60 61.80 L 35.70 60.60 L 36.70 59.30 L 38.30 59.20 L 39.40 59.60 Z" fill="#b6cbea" fill-rule="nonzero" group-id="1,2,8,23,66,93,109" node-id="588" stroke="none" target-height="9.799999" target-width="7.700001" target-x="35.6" target-y="59.2"></path></g><path d="M 40.30 58.10 L 37.90 57.50 L 36.10 58.30 L 38.10 58.10 L 39.40 58.70 L 41.20 60.10 L 42.70 62.20 L 43.70 64.50 L 44.10 66.70 L 43.90 68.20 L 42.70 69.70 L 44.30 68.60 L 44.80 67.60 L 45.00 66.20 L 44.60 64.00 L 43.60 61.60 L 42.10 59.60 L 40.30 58.10 Z" fill="#b6cbea" fill-rule="nonzero" group-id="1,2,8,23,66,93" node-id="591" stroke="none" target-height="12.199997" target-width="8.900002" target-x="36.1" target-y="57.5"></path><g node-id="1103"><path d="M 39.40 58.70 L 41.20 60.10 L 42.70 62.20 L 43.70 64.50 L 44.10 66.70 L 43.40 69.10 L 41.80 70.00 L 40.70 70.00 L 39.40 69.40 L 37.60 68.00 L 36.10 65.90 L 35.10 63.60 L 34.70 61.30 L 34.90 59.90 L 36.10 58.30 L 38.10 58.10 L 39.40 58.70 Z M 39.40 68.50 L 41.40 69.00 L 42.70 68.20 L 43.10 67.40 L 43.30 66.30 L 43.00 64.40 L 42.10 62.50 L 40.90 60.80 L 39.40 59.60 L 37.40 59.10 L 36.10 59.90 L 35.70 60.60 L 35.60 61.80 L 35.90 63.70 L 36.70 65.60 L 37.90 67.30 L 39.40 68.50 Z" fill="#83a1cc" fill-rule="nonzero" group-id="1,2,8,23,66,93,110" node-id="595" stroke="none" target-height="11.900002" target-width="9.399998" target-x="34.7" target-y="58.1"></path></g></g></g><path d="M 39.80 61.50 L 39.80 62.10 L 40.50 63.00 L 40.80 63.90 L 39.40 62.70 L 38.80 62.80 L 40.70 65.20 L 40.50 66.40 L 39.80 66.40 L 39.80 67.00 L 39.00 66.60 L 39.10 66.00 L 38.40 65.10 L 38.10 64.20 L 39.40 65.40 L 40.00 65.30 L 38.50 63.50 L 38.10 62.40 L 38.40 61.70 L 39.10 61.70 L 39.10 61.10 L 39.80 61.50 Z" fill="#83a1cc" fill-rule="nonzero" group-id="1,2,8,23,67,94" node-id="604" stroke="none" target-height="5.9000015" target-width="2.7000008" target-x="38.1" target-y="61.1"></path></g></g><g node-id="1002"><g node-id="1017"><g node-id="1061"><g node-id="1088"><g node-id="1104"><g node-id="1119"><g node-id="1136"><path d="M 32.20 76.80 L 32.00 78.40 L 30.50 79.90 L 26.00 81.90 L 23.80 82.10 L 21.70 81.90 L 19.80 81.20 L 18.30 79.60 L 18.30 77.40 L 17.40 76.50 L 17.20 74.60 L 17.90 73.10 L 21.60 71.00 L 23.40 70.30 L 25.50 70.10 L 27.70 70.30 L 29.50 71.00 L 30.50 71.80 L 31.20 73.40 L 31.10 74.80 L 31.90 75.80 L 32.20 76.80 Z" fill="#e1e9f4" fill-rule="nonzero" group-id="1,2,9,24,68,95,111,126,143" node-id="624" stroke="none" target-height="12" target-width="15" target-x="17.2" target-y="70.1"></path></g></g></g></g></g></g></g><g node-id="1003"><g node-id="1018"><g node-id="1062"><g node-id="1089"><g node-id="1105"><g node-id="1120"><g node-id="1137"><g node-id="1157"><path d="M 28.80 72.10 L 29.90 73.10 L 30.20 74.00 L 29.90 75.00 L 28.80 75.90 L 27.30 76.50 L 25.50 76.70 L 23.80 76.50 L 22.30 75.90 L 21.20 75.00 L 20.90 74.00 L 21.20 73.10 L 22.20 72.10 L 23.70 71.50 L 25.50 71.30 L 27.30 71.50 L 28.80 72.10 Z" fill="#b6cbea" fill-rule="nonzero" group-id="1,2,10,25,69,96,112,127,144,164" node-id="649" stroke="none" target-height="5.399994" target-width="9.300001" target-x="20.9" target-y="71.3"></path></g><g node-id="1158"><path d="M 31.20 74.00 L 31.00 75.70 L 29.50 77.20 L 27.70 77.90 L 25.50 78.20 L 23.40 77.90 L 21.60 77.20 L 20.10 75.70 L 19.90 74.00 L 20.60 75.60 L 21.60 76.30 L 23.40 77.00 L 25.60 77.30 L 27.70 77.00 L 29.50 76.30 L 30.50 75.60 L 31.20 74.00 Z" fill="#dee7f8" fill-rule="nonzero" group-id="1,2,10,25,69,96,112,127,144,165" node-id="654" stroke="none" target-height="4.199997" target-width="11.300001" target-x="19.9" target-y="74"></path></g><path d="M 29.50 71.70 L 31.00 73.20 L 31.00 74.80 L 30.50 75.60 L 29.50 76.30 L 27.70 77.00 L 25.60 77.30 L 23.40 77.00 L 21.60 76.30 L 20.10 74.80 L 20.10 73.20 L 20.60 72.50 L 21.50 71.70 L 23.40 71.00 L 25.50 70.80 L 27.70 71.00 L 29.50 71.70 Z M 22.30 75.90 L 23.80 76.50 L 25.50 76.70 L 27.30 76.50 L 28.80 75.90 L 29.90 75.00 L 30.20 74.00 L 29.90 73.10 L 28.80 72.10 L 27.30 71.50 L 25.50 71.30 L 23.70 71.50 L 22.20 72.10 L 21.20 73.10 L 20.90 74.00 L 21.20 75.00 L 22.30 75.90 Z" fill="#83a1cc" fill-rule="nonzero" group-id="1,2,10,25,69,96,112,127,144,166" node-id="659" stroke="none" target-height="6.5" target-width="10.9" target-x="20.1" target-y="70.8"></path></g></g><path d="M 27.90 73.00 L 27.40 73.30 L 27.70 73.80 L 27.30 74.30 L 26.70 73.90 L 26.50 73.40 L 25.70 73.30 L 26.40 74.50 L 26.00 75.10 L 23.80 75.40 L 23.20 75.00 L 23.60 74.80 L 23.40 74.20 L 23.70 73.70 L 24.40 74.10 L 24.50 74.60 L 25.40 74.70 L 24.70 73.60 L 25.00 73.00 L 27.30 72.60 L 27.90 73.00 Z" fill="#83a1cc" fill-rule="nonzero" group-id="1,2,10,25,69,96,112,128,145" node-id="668" stroke="none" target-height="2.800003" target-width="4.699999" target-x="23.2" target-y="72.6"></path></g></g></g></g><g node-id="1019"><g node-id="1063"><g node-id="1090"><g node-id="1106"><g node-id="1122"><g node-id="1139"><g node-id="1160"><path d="M 31.50 70.90 L 32.60 71.80 L 32.90 72.80 L 32.60 73.80 L 31.60 74.70 L 30.10 75.30 L 28.30 75.50 L 26.50 75.30 L 25.00 74.70 L 23.90 73.80 L 23.60 72.80 L 23.90 71.80 L 25.00 70.90 L 26.50 70.30 L 28.30 70.10 L 30.00 70.30 L 31.50 70.90 Z" fill="#b6cbea" fill-rule="nonzero" group-id="1,2,10,26,70,97,113,129,146,167" node-id="690" stroke="none" target-height="5.4000015" target-width="9.300001" target-x="23.6" target-y="70.1"></path></g><g node-id="1161"><path d="M 33.90 72.80 L 33.70 74.50 L 32.30 76.00 L 30.40 76.70 L 28.30 77.00 L 26.10 76.70 L 24.30 76.00 L 22.80 74.50 L 22.60 72.80 L 23.30 74.30 L 24.30 75.10 L 26.10 75.80 L 28.30 76.10 L 30.40 75.80 L 32.30 75.10 L 33.20 74.40 L 33.90 72.80 Z" fill="#dee7f8" fill-rule="nonzero" group-id="1,2,10,26,70,97,113,129,146,168" node-id="695" stroke="none" target-height="4.199997" target-width="11.300001" target-x="22.6" target-y="72.8"></path></g><path d="M 32.20 70.50 L 33.20 71.30 L 33.90 72.80 L 33.20 74.30 L 32.30 75.10 L 30.40 75.80 L 28.30 76.10 L 26.10 75.80 L 24.30 75.10 L 23.30 74.30 L 22.60 72.80 L 23.30 71.30 L 24.30 70.50 L 26.10 69.80 L 28.20 69.50 L 30.40 69.80 L 32.20 70.50 Z M 25.00 74.70 L 26.50 75.30 L 28.30 75.50 L 30.10 75.30 L 31.60 74.70 L 32.60 73.80 L 32.90 72.80 L 32.60 71.80 L 31.50 70.90 L 30.00 70.30 L 28.30 70.10 L 26.50 70.30 L 25.00 70.90 L 23.90 71.80 L 23.60 72.80 L 23.90 73.80 L 25.00 74.70 Z" fill="#83a1cc" fill-rule="nonzero" group-id="1,2,10,26,70,97,113,129,146,169" node-id="700" stroke="none" target-height="6.5999985" target-width="11.300001" target-x="22.6" target-y="69.5"></path></g></g><path d="M 30.60 71.80 L 30.20 72.00 L 30.40 72.60 L 30.10 73.10 L 29.40 72.70 L 29.30 72.20 L 28.40 72.10 L 29.10 73.20 L 28.70 73.80 L 26.50 74.20 L 25.90 73.80 L 26.40 73.50 L 26.10 73.00 L 26.50 72.50 L 27.10 72.90 L 27.30 73.40 L 28.10 73.50 L 27.40 72.30 L 27.80 71.70 L 30.00 71.40 L 30.60 71.80 Z" fill="#83a1cc" fill-rule="nonzero" group-id="1,2,10,26,70,97,113,130,147" node-id="709" stroke="none" target-height="2.7999954" target-width="4.700001" target-x="25.9" target-y="71.4"></path></g></g></g></g><g node-id="1020"><g node-id="1064"><g node-id="1091"><g node-id="1107"><g node-id="1124"><g node-id="1141"><g node-id="1163"><path d="M 27.80 68.80 L 28.90 69.80 L 29.20 70.70 L 28.90 71.70 L 27.80 72.60 L 26.30 73.20 L 24.60 73.40 L 22.80 73.20 L 21.30 72.60 L 20.20 71.70 L 19.90 70.70 L 20.20 69.80 L 21.30 68.80 L 22.80 68.20 L 24.50 68.00 L 26.30 68.20 L 27.80 68.80 Z" fill="#b6cbea" fill-rule="nonzero" group-id="1,2,10,27,71,98,114,131,148,170" node-id="731" stroke="none" target-height="5.4000015" target-width="9.300001" target-x="19.9" target-y="68"></path></g><g node-id="1164"><path d="M 30.20 70.70 L 30.00 72.40 L 28.50 73.90 L 26.70 74.60 L 24.60 74.90 L 22.40 74.60 L 20.60 73.90 L 19.10 72.40 L 18.90 70.70 L 19.60 72.30 L 20.60 73.00 L 22.40 73.70 L 24.60 74.00 L 26.70 73.70 L 28.50 73.00 L 29.50 72.30 L 30.20 70.70 Z" fill="#dee7f8" fill-rule="nonzero" group-id="1,2,10,27,71,98,114,131,148,171" node-id="736" stroke="none" target-height="4.2000046" target-width="11.300001" target-x="18.9" target-y="70.7"></path></g><path d="M 28.50 68.40 L 30.00 69.90 L 30.00 71.50 L 29.50 72.30 L 28.50 73.00 L 26.70 73.70 L 24.60 74.00 L 22.40 73.70 L 20.60 73.00 L 19.10 71.50 L 19.10 69.90 L 19.60 69.20 L 20.60 68.40 L 22.40 67.70 L 24.50 67.50 L 26.70 67.70 L 28.50 68.40 Z M 21.30 72.60 L 22.80 73.20 L 24.60 73.40 L 26.30 73.20 L 27.80 72.60 L 28.90 71.70 L 29.20 70.70 L 28.90 69.80 L 27.80 68.80 L 26.30 68.20 L 24.50 68.00 L 22.80 68.20 L 21.30 68.80 L 20.20 69.80 L 19.90 70.70 L 20.20 71.70 L 21.30 72.60 Z" fill="#83a1cc" fill-rule="nonzero" group-id="1,2,10,27,71,98,114,131,148,172" node-id="741" stroke="none" target-height="6.5" target-width="10.9" target-x="19.1" target-y="67.5"></path></g></g><path d="M 26.90 69.70 L 26.50 70.00 L 26.70 70.50 L 26.30 71.00 L 25.70 70.60 L 25.60 70.10 L 24.70 70.00 L 25.30 71.50 L 24.20 72.00 L 23.30 71.80 L 22.80 72.10 L 22.20 71.70 L 22.60 71.50 L 22.40 70.90 L 22.70 70.40 L 23.40 70.80 L 23.50 71.30 L 24.40 71.40 L 23.70 70.30 L 24.10 69.70 L 26.30 69.30 L 26.90 69.70 Z" fill="#83a1cc" fill-rule="nonzero" group-id="1,2,10,27,71,98,114,132,149" node-id="750" stroke="none" target-height="2.7999954" target-width="4.699999" target-x="22.2" target-y="69.3"></path></g></g></g></g><g node-id="1021"><g node-id="1065"><g node-id="1092"><g node-id="1108"><g node-id="1126"><g node-id="1143"><g node-id="1166"><path d="M 30.50 67.50 L 31.60 68.40 L 31.90 69.40 L 31.60 70.40 L 30.60 71.30 L 29.10 71.90 L 27.30 72.10 L 25.50 71.90 L 24.00 71.30 L 22.90 70.40 L 22.60 69.40 L 22.90 68.40 L 24.00 67.50 L 25.50 66.90 L 27.30 66.70 L 29.00 66.90 L 30.50 67.50 Z" fill="#b6cbea" fill-rule="nonzero" group-id="1,2,10,28,72,99,115,133,150,173" node-id="772" stroke="none" target-height="5.4000015" target-width="9.299999" target-x="22.6" target-y="66.7"></path></g><g node-id="1167"><path d="M 32.90 69.40 L 32.70 71.10 L 31.30 72.60 L 29.40 73.30 L 27.30 73.50 L 25.10 73.30 L 23.30 72.60 L 21.80 71.10 L 21.70 69.40 L 22.30 70.90 L 23.30 71.70 L 25.10 72.40 L 27.30 72.70 L 29.40 72.40 L 31.30 71.70 L 32.20 70.90 L 32.90 69.40 Z" fill="#dee7f8" fill-rule="nonzero" group-id="1,2,10,28,72,99,115,133,150,174" node-id="777" stroke="none" target-height="4.0999985" target-width="11.200001" target-x="21.7" target-y="69.4"></path></g><path d="M 31.20 67.10 L 32.70 68.60 L 32.70 70.20 L 32.20 70.90 L 31.30 71.70 L 29.40 72.40 L 27.30 72.70 L 25.10 72.40 L 23.30 71.70 L 21.80 70.20 L 21.80 68.60 L 22.30 67.90 L 23.30 67.10 L 25.10 66.40 L 27.30 66.10 L 29.40 66.40 L 31.20 67.10 Z M 24.00 71.30 L 25.50 71.90 L 27.30 72.10 L 29.10 71.90 L 30.60 71.30 L 31.60 70.40 L 31.90 69.40 L 31.60 68.40 L 30.50 67.50 L 29.00 66.90 L 27.30 66.70 L 25.50 66.90 L 24.00 67.50 L 22.90 68.40 L 22.60 69.40 L 22.90 70.40 L 24.00 71.30 Z" fill="#83a1cc" fill-rule="nonzero" group-id="1,2,10,28,72,99,115,133,150,175" node-id="782" stroke="none" target-height="6.5999985" target-width="10.900002" target-x="21.8" target-y="66.1"></path></g></g><path d="M 29.60 68.40 L 29.20 68.60 L 29.40 69.20 L 29.10 69.70 L 28.40 69.30 L 28.30 68.80 L 27.40 68.70 L 28.10 69.80 L 27.80 70.40 L 25.50 70.80 L 24.90 70.40 L 25.40 70.10 L 25.10 69.60 L 25.50 69.10 L 26.10 69.50 L 26.30 70.00 L 27.10 70.10 L 26.40 68.90 L 26.80 68.30 L 29.00 68.00 L 29.60 68.40 Z" fill="#83a1cc" fill-rule="nonzero" group-id="1,2,10,28,72,99,115,134,151" node-id="791" stroke="none" target-height="2.800003" target-width="4.700001" target-x="24.9" target-y="68"></path></g></g></g></g></g><g node-id="1004"><g node-id="1022"><g node-id="1066"><g node-id="1093"><g node-id="1109"><g node-id="1128"><g node-id="1145"><path d="M 105.10 50.60 L 106.50 50.50 L 107.40 50.90 L 107.90 51.80 L 107.90 53.20 L 107.20 54.70 L 106.10 56.10 L 104.80 57.20 L 103.30 57.90 L 101.90 58.00 L 101.00 57.50 L 100.50 56.70 L 100.50 55.20 L 101.20 53.80 L 102.30 52.40 L 103.70 51.20 L 105.10 50.60 Z" fill="#b6cbea" fill-rule="nonzero" group-id="1,2,11,29,73,100,116,135,152" node-id="814" stroke="none" target-height="7.5" target-width="7.4000015" target-x="100.5" target-y="50.5"></path></g><g node-id="1146"><path d="M 108.10 50.20 L 109.20 51.50 L 109.30 53.60 L 108.50 55.40 L 107.20 57.10 L 105.50 58.50 L 103.70 59.30 L 101.60 59.30 L 100.30 58.20 L 101.80 58.80 L 103.10 58.70 L 104.90 57.90 L 106.50 56.50 L 107.90 54.80 L 108.60 53.00 L 108.80 51.80 L 108.10 50.20 Z" fill="#dee7f8" fill-rule="nonzero" group-id="1,2,11,29,73,100,116,135,153" node-id="819" stroke="none" target-height="9.099998" target-width="9" target-x="100.3" target-y="50.2"></path></g><path d="M 105.30 49.80 L 106.60 49.60 L 108.10 50.20 L 108.80 51.80 L 108.60 53.00 L 107.90 54.80 L 106.50 56.50 L 104.90 57.90 L 103.10 58.70 L 101.90 58.80 L 100.30 58.20 L 99.60 56.70 L 99.80 55.50 L 100.50 53.70 L 101.90 52.00 L 103.50 50.60 L 105.30 49.80 Z M 103.30 57.90 L 104.80 57.20 L 106.10 56.10 L 107.20 54.70 L 107.90 53.20 L 107.90 51.80 L 107.40 50.90 L 106.50 50.50 L 105.10 50.60 L 103.70 51.20 L 102.30 52.40 L 101.20 53.80 L 100.50 55.20 L 100.50 56.70 L 101.00 57.50 L 101.90 58.00 L 103.30 57.90 Z" fill="#83a1cc" fill-rule="nonzero" group-id="1,2,11,29,73,100,116,135,154" node-id="824" stroke="none" target-height="9.200001" target-width="9.200005" target-x="99.6" target-y="49.6"></path></g></g><path d="M 105.10 51.80 L 105.00 52.30 L 105.60 52.50 L 105.70 53.10 L 104.90 53.30 L 104.50 53.10 L 103.80 53.60 L 105.30 54.20 L 104.90 55.30 L 104.10 55.90 L 104.00 56.40 L 103.30 56.60 L 103.40 56.10 L 102.80 55.90 L 102.70 55.30 L 103.40 55.10 L 103.90 55.30 L 104.60 54.80 L 103.30 54.50 L 103.10 53.80 L 104.40 52.00 L 105.10 51.80 Z" fill="#83a1cc" fill-rule="nonzero" group-id="1,2,11,29,73,100,117,136" node-id="833" stroke="none" target-height="4.799999" target-width="3" target-x="102.7" target-y="51.8"></path></g></g></g></g><g node-id="1005"><g node-id="1023"><g node-id="1067"><g node-id="1094"><g node-id="1111"><g node-id="1130"><g node-id="1148"><path d="M 74.40 16.40 L 75.60 15.70 L 76.60 15.60 L 77.40 16.20 L 78.00 17.40 L 78.20 19.00 L 77.90 20.80 L 77.30 22.40 L 76.30 23.70 L 75.10 24.50 L 74.10 24.60 L 73.30 24.00 L 72.70 22.80 L 72.50 21.20 L 72.80 19.40 L 73.40 17.80 L 74.40 16.40 Z" fill="#b6cbea" fill-rule="nonzero" group-id="1,2,12,30,74,101,118,137,155" node-id="855" stroke="none" target-height="9" target-width="5.699997" target-x="72.5" target-y="15.6"></path></g><g node-id="1149"><path d="M 76.80 14.70 L 78.40 15.30 L 79.50 17.10 L 79.70 19.00 L 79.40 21.20 L 78.60 23.20 L 77.40 24.80 L 75.50 25.80 L 73.90 25.50 L 75.50 25.30 L 76.50 24.50 L 77.70 22.90 L 78.50 20.90 L 78.80 18.80 L 78.60 16.80 L 78.10 15.70 L 76.80 14.70 Z" fill="#dee7f8" fill-rule="nonzero" group-id="1,2,12,30,74,101,118,137,156" node-id="860" stroke="none" target-height="11.099999" target-width="5.7999954" target-x="73.9" target-y="14.7"></path></g><path d="M 74.20 15.70 L 76.00 14.60 L 77.50 15.00 L 78.10 15.70 L 78.60 16.80 L 78.80 18.80 L 78.50 20.90 L 77.70 22.90 L 76.50 24.50 L 74.70 25.60 L 73.20 25.20 L 72.60 24.50 L 72.10 23.30 L 71.90 21.40 L 72.20 19.30 L 73.00 17.30 L 74.20 15.70 Z M 76.30 23.70 L 77.30 22.40 L 77.90 20.80 L 78.20 19.00 L 78.00 17.40 L 77.40 16.20 L 76.60 15.60 L 75.60 15.70 L 74.40 16.40 L 73.40 17.80 L 72.80 19.40 L 72.50 21.20 L 72.70 22.80 L 73.30 24.00 L 74.10 24.60 L 75.10 24.50 L 76.30 23.70 Z" fill="#83a1cc" fill-rule="nonzero" group-id="1,2,12,30,74,101,118,137,157" node-id="865" stroke="none" target-height="11" target-width="6.9000015" target-x="71.9" target-y="14.6"></path></g></g><path d="M 75.00 17.50 L 75.10 18.00 L 75.70 18.00 L 76.10 18.40 L 75.60 18.90 L 75.00 19.00 L 74.70 19.80 L 76.30 19.50 L 76.50 20.70 L 76.10 21.60 L 76.20 22.10 L 75.70 22.60 L 75.60 22.10 L 75.00 22.20 L 74.60 21.80 L 75.10 21.20 L 75.60 21.20 L 76.00 20.40 L 74.70 20.80 L 74.20 20.30 L 74.50 18.10 L 75.00 17.50 Z" fill="#83a1cc" fill-rule="nonzero" group-id="1,2,12,30,74,101,119,138" node-id="874" stroke="none" target-height="5.1000004" target-width="2.300003" target-x="74.2" target-y="17.5"></path></g></g></g></g><g node-id="1006"><g node-id="1024"><g node-id="1068"><g node-id="1095"><g node-id="1113"><g node-id="1132"><g node-id="1151"><path d="M 97.90 30.20 L 98.80 31.10 L 98.90 31.70 L 98.50 32.30 L 97.30 32.60 L 94.00 32.40 L 92.30 31.90 L 90.00 30.30 L 89.90 29.70 L 90.30 29.10 L 91.50 28.80 L 94.80 29.00 L 97.90 30.20 Z" fill="#b6cbea" fill-rule="nonzero" group-id="1,2,13,31,75,102,120,139,158" node-id="896" stroke="none" target-height="3.7999992" target-width="9" target-x="89.9" target-y="28.8"></path></g><g node-id="1152"><path d="M 99.90 32.00 L 99.40 33.30 L 98.90 33.70 L 95.90 34.00 L 93.70 33.70 L 91.70 33.00 L 89.10 31.40 L 88.80 30.80 L 88.90 29.40 L 89.30 30.50 L 90.20 31.30 L 93.90 32.80 L 98.00 33.10 L 99.10 32.80 L 99.90 32.00 Z" fill="#dee7f8" fill-rule="nonzero" group-id="1,2,13,31,75,102,120,139,159" node-id="901" stroke="none" target-height="4.6000004" target-width="11.099998" target-x="88.8" target-y="29.4"></path></g><path d="M 98.60 30.10 L 99.90 31.50 L 99.60 32.40 L 99.10 32.80 L 96.10 33.10 L 91.90 32.10 L 90.20 31.30 L 89.00 29.90 L 89.20 29.00 L 89.80 28.60 L 92.70 28.30 L 94.90 28.60 L 98.60 30.10 Z M 91.00 31.20 L 94.00 32.40 L 95.80 32.70 L 98.50 32.30 L 98.90 31.70 L 98.80 31.10 L 96.50 29.50 L 93.00 28.70 L 90.30 29.10 L 89.90 29.70 L 90.00 30.30 L 91.00 31.20 Z" fill="#83a1cc" fill-rule="nonzero" group-id="1,2,13,31,75,102,120,139,160" node-id="906" stroke="none" target-height="4.799999" target-width="10.900002" target-x="89" target-y="28.3"></path></g></g><path d="M 96.90 30.60 L 96.40 30.70 L 96.60 31.00 L 96.10 31.30 L 95.50 30.50 L 94.70 30.30 L 95.20 31.20 L 94.70 31.50 L 92.50 31.20 L 92.00 30.80 L 92.40 30.70 L 92.30 30.30 L 92.70 30.10 L 93.40 30.80 L 94.20 31.10 L 93.70 30.20 L 94.10 29.90 L 96.30 30.20 L 96.90 30.60 Z" fill="#83a1cc" fill-rule="nonzero" group-id="1,2,13,31,75,102,121,140" node-id="915" stroke="none" target-height="1.6000004" target-width="4.9000015" target-x="92" target-y="29.9"></path></g></g></g></g><path d="M 78.50 99.70 L 68.90 99.20 L 63.50 99.30 L 59.00 100.10 L 60.10 100.50 L 58.50 101.80 L 54.40 102.00 L 52.80 101.70 L 52.80 101.40 L 53.70 100.80 L 55.40 100.10 L 53.40 99.70 L 54.50 98.00 L 57.90 96.70 L 58.60 95.70 L 62.50 93.70 L 65.20 91.30 L 69.80 87.90 L 73.10 88.30 L 74.30 88.90 L 78.40 89.50 L 78.20 90.10 L 77.70 90.50 L 76.60 90.80 L 73.40 90.90 L 74.20 91.20 L 72.40 91.30 L 70.50 92.20 L 68.80 94.90 L 64.90 98.20 L 76.80 99.10 L 77.70 99.20 L 77.40 99.50 L 78.50 99.70 Z" fill="#e1e9f4" fill-rule="nonzero" group-id="1,2" node-id="923" stroke="none" target-height="14.099998" target-width="25.7" target-x="52.8" target-y="87.9"></path><g node-id="1007"><g node-id="1025"><g node-id="1069"><path d="M 67.40 62.90 L 68.50 57.20 L 69.50 56.50 L 70.20 56.70 L 70.50 57.10 L 70.20 60.70 L 69.60 62.80 L 70.80 68.30 L 69.90 69.00 L 67.60 64.20 L 67.40 62.90 Z" fill="#b6cbea" fill-rule="nonzero" group-id="1,2,14,32,76" node-id="931" stroke="none" target-height="12.5" target-width="3.4000015" target-x="67.4" target-y="56.5"></path><g node-id="1096"><g node-id="1115"><g node-id="1134"><path d="M 70.00 86.70 L 71.70 86.20 L 73.20 86.90 L 75.70 87.10 L 75.80 87.70 L 73.90 88.60 L 70.30 89.00 L 69.90 88.80 L 69.70 88.30 L 70.00 86.70 Z" fill="#2a2a5e" fill-rule="nonzero" group-id="1,2,14,32,76,103,122,141" node-id="939" stroke="none" target-height="2.800003" target-width="6.100006" target-x="69.7" target-y="86.2"></path><g node-id="1154"><path d="M 68.70 71.60 L 68.50 69.80 L 68.80 68.50 L 69.50 67.10 L 73.60 68.40 L 73.50 72.60 L 72.30 79.10 L 72.00 86.10 L 71.50 86.60 L 70.00 86.70 L 69.40 82.20 L 69.70 75.60 L 68.70 71.60 Z" fill="#3a3a77" fill-rule="nonzero" group-id="1,2,14,32,76,103,122,141,161" node-id="943" stroke="none" target-height="19.599998" target-width="5.0999985" target-x="68.5" target-y="67.1"></path></g><g node-id="1155"><path d="M 72.60 88.50 L 74.30 87.90 L 75.80 88.60 L 78.30 88.80 L 78.40 89.50 L 76.50 90.40 L 72.90 90.80 L 72.50 90.60 L 72.30 90.10 L 72.60 88.50 Z" fill="#2a2a5e" fill-rule="nonzero" group-id="1,2,14,32,76,103,122,141,162" node-id="948" stroke="none" target-height="2.9000015" target-width="6.0999985" target-x="72.3" target-y="87.9"></path><path d="M 71.50 73.40 L 70.90 69.80 L 71.10 67.80 L 76.10 69.20 L 75.90 74.00 L 74.80 80.80 L 74.50 88.00 L 74.10 88.50 L 72.50 88.60 L 72.30 87.20 L 71.90 82.20 L 72.00 77.10 L 71.50 73.40 Z" fill="#4c4a8b" fill-rule="nonzero" group-id="1,2,14,32,76,103,122,141,162" node-id="950" stroke="none" target-height="20.799995" target-width="5.199997" target-x="70.9" target-y="67.8"></path></g></g></g><g node-id="1116"><g node-id="1135"><g node-id="1156"><g node-id="1169"><g node-id="1170"><g node-id="1171"><g node-id="1172"><g node-id="1173"><path d="M 74.40 51.70 L 70.50 53.10 L 70.40 58.10 L 70.70 58.60 L 71.50 58.90 L 73.20 58.70 L 73.80 58.30 L 73.30 56.60 L 74.60 55.40 L 74.80 54.50 L 74.40 51.70 Z" fill="#ecb4bf" fill-rule="nonzero" group-id="1,2,14,32,76,103,123,142,163,176,177,178,179,180" node-id="971" stroke="none" target-height="7.200001" target-width="4.4000015" target-x="70.4" target-y="51.7"></path></g><path d="M 70.40 56.30 L 71.30 57.00 L 73.20 57.10 L 76.00 59.60 L 76.40 60.50 L 76.10 70.80 L 74.90 71.60 L 73.70 71.70 L 72.40 71.40 L 71.20 70.80 L 68.70 68.80 L 69.00 62.80 L 68.20 58.20 L 68.50 57.30 L 69.00 56.70 L 70.40 56.30 Z" fill="#9eb5df" fill-rule="nonzero" group-id="1,2,14,32,76,103,123,142,163,176,177,178,179" node-id="974" stroke="none" target-height="15.399998" target-width="8.200005" target-x="68.2" target-y="56.3"></path></g></g></g></g></g></g></g></g><path d="M 70.00 51.30 L 71.80 50.50 L 73.80 50.70 L 74.60 51.10 L 74.70 52.20 L 73.70 53.50 L 73.80 54.30 L 73.50 54.60 L 73.10 53.70 L 72.70 54.50 L 72.80 56.40 L 71.40 56.60 L 69.90 55.80 L 69.50 52.70 L 70.00 51.30 Z" fill="#a0533f" fill-rule="nonzero" group-id="1,2,14,32,76" node-id="984" stroke="none" target-height="6.0999985" target-width="5.199997" target-x="69.5" target-y="50.5"></path></g></g><g node-id="1026"><path d="M 89.00 57.90 L 86.00 58.50 L 85.30 59.00 L 85.30 59.80 L 87.70 59.70 L 88.00 59.10 L 88.00 58.50 L 89.00 57.90 Z" fill="#ecb4bf" fill-rule="nonzero" group-id="1,2,14,33" node-id="990" stroke="none" target-height="1.8999977" target-width="3.699997" target-x="85.3" target-y="57.9"></path><path d="M 85.80 58.40 L 80.60 59.50 L 74.40 59.10 L 73.80 59.40 L 73.30 60.40 L 73.60 61.60 L 75.20 62.30 L 77.70 62.30 L 81.20 61.80 L 86.00 59.90 L 86.20 58.90 L 85.80 58.40 Z" fill="#b6cbea" fill-rule="nonzero" group-id="1,2,14,33" node-id="992" stroke="none" target-height="3.8999977" target-width="12.899994" target-x="73.3" target-y="58.4"></path></g></g></g></g></svg>