<?xml version="1.0" standalone="no"?><!DOCTYPE svg PUBLIC "-//W3C//DTD SVG 1.1//EN" "http://www.w3.org/Graphics/SVG/1.1/DTD/svg11.dtd"><svg height="126" node-id="1" sillyvg="true" template-height="126" template-width="126" version="1.1" viewBox="0 0 126 126" width="126" xmlns="http://www.w3.org/2000/svg" xmlns:xlink="http://www.w3.org/1999/xlink"><defs node-id="179"></defs><g node-id="635"><g node-id="636"><path d="M 19.80 85.30 L 22.70 85.90 L 27.80 88.00 L 32.90 91.20 L 35.30 93.90 L 36.30 96.80 L 38.40 99.70 L 40.50 101.70 L 45.60 104.90 L 49.80 106.10 L 57.10 105.30 L 61.10 105.70 L 62.80 106.10 L 67.40 108.30 L 124.30 75.40 L 61.00 38.60 L 5.70 70.60 L 3.10 72.90 L 2.20 74.40 L 1.80 76.20 L 1.90 77.80 L 2.50 79.10 L 4.70 81.30 L 9.10 83.30 L 12.00 84.20 L 19.80 85.30 Z" fill="#f3f6fd" fill-rule="nonzero" group-id="1,2" node-id="187" stroke="none" target-height="69.700005" target-width="122.5" target-x="1.8" target-y="38.6"></path><path d="M 12.20 66.80 L 48.20 87.40 L 56.90 82.50 L 20.90 61.80 L 21.40 61.50 L 57.40 82.20 L 84.30 66.70 L 48.20 46.00 L 48.80 45.70 L 84.80 66.40 L 93.40 61.40 L 57.40 40.70 L 57.90 40.40 L 121.40 77.10 L 120.90 77.40 L 93.80 61.60 L 85.20 66.60 L 112.30 82.30 L 111.80 82.60 L 84.70 66.90 L 76.00 71.90 L 103.10 87.70 L 102.70 87.90 L 75.60 72.10 L 66.80 77.20 L 93.90 92.90 L 93.60 93.10 L 66.50 77.40 L 57.80 82.40 L 84.90 98.20 L 84.40 98.50 L 57.30 82.70 L 48.70 87.70 L 75.70 103.40 L 75.20 103.70 L 11.70 67.10 Z" fill="#fdfeff" fill-rule="nonzero" group-id="1,2" node-id="189" stroke="none" target-height="63.299995" target-width="109.700005" target-x="11.7" target-y="40.4"></path></g><g node-id="637"><g node-id="639"><g node-id="649"><g node-id="663"><g node-id="675"><g node-id="688"><g node-id="698"><g node-id="710"><g node-id="722"><path d="M 68.30 90.30 L 69.30 89.10 L 69.50 86.90 L 70.80 84.00 L 71.70 80.00 L 70.90 79.30 L 70.30 79.40 L 69.90 79.10 L 68.50 80.90 L 65.90 80.60 L 65.50 80.90 L 65.70 81.70 L 67.90 82.50 L 66.60 84.80 L 64.10 88.00 L 61.30 93.10 L 55.60 94.70 L 51.50 96.60 L 51.90 96.70 L 51.70 96.90 L 52.90 96.50 L 52.60 97.00 L 53.70 96.10 L 57.50 95.00 L 61.40 94.40 L 62.10 94.80 L 55.90 97.40 L 56.70 97.30 L 55.80 97.90 L 56.90 97.90 L 57.90 97.10 L 60.30 96.40 L 59.80 97.30 L 60.20 97.60 L 61.70 97.70 L 63.40 97.40 L 64.00 96.90 L 64.30 95.50 L 65.70 95.30 L 66.60 94.70 L 67.40 92.10 L 68.30 90.30 Z" fill="#e1e9f4" fill-rule="nonzero" group-id="1,3,5,15,29,41,54,64,76,88" node-id="210" stroke="none" target-height="18.800003" target-width="20.199997" target-x="51.5" target-y="79.1"></path></g></g></g></g></g></g></g><g node-id="650"><g node-id="664"><g node-id="676"><g node-id="689"><g node-id="699"><path d="M 87.40 63.90 L 87.00 64.40 L 54.40 83.20 L 48.50 84.00 L 44.90 86.90 L 35.60 83.20 L 38.80 80.20 L 36.00 73.50 L 32.20 71.30 L 31.80 70.80 L 31.80 68.40 L 32.20 68.90 L 42.10 74.70 L 43.80 75.00 L 44.70 74.30 L 46.40 75.30 L 52.90 76.10 L 52.80 79.00 L 54.40 79.00 L 59.00 76.30 L 57.50 79.10 L 87.00 62.00 L 87.30 61.50 L 87.40 63.90 Z" fill="#e1e9f4" fill-rule="nonzero" group-id="1,3,5,16,30,42,55,65" node-id="229" stroke="none" target-height="25.400002" target-width="55.600002" target-x="31.8" target-y="61.5"></path><g node-id="711"><path d="M 31.80 66.50 L 31.80 68.90 L 32.20 69.40 L 52.80 81.40 L 53.60 81.60 L 54.40 81.40 L 87.00 62.50 L 87.40 62.10 L 87.30 59.70 L 87.00 60.10 L 54.40 79.00 L 53.60 79.20 L 52.80 79.00 L 32.20 67.00 L 31.80 66.50 Z" fill="#9eb5df" fill-rule="nonzero" group-id="1,3,5,16,30,42,55,65,77" node-id="233" stroke="none" target-height="21.899998" target-width="55.600002" target-x="31.8" target-y="59.7"></path></g><g node-id="712"><path d="M 31.80 68.50 L 32.20 69.00 L 52.80 81.00 L 53.60 81.10 L 54.40 81.00 L 87.00 62.10 L 87.40 61.60 L 87.40 62.10 L 87.00 62.50 L 54.40 81.40 L 53.60 81.60 L 52.80 81.40 L 32.20 69.40 L 31.80 68.90 L 31.80 66.50 L 31.80 68.50 Z" fill="#83a1cc" fill-rule="nonzero" group-id="1,3,5,16,30,42,55,65,78" node-id="238" stroke="none" target-height="20" target-width="55.600002" target-x="31.8" target-y="61.6"></path></g><path d="M 32.20 66.10 L 31.80 66.50 L 32.20 67.00 L 52.80 79.00 L 53.60 79.20 L 54.40 79.00 L 87.00 60.10 L 87.30 59.70 L 87.00 59.20 L 66.40 47.20 L 65.60 47.00 L 64.80 47.20 L 32.20 66.10 Z" fill="#dee7f8" fill-rule="nonzero" group-id="1,3,5,16,30,42,55,65,79" node-id="243" stroke="none" target-height="32.199997" target-width="55.500004" target-x="31.8" target-y="47"></path></g></g><g node-id="690"><g node-id="700"><g node-id="714"><path d="M 41.40 70.50 L 41.00 71.00 L 41.40 71.60 L 44.90 73.60 L 45.80 73.80 L 46.70 73.60 L 47.10 73.10 L 46.70 72.60 L 43.20 70.50 L 42.30 70.30 L 41.40 70.50 Z" fill="#b6cbea" fill-rule="nonzero" group-id="1,3,5,16,30,42,56,66,80" node-id="254" stroke="none" target-height="3.5" target-width="6.0999985" target-x="41" target-y="70.3"></path></g><path d="M 35.90 64.80 L 35.60 65.30 L 35.90 65.70 L 55.10 76.80 L 56.50 76.80 L 85.40 60.10 L 85.70 59.70 L 85.40 59.30 L 78.50 55.20 L 74.90 54.20 L 73.30 52.20 L 66.30 48.10 L 64.90 48.10 L 35.90 64.80 Z" fill="#1e72c6" fill-rule="nonzero" group-id="1,3,5,16,30,42,56,66,81" node-id="259" stroke="none" target-height="28.700005" target-width="50.1" target-x="35.6" target-y="48.1"></path></g></g></g><g node-id="677"><g node-id="691"><g node-id="701"><g node-id="716"><path d="M 53.50 43.90 L 52.90 44.50 L 52.70 45.40 L 52.70 62.30 L 53.00 62.80 L 53.60 62.80 L 63.30 57.10 L 63.90 56.50 L 64.10 55.70 L 64.10 38.80 L 63.90 38.20 L 63.30 38.30 L 53.50 43.90 Z" fill="#dee7f8" fill-rule="nonzero" group-id="1,3,5,16,30,43,57,67,82" node-id="273" stroke="none" target-height="24.599998" target-width="11.399998" target-x="52.7" target-y="38.2"></path></g><g node-id="717"><g node-id="723"><path d="M 53.90 47.50 L 53.90 48.30 L 62.90 43.10 L 62.90 42.40 Z" fill="#3887e5" fill-rule="nonzero" group-id="1,3,5,16,30,43,57,67,83,89" node-id="280" stroke="none" target-height="5.8999977" target-width="9" target-x="53.9" target-y="42.4"></path></g><g node-id="724"><path d="M 53.90 45.80 L 53.90 46.50 L 62.90 41.30 L 62.90 40.60 Z" fill="#3887e5" fill-rule="nonzero" group-id="1,3,5,16,30,43,57,67,83,90" node-id="285" stroke="none" target-height="5.9000015" target-width="9" target-x="53.9" target-y="40.6"></path></g><g node-id="725"><path d="M 53.90 57.00 L 53.90 57.90 L 56.90 56.20 L 56.90 55.20 Z" fill="#3887e5" fill-rule="nonzero" group-id="1,3,5,16,30,43,57,67,83,91" node-id="290" stroke="none" target-height="2.7000008" target-width="3" target-x="53.9" target-y="55.2"></path></g><g node-id="726"><path d="M 53.90 49.30 L 53.90 50.10 L 62.90 44.90 L 62.90 44.20 Z" fill="#3887e5" fill-rule="nonzero" group-id="1,3,5,16,30,43,57,67,83,92" node-id="295" stroke="none" target-height="5.8999977" target-width="9" target-x="53.9" target-y="44.2"></path></g><g node-id="727"><path d="M 53.90 52.90 L 53.90 53.60 L 59.40 50.50 L 59.40 49.70 Z" fill="#3887e5" fill-rule="nonzero" group-id="1,3,5,16,30,43,57,67,83,93" node-id="300" stroke="none" target-height="3.8999977" target-width="5.5" target-x="53.9" target-y="49.7"></path></g><path d="M 53.90 51.10 L 53.90 51.80 L 62.90 46.70 L 62.90 45.90 Z" fill="#3887e5" fill-rule="nonzero" group-id="1,3,5,16,30,43,57,67,83,94" node-id="305" stroke="none" target-height="5.8999977" target-width="9" target-x="53.9" target-y="45.9"></path></g></g><g node-id="702"><g node-id="718"><g node-id="729"><path d="M 58.80 46.40 L 49.20 58.80 L 58.80 58.30 L 68.40 47.70 Z" fill="#6b9ef9" fill-opacity="0.5" fill-rule="nonzero" group-id="1,3,5,16,30,43,57,68,84,95" node-id="316" stroke="none" target-height="12.399998" target-width="19.2" target-x="49.2" target-y="46.4"></path></g><g node-id="730"><path d="M 49.20 70.30 L 44.70 74.30 L 52.80 79.00 L 54.40 79.00 L 59.00 76.30 L 68.40 59.30 L 49.20 70.30 Z" fill="#e1e9f4" fill-opacity="0.3" fill-rule="nonzero" group-id="1,3,5,16,30,43,57,68,84,96" node-id="321" stroke="none" target-height="19.7" target-width="23.7" target-x="44.7" target-y="59.3"></path></g><path d="M 58.80 58.30 L 68.40 47.70 L 68.40 59.30 L 49.20 70.30 L 49.20 58.80 Z" fill="#dee7f8" fill-rule="nonzero" group-id="1,3,5,16,30,43,57,68,84,97" node-id="326" stroke="none" target-height="22.600002" target-width="19.2" target-x="49.2" target-y="47.7"></path></g></g><path d="M 60.50 56.30 L 59.00 56.30 L 57.80 57.20 L 49.20 70.30 L 68.40 59.30 L 60.50 56.30 Z" fill="#b6cbea" fill-rule="nonzero" group-id="1,3,5,16,30,43,57" node-id="331" stroke="none" target-height="14.000004" target-width="19.2" target-x="49.2" target-y="56.3"></path></g></g></g><g node-id="665"><g node-id="678"><g node-id="692"><path d="M 63.30 53.00 L 64.00 53.20 L 63.40 52.10 L 63.90 52.30 L 63.70 51.90 L 64.40 52.20 L 64.50 52.00 L 65.60 53.70 L 65.00 54.10 L 63.30 53.00 Z" fill="#ecb4bf" fill-rule="nonzero" group-id="1,3,5,16,31,44,58" node-id="342" stroke="none" target-height="2.199997" target-width="2.2999992" target-x="63.3" target-y="51.9"></path><g node-id="703"><path d="M 71.10 58.80 L 67.60 57.10 L 65.70 55.40 L 64.50 54.00 L 65.40 53.40 L 68.90 55.70 L 72.60 57.00 L 72.80 57.80 L 72.60 58.30 L 71.70 58.90 L 71.10 58.80 Z" fill="#ffffff" fill-rule="nonzero" group-id="1,3,5,16,31,44,58,69" node-id="346" stroke="none" target-height="5.5" target-width="8.300003" target-x="64.5" target-y="53.4"></path></g><g node-id="704"><g node-id="719"><path d="M 68.40 79.00 L 71.60 80.10 L 71.80 78.80 L 71.10 78.80 L 70.50 78.40 L 68.30 78.20 L 68.10 78.60 L 68.40 79.00 Z" fill="#2a2a5e" fill-rule="nonzero" group-id="1,3,5,16,31,44,58,70,85" node-id="353" stroke="none" target-height="1.9000015" target-width="3.7000046" target-x="68.1" target-y="78.2"></path></g><g node-id="720"><g node-id="732"><g node-id="734"><g node-id="736"><g node-id="737"><g node-id="738"><path d="M 69.90 72.60 L 70.40 78.60 L 71.00 79.00 L 71.80 79.00 L 72.20 76.10 L 72.10 71.70 L 72.80 67.60 L 72.80 66.70 L 72.20 65.50 L 69.20 66.60 L 69.40 70.30 L 69.90 72.60 Z" fill="#3a3a77" fill-rule="nonzero" group-id="1,3,5,16,31,44,58,70,86,98,100,102,103,104" node-id="368" stroke="none" target-height="13.5" target-width="3.600006" target-x="69.2" target-y="65.5"></path></g><path d="M 65.90 81.30 L 69.70 81.40 L 69.70 79.90 L 68.30 79.70 L 66.20 80.50 L 65.60 80.80 L 65.90 81.30 Z" fill="#2a2a5e" fill-rule="nonzero" group-id="1,3,5,16,31,44,58,70,86,98,100,102,103" node-id="371" stroke="none" target-height="1.7000046" target-width="4.0999985" target-x="65.6" target-y="79.7"></path><g node-id="739"><path d="M 67.90 73.90 L 68.30 79.70 L 68.90 80.10 L 69.70 80.10 L 70.10 77.20 L 70.00 72.70 L 71.00 68.60 L 70.80 66.10 L 67.10 67.70 L 67.30 71.50 L 67.90 73.90 Z" fill="#4c4a8b" fill-rule="nonzero" group-id="1,3,5,16,31,44,58,70,86,98,100,102,103,105" node-id="375" stroke="none" target-height="14" target-width="3.9000015" target-x="67.1" target-y="66.1"></path></g><path d="M 71.30 57.30 L 70.20 54.50 L 67.30 53.40 L 67.10 54.20 L 67.60 56.40 L 68.80 57.00 L 69.10 57.80 L 70.90 57.70 L 71.30 57.30 Z" fill="#ecb4bf" fill-rule="nonzero" group-id="1,3,5,16,31,44,58,70,86,98,100,102,103,106" node-id="380" stroke="none" target-height="4.3999977" target-width="4.2000046" target-x="67.1" target-y="53.4"></path></g></g><path d="M 66.90 59.40 L 67.20 58.60 L 68.70 57.00 L 70.40 56.60 L 70.80 56.10 L 71.00 56.50 L 72.20 56.70 L 72.80 57.90 L 72.20 66.30 L 71.10 67.20 L 69.80 67.50 L 67.10 67.70 L 66.90 59.40 Z" fill="#ffffff" fill-rule="nonzero" group-id="1,3,5,16,31,44,58,70,86,98,100" node-id="385" stroke="none" target-height="11.599998" target-width="5.9000015" target-x="66.9" target-y="56.1"></path></g></g></g></g><path d="M 59.80 53.70 L 60.00 54.50 L 58.90 53.70 L 59.10 54.20 L 58.70 54.00 L 59.00 54.70 L 58.70 54.80 L 60.20 56.10 L 60.70 55.50 L 59.80 53.70 Z" fill="#ecb4bf" fill-rule="nonzero" group-id="1,3,5,16,31,44,58" node-id="391" stroke="none" target-height="2.3999977" target-width="2" target-x="58.7" target-y="53.7"></path><g node-id="705"><path d="M 66.90 60.60 L 63.20 58.80 L 61.10 57.20 L 59.90 55.80 L 60.70 55.20 L 64.30 57.50 L 68.10 58.70 L 68.30 60.00 L 67.50 60.70 L 66.90 60.60 Z" fill="#ffffff" fill-rule="nonzero" group-id="1,3,5,16,31,44,58,71" node-id="395" stroke="none" target-height="5.5" target-width="8.400002" target-x="59.9" target-y="55.2"></path></g></g><path d="M 70.80 52.90 L 69.50 52.40 L 67.30 52.80 L 67.10 53.20 L 68.00 54.50 L 68.00 55.10 L 68.20 55.30 L 68.40 54.70 L 68.70 55.20 L 68.70 56.60 L 69.80 56.70 L 70.90 56.20 L 71.30 53.90 L 70.80 52.90 Z" fill="#a0533f" fill-rule="nonzero" group-id="1,3,5,16,31,44,59,72,87,99,101" node-id="409" stroke="none" target-height="4.299999" target-width="4.2000046" target-x="67.1" target-y="52.4"></path></g></g></g></g><g node-id="640"><g node-id="651"><g node-id="666"><path d="M 80.60 33.90 L 80.40 33.80 L 80.40 38.00 L 73.00 42.30 L 72.80 43.20 L 72.40 42.90 L 72.40 36.80 L 80.60 32.10 L 81.00 32.30 Z" fill="#1e72c6" fill-rule="nonzero" group-id="1,3,6,17,32" node-id="426" stroke="none" target-height="11.100002" target-width="8.599998" target-x="72.4" target-y="32.1"></path><path d="M 81.00 32.30 L 81.00 38.40 L 72.80 43.20 L 72.80 37.10 Z" fill="#3887e5" fill-rule="nonzero" group-id="1,3,6,17,32" node-id="428" stroke="none" target-height="10.900002" target-width="8.199997" target-x="72.8" target-y="32.3"></path><g node-id="679"><path d="M 76.90 37.30 L 72.80 43.20 L 81.00 38.40 Z" fill="#6b9ef9" fill-rule="nonzero" group-id="1,3,6,17,32,45" node-id="432" stroke="none" target-height="5.9000015" target-width="8.199997" target-x="72.8" target-y="37.3"></path></g></g><path d="M 81.00 32.30 L 76.90 38.40 L 72.80 37.10 Z" fill="#a6c2ff" fill-rule="nonzero" group-id="1,3,6,17" node-id="436" stroke="none" target-height="6.1000023" target-width="8.199997" target-x="72.8" target-y="32.3"></path></g></g><g node-id="641"><g node-id="652"><g node-id="667"><g node-id="680"><g node-id="694"><g node-id="707"><path d="M 70.10 29.20 L 73.30 29.90 L 80.70 22.60 Z" fill="#a6c2ff" fill-rule="nonzero" group-id="1,3,7,18,33,46,60,73" node-id="452" stroke="none" target-height="7.299999" target-width="10.599998" target-x="70.1" target-y="22.6"></path><path d="M 74.70 32.90 L 73.30 29.90 L 80.70 22.60 Z" fill="#6b9ef9" fill-rule="nonzero" group-id="1,3,7,18,33,46,60,73" node-id="454" stroke="none" target-height="10.300001" target-width="7.399994" target-x="73.3" target-y="22.6"></path><path d="M 74.70 30.20 L 74.70 32.90 L 80.70 22.60 Z" fill="#1e72c6" fill-rule="nonzero" group-id="1,3,7,18,33,46,60,73" node-id="456" stroke="none" target-height="10.300001" target-width="6" target-x="74.7" target-y="22.6"></path><path d="M 77.90 30.80 L 74.70 30.20 L 80.70 22.60 Z" fill="#a6c2ff" fill-rule="nonzero" group-id="1,3,7,18,33,46,60,73" node-id="458" stroke="none" target-height="8.199999" target-width="6" target-x="74.7" target-y="22.6"></path></g></g></g></g></g></g><g node-id="642"><g node-id="653"><g node-id="668"><path d="M 57.30 29.00 L 57.10 28.90 L 57.10 33.20 L 49.80 37.40 L 49.60 38.30 L 49.10 38.00 L 49.10 32.00 L 57.30 27.20 L 57.80 27.50 Z" fill="#1e72c6" fill-rule="nonzero" group-id="1,3,8,19,34" node-id="472" stroke="none" target-height="11.099998" target-width="8.700001" target-x="49.1" target-y="27.2"></path><path d="M 57.80 27.50 L 57.80 33.50 L 49.60 38.30 L 49.50 32.20 Z" fill="#3887e5" fill-rule="nonzero" group-id="1,3,8,19,34" node-id="474" stroke="none" target-height="10.799999" target-width="8.299999" target-x="49.5" target-y="27.5"></path><g node-id="681"><path d="M 53.70 32.40 L 49.60 38.30 L 57.80 33.50 Z" fill="#6b9ef9" fill-rule="nonzero" group-id="1,3,8,19,34,47" node-id="478" stroke="none" target-height="5.8999977" target-width="8.200001" target-x="49.6" target-y="32.4"></path></g></g><path d="M 57.80 27.50 L 53.70 33.50 L 49.50 32.20 Z" fill="#a6c2ff" fill-rule="nonzero" group-id="1,3,8,19" node-id="482" stroke="none" target-height="6" target-width="8.299999" target-x="49.5" target-y="27.5"></path></g></g><g node-id="643"><g node-id="654"><g node-id="669"><g node-id="682"><g node-id="695"><g node-id="708"><path d="M 46.80 24.40 L 50.00 25.00 L 57.50 17.70 Z" fill="#a6c2ff" fill-rule="nonzero" group-id="1,3,9,20,35,48,61,74" node-id="498" stroke="none" target-height="7.299999" target-width="10.700001" target-x="46.8" target-y="17.7"></path><path d="M 51.50 28.00 L 50.00 25.00 L 57.50 17.70 Z" fill="#6b9ef9" fill-rule="nonzero" group-id="1,3,9,20,35,48,61,74" node-id="500" stroke="none" target-height="10.299999" target-width="7.5" target-x="50" target-y="17.7"></path><path d="M 51.40 25.30 L 51.50 28.00 L 57.50 17.70 Z" fill="#1e72c6" fill-rule="nonzero" group-id="1,3,9,20,35,48,61,74" node-id="502" stroke="none" target-height="10.299999" target-width="6.0999985" target-x="51.4" target-y="17.7"></path><path d="M 54.60 25.90 L 51.40 25.30 L 57.50 17.70 Z" fill="#a6c2ff" fill-rule="nonzero" group-id="1,3,9,20,35,48,61,74" node-id="504" stroke="none" target-height="8.199999" target-width="6.0999985" target-x="51.4" target-y="17.7"></path></g></g></g></g></g></g><g node-id="644"><g node-id="655"><g node-id="670"><path d="M 38.60 50.80 L 38.40 50.70 L 38.40 55.00 L 31.00 59.20 L 30.80 60.10 L 30.40 59.80 L 30.40 53.80 L 38.60 49.00 L 39.00 49.20 Z" fill="#1e72c6" fill-rule="nonzero" group-id="1,3,10,21,36" node-id="518" stroke="none" target-height="11.099998" target-width="8.6" target-x="30.4" target-y="49"></path><path d="M 39.00 49.30 L 39.00 55.30 L 30.80 60.10 L 30.80 54.00 Z" fill="#3887e5" fill-rule="nonzero" group-id="1,3,10,21,36" node-id="520" stroke="none" target-height="10.799999" target-width="8.200001" target-x="30.8" target-y="49.3"></path><g node-id="683"><path d="M 34.90 54.20 L 30.80 60.10 L 39.00 55.30 Z" fill="#6b9ef9" fill-rule="nonzero" group-id="1,3,10,21,36,49" node-id="524" stroke="none" target-height="5.8999977" target-width="8.200001" target-x="30.8" target-y="54.2"></path></g></g><path d="M 39.00 49.30 L 34.90 55.30 L 30.80 54.00 Z" fill="#a6c2ff" fill-rule="nonzero" group-id="1,3,10,21" node-id="528" stroke="none" target-height="6" target-width="8.200001" target-x="30.8" target-y="49.3"></path></g></g><g node-id="645"><g node-id="656"><g node-id="671"><g node-id="684"><g node-id="696"><g node-id="709"><path d="M 28.00 46.10 L 31.30 46.80 L 38.70 39.50 Z" fill="#a6c2ff" fill-rule="nonzero" group-id="1,3,11,22,37,50,62,75" node-id="544" stroke="none" target-height="7.299999" target-width="10.700001" target-x="28" target-y="39.5"></path><path d="M 32.70 49.80 L 31.30 46.80 L 38.70 39.50 Z" fill="#6b9ef9" fill-rule="nonzero" group-id="1,3,11,22,37,50,62,75" node-id="546" stroke="none" target-height="10.299999" target-width="7.4000015" target-x="31.3" target-y="39.5"></path><path d="M 32.60 47.10 L 32.70 49.80 L 38.70 39.50 Z" fill="#1e72c6" fill-rule="nonzero" group-id="1,3,11,22,37,50,62,75" node-id="548" stroke="none" target-height="10.299999" target-width="6.1000023" target-x="32.6" target-y="39.5"></path><path d="M 35.90 47.70 L 32.60 47.10 L 38.70 39.50 Z" fill="#a6c2ff" fill-rule="nonzero" group-id="1,3,11,22,37,50,62,75" node-id="550" stroke="none" target-height="8.200001" target-width="6.1000023" target-x="32.6" target-y="39.5"></path></g></g></g></g></g></g></g><path d="M 103.20 75.50 L 102.30 74.20 L 90.50 67.20 L 89.80 67.00 L 89.40 67.30 L 84.30 79.20 L 84.70 80.60 L 85.20 81.10 L 88.40 83.30 L 88.50 84.50 L 89.30 85.50 L 91.50 86.60 L 92.70 85.80 L 97.80 88.30 L 98.20 88.00 L 103.20 76.10 L 103.20 75.50 Z M 90.70 85.00 L 90.10 85.10 L 89.90 84.80 L 90.60 84.70 L 90.70 85.00 Z" fill="#e1e9f4" fill-rule="nonzero" group-id="1" node-id="559" stroke="none" target-height="21.300003" target-width="18.899994" target-x="84.3" target-y="67"></path><g node-id="638"><g node-id="646"><g node-id="657"><g node-id="672"><g node-id="685"><path d="M 103.50 58.00 L 103.40 75.40 L 102.70 76.20 L 102.90 75.70 L 103.00 58.30 L 102.70 57.50 L 102.10 56.90 L 90.30 50.10 L 89.70 50.00 L 90.80 49.80 L 102.70 56.60 L 103.50 58.00 Z" fill="#83a1cc" fill-rule="nonzero" group-id="1,4,12,23,38,51" node-id="571" stroke="none" target-height="26.399998" target-width="13.800003" target-x="89.7" target-y="49.8"></path></g><path d="M 102.10 56.90 L 102.70 57.50 L 103.00 58.30 L 102.90 75.70 L 102.70 76.20 L 102.10 76.20 L 90.30 69.30 L 89.70 68.70 L 89.40 67.90 L 89.50 50.50 L 89.70 50.00 L 90.30 50.10 L 102.10 56.90 Z" fill="#b6cbea" fill-rule="nonzero" group-id="1,4,12,23,38,52" node-id="576" stroke="none" target-height="26.199997" target-width="13.599998" target-x="89.4" target-y="50"></path></g></g><g node-id="658"><path d="M 101.50 57.10 L 101.40 74.30 L 90.90 68.20 L 91.00 51.00 Z" fill="#ffffff" fill-rule="nonzero" group-id="1,4,12,24" node-id="583" stroke="none" target-height="23.300003" target-width="10.599998" target-x="90.9" target-y="51"></path></g><g node-id="659"><g node-id="673"><g node-id="687"><g node-id="697"><path d="M 92.50 50.90 L 92.30 51.10 L 92.70 51.00 L 94.00 51.60 L 94.20 51.40 L 93.60 51.00 L 92.50 50.90 Z" fill="#6262aa" fill-rule="nonzero" group-id="1,4,12,25,39,53,63" node-id="594" stroke="none" target-height="0.69999695" target-width="1.8999939" target-x="92.3" target-y="50.9"></path><path d="M 96.30 52.50 L 95.90 52.10 L 95.90 51.30 L 95.50 51.70 L 95.70 52.20 L 96.10 52.60 L 96.70 52.50 L 96.30 52.50 Z" fill="#6262aa" fill-rule="nonzero" group-id="1,4,12,25,39,53,63" node-id="596" stroke="none" target-height="1.2999992" target-width="1.199997" target-x="95.5" target-y="51.3"></path><path d="M 99.00 54.20 L 98.40 53.80 L 97.60 51.70 L 97.00 51.10 L 95.20 50.10 L 94.60 50.30 L 95.40 50.40 L 97.40 51.80 L 98.10 53.90 L 99.90 55.40 L 100.30 56.90 L 100.50 56.80 L 100.10 55.30 L 99.00 54.20 Z" fill="#6262aa" fill-rule="nonzero" group-id="1,4,12,25,39,53,63" node-id="598" stroke="none" target-height="6.800003" target-width="5.9000015" target-x="94.6" target-y="50.1"></path></g></g></g><path d="M 98.80 54.30 L 99.90 55.40 L 100.30 56.90 L 91.80 52.10 L 92.30 51.10 L 92.70 51.00 L 94.00 51.60 L 94.70 50.30 L 96.80 51.20 L 97.40 51.80 L 98.10 53.90 L 98.80 54.30 Z M 96.10 52.60 L 96.40 52.70 L 96.40 51.80 L 95.70 51.40 L 95.50 51.70 L 96.10 52.60" fill="#2a2a5e" fill-rule="nonzero" group-id="1,4,12,25,40" node-id="605" stroke="none" target-height="6.6000023" target-width="8.5" target-x="91.8" target-y="50.3"></path></g></g><path d="M 92.10 61.40 L 92.10 67.30 L 100.00 71.90 L 100.00 66.00 Z" fill="#3887e5" fill-rule="nonzero" group-id="1,4" node-id="610" stroke="none" target-height="10.5" target-width="7.9000015" target-x="92.1" target-y="61.4"></path><g node-id="647"><path d="M 96.10 66.20 L 100.00 71.90 L 92.10 67.30 Z" fill="#6b9ef9" fill-rule="nonzero" group-id="1,4,13" node-id="614" stroke="none" target-height="5.7000046" target-width="7.9000015" target-x="92.1" target-y="66.2"></path></g><path d="M 92.10 61.40 L 96.10 67.30 L 100.00 66.00 Z" fill="#a6c2ff" fill-rule="nonzero" group-id="1,4" node-id="617" stroke="none" target-height="5.9000015" target-width="7.9000015" target-x="92.1" target-y="61.4"></path><g node-id="648"><g node-id="660"><path d="M 97.00 60.70 L 97.00 61.50 L 92.00 58.50 L 92.00 57.80 Z" fill="#b6cbea" fill-rule="nonzero" group-id="1,4,14,26" node-id="623" stroke="none" target-height="3.7000008" target-width="5" target-x="92" target-y="57.8"></path></g><g node-id="661"><path d="M 100.40 59.20 L 100.40 59.90 L 92.00 55.00 L 92.00 54.30 Z" fill="#b6cbea" fill-rule="nonzero" group-id="1,4,14,27" node-id="628" stroke="none" target-height="5.6000023" target-width="8.400002" target-x="92" target-y="54.3"></path></g><path d="M 100.40 60.90 L 100.40 61.60 L 92.00 56.80 L 92.00 56.00 Z" fill="#b6cbea" fill-rule="nonzero" group-id="1,4,14,28" node-id="633" stroke="none" target-height="5.5999985" target-width="8.400002" target-x="92" target-y="56"></path></g></g></g></svg>